<?xml version="1.0" standalone="no"?>
<!DOCTYPE svg PUBLIC "-//W3C//DTD SVG 1.1//EN" "http://www.w3.org/Graphics/SVG/1.1/DTD/svg11.dtd" >
<svg xmlns="http://www.w3.org/2000/svg" xmlns:xlink="http://www.w3.org/1999/xlink" version="1.1">
<metadata>
Created by FontForge 20170731 at Fri Jun 24 21:40:07 2022
 By Aleksey,,,
Copyright (c) 2016 by Pedro Alexandre Vilas Boas Teixeira. All rights reserved.
</metadata>
<defs>
<font id="ForeverBrushScript" horiz-adv-x="1945" >
  <font-face 
    font-family="Forever Brush Script"
    font-weight="400"
    font-stretch="normal"
    units-per-em="2048"
    panose-1="2 0 5 6 0 0 0 2 0 4"
    ascent="1495"
    descent="-553"
    x-height="991"
    cap-height="1491"
    bbox="-293 -627 1855 1731"
    underline-thickness="102"
    underline-position="-307"
    unicode-range="U+0020-FB06"
  />
<missing-glyph horiz-adv-x="716" 
 />
    <glyph glyph-name=".notdef" horiz-adv-x="716" 
 />
    <glyph glyph-name=".null" horiz-adv-x="0" 
 />
    <glyph glyph-name="nonmarkingreturn" horiz-adv-x="682" 
 />
    <glyph glyph-name="space" unicode=" " horiz-adv-x="716" 
 />
    <glyph glyph-name="exclam" unicode="!" 
d="M1675 391q44 0 87 40t64 80l21 40q-3 -9 -8.5 -24t-26 -54t-45.5 -70t-67 -58.5t-90 -33.5q-114 -112 -265 -174.5t-317 -62.5q-169 0 -322.5 65.5t-264.5 176t-176.5 264t-65.5 321.5q0 70 14 156q-64 -47 -127 -109q12 21 27.5 46t56 80.5t84 104.5t109 106.5t133 98
t154.5 68t175 27.5q113 0 113 -66q0 -44 -51 -126t-123.5 -176.5t-145 -195t-123.5 -207.5t-51 -188q0 -59 35.5 -98t91.5 -39q49 0 89 37.5t40 79.5q0 10 -10 10q-6 -2 -22 -2q-60 0 -60 74q0 59 43 149.5t104.5 183.5t123 184.5t104.5 174.5t43 131q0 56 -42 95.5
t-122 39.5q-171 0 -322 -82.5t-270 -216.5q100 220 304 355t454 135q135 0 261 -42t228 -118.5t178.5 -178.5t118 -229t41.5 -262q0 -221 -110 -414q-27 -10 -43 -10q-62 0 -98.5 41.5t-57.5 114.5q127 139 215 295q6 12 6 18t-4 6q-8 0 -16 -16q-80 -147 -211 -266
q-6 26 -15.5 71t-15.5 72.5t-17.5 62t-24 54t-33.5 33.5t-48 14t-50 -11t-37.5 -29.5t-23 -33.5t-14.5 -31q0 -8 7 -8q40 0 72.5 -14t54 -33.5t41.5 -54t31 -61.5t26 -70q-183 -142 -336 -142q-135 0 -135 199q0 162 86 402q64 4 319.5 30.5t345.5 26.5q23 0 23 10
q0 8 -20 8q-101 0 -286.5 1t-350.5 1q39 96 76.5 157.5t58.5 61.5q14 0 14 -38q0 -13 12 -13t19.5 8t7.5 19q0 17 -16.5 32t-44.5 15q-36 0 -92 -67.5t-113 -174.5h-66q-41 0 -41 -22q0 -16 18 -31.5t50 -21.5q-123 -264 -123 -461q0 -250 221 -250q180 0 387 207
q16 -46 28.5 -75t33 -60.5t48 -46.5t62.5 -15z" />
    <glyph glyph-name="quotedbl" unicode="&#x22;" 
d="M1675 391q44 0 87 40t64 80l21 40q-3 -9 -8.5 -24t-26 -54t-45.5 -70t-67 -58.5t-90 -33.5q-114 -112 -265 -174.5t-317 -62.5q-169 0 -322.5 65.5t-264.5 176t-176.5 264t-65.5 321.5q0 70 14 156q-64 -47 -127 -109q12 21 27.5 46t56 80.5t84 104.5t109 106.5t133 98
t154.5 68t175 27.5q113 0 113 -66q0 -44 -51 -126t-123.5 -176.5t-145 -195t-123.5 -207.5t-51 -188q0 -59 35.5 -98t91.5 -39q49 0 89 37.5t40 79.5q0 10 -10 10q-6 -2 -22 -2q-60 0 -60 74q0 59 43 149.5t104.5 183.5t123 184.5t104.5 174.5t43 131q0 56 -42 95.5
t-122 39.5q-171 0 -322 -82.5t-270 -216.5q100 220 304 355t454 135q135 0 261 -42t228 -118.5t178.5 -178.5t118 -229t41.5 -262q0 -221 -110 -414q-27 -10 -43 -10q-62 0 -98.5 41.5t-57.5 114.5q127 139 215 295q6 12 6 18t-4 6q-8 0 -16 -16q-80 -147 -211 -266
q-6 26 -15.5 71t-15.5 72.5t-17.5 62t-24 54t-33.5 33.5t-48 14t-50 -11t-37.5 -29.5t-23 -33.5t-14.5 -31q0 -8 7 -8q40 0 72.5 -14t54 -33.5t41.5 -54t31 -61.5t26 -70q-183 -142 -336 -142q-135 0 -135 199q0 162 86 402q64 4 319.5 30.5t345.5 26.5q23 0 23 10
q0 8 -20 8q-101 0 -286.5 1t-350.5 1q39 96 76.5 157.5t58.5 61.5q14 0 14 -38q0 -13 12 -13t19.5 8t7.5 19q0 17 -16.5 32t-44.5 15q-36 0 -92 -67.5t-113 -174.5h-66q-41 0 -41 -22q0 -16 18 -31.5t50 -21.5q-123 -264 -123 -461q0 -250 221 -250q180 0 387 207
q16 -46 28.5 -75t33 -60.5t48 -46.5t62.5 -15z" />
    <glyph glyph-name="numbersign" unicode="#" 
d="M1675 391q44 0 87 40t64 80l21 40q-3 -9 -8.5 -24t-26 -54t-45.5 -70t-67 -58.5t-90 -33.5q-114 -112 -265 -174.5t-317 -62.5q-169 0 -322.5 65.5t-264.5 176t-176.5 264t-65.5 321.5q0 70 14 156q-64 -47 -127 -109q12 21 27.5 46t56 80.5t84 104.5t109 106.5t133 98
t154.5 68t175 27.5q113 0 113 -66q0 -44 -51 -126t-123.5 -176.5t-145 -195t-123.5 -207.5t-51 -188q0 -59 35.5 -98t91.5 -39q49 0 89 37.5t40 79.5q0 10 -10 10q-6 -2 -22 -2q-60 0 -60 74q0 59 43 149.5t104.5 183.5t123 184.5t104.5 174.5t43 131q0 56 -42 95.5
t-122 39.5q-171 0 -322 -82.5t-270 -216.5q100 220 304 355t454 135q135 0 261 -42t228 -118.5t178.5 -178.5t118 -229t41.5 -262q0 -221 -110 -414q-27 -10 -43 -10q-62 0 -98.5 41.5t-57.5 114.5q127 139 215 295q6 12 6 18t-4 6q-8 0 -16 -16q-80 -147 -211 -266
q-6 26 -15.5 71t-15.5 72.5t-17.5 62t-24 54t-33.5 33.5t-48 14t-50 -11t-37.5 -29.5t-23 -33.5t-14.5 -31q0 -8 7 -8q40 0 72.5 -14t54 -33.5t41.5 -54t31 -61.5t26 -70q-183 -142 -336 -142q-135 0 -135 199q0 162 86 402q64 4 319.5 30.5t345.5 26.5q23 0 23 10
q0 8 -20 8q-101 0 -286.5 1t-350.5 1q39 96 76.5 157.5t58.5 61.5q14 0 14 -38q0 -13 12 -13t19.5 8t7.5 19q0 17 -16.5 32t-44.5 15q-36 0 -92 -67.5t-113 -174.5h-66q-41 0 -41 -22q0 -16 18 -31.5t50 -21.5q-123 -264 -123 -461q0 -250 221 -250q180 0 387 207
q16 -46 28.5 -75t33 -60.5t48 -46.5t62.5 -15z" />
    <glyph glyph-name="dollar" unicode="$" 
d="M1675 391q44 0 87 40t64 80l21 40q-3 -9 -8.5 -24t-26 -54t-45.5 -70t-67 -58.5t-90 -33.5q-114 -112 -265 -174.5t-317 -62.5q-169 0 -322.5 65.5t-264.5 176t-176.5 264t-65.5 321.5q0 70 14 156q-64 -47 -127 -109q12 21 27.5 46t56 80.5t84 104.5t109 106.5t133 98
t154.5 68t175 27.5q113 0 113 -66q0 -44 -51 -126t-123.5 -176.5t-145 -195t-123.5 -207.5t-51 -188q0 -59 35.5 -98t91.5 -39q49 0 89 37.5t40 79.5q0 10 -10 10q-6 -2 -22 -2q-60 0 -60 74q0 59 43 149.5t104.5 183.5t123 184.5t104.5 174.5t43 131q0 56 -42 95.5
t-122 39.5q-171 0 -322 -82.5t-270 -216.5q100 220 304 355t454 135q135 0 261 -42t228 -118.5t178.5 -178.5t118 -229t41.5 -262q0 -221 -110 -414q-27 -10 -43 -10q-62 0 -98.5 41.5t-57.5 114.5q127 139 215 295q6 12 6 18t-4 6q-8 0 -16 -16q-80 -147 -211 -266
q-6 26 -15.5 71t-15.5 72.5t-17.5 62t-24 54t-33.5 33.5t-48 14t-50 -11t-37.5 -29.5t-23 -33.5t-14.5 -31q0 -8 7 -8q40 0 72.5 -14t54 -33.5t41.5 -54t31 -61.5t26 -70q-183 -142 -336 -142q-135 0 -135 199q0 162 86 402q64 4 319.5 30.5t345.5 26.5q23 0 23 10
q0 8 -20 8q-101 0 -286.5 1t-350.5 1q39 96 76.5 157.5t58.5 61.5q14 0 14 -38q0 -13 12 -13t19.5 8t7.5 19q0 17 -16.5 32t-44.5 15q-36 0 -92 -67.5t-113 -174.5h-66q-41 0 -41 -22q0 -16 18 -31.5t50 -21.5q-123 -264 -123 -461q0 -250 221 -250q180 0 387 207
q16 -46 28.5 -75t33 -60.5t48 -46.5t62.5 -15z" />
    <glyph glyph-name="percent" unicode="%" 
d="M1675 391q44 0 87 40t64 80l21 40q-3 -9 -8.5 -24t-26 -54t-45.5 -70t-67 -58.5t-90 -33.5q-114 -112 -265 -174.5t-317 -62.5q-169 0 -322.5 65.5t-264.5 176t-176.5 264t-65.5 321.5q0 70 14 156q-64 -47 -127 -109q12 21 27.5 46t56 80.5t84 104.5t109 106.5t133 98
t154.5 68t175 27.5q113 0 113 -66q0 -44 -51 -126t-123.5 -176.5t-145 -195t-123.5 -207.5t-51 -188q0 -59 35.5 -98t91.5 -39q49 0 89 37.5t40 79.5q0 10 -10 10q-6 -2 -22 -2q-60 0 -60 74q0 59 43 149.5t104.5 183.5t123 184.5t104.5 174.5t43 131q0 56 -42 95.5
t-122 39.5q-171 0 -322 -82.5t-270 -216.5q100 220 304 355t454 135q135 0 261 -42t228 -118.5t178.5 -178.5t118 -229t41.5 -262q0 -221 -110 -414q-27 -10 -43 -10q-62 0 -98.5 41.5t-57.5 114.5q127 139 215 295q6 12 6 18t-4 6q-8 0 -16 -16q-80 -147 -211 -266
q-6 26 -15.5 71t-15.5 72.5t-17.5 62t-24 54t-33.5 33.5t-48 14t-50 -11t-37.5 -29.5t-23 -33.5t-14.5 -31q0 -8 7 -8q40 0 72.5 -14t54 -33.5t41.5 -54t31 -61.5t26 -70q-183 -142 -336 -142q-135 0 -135 199q0 162 86 402q64 4 319.5 30.5t345.5 26.5q23 0 23 10
q0 8 -20 8q-101 0 -286.5 1t-350.5 1q39 96 76.5 157.5t58.5 61.5q14 0 14 -38q0 -13 12 -13t19.5 8t7.5 19q0 17 -16.5 32t-44.5 15q-36 0 -92 -67.5t-113 -174.5h-66q-41 0 -41 -22q0 -16 18 -31.5t50 -21.5q-123 -264 -123 -461q0 -250 221 -250q180 0 387 207
q16 -46 28.5 -75t33 -60.5t48 -46.5t62.5 -15z" />
    <glyph glyph-name="ampersand" unicode="&#x26;" 
d="M1675 391q44 0 87 40t64 80l21 40q-3 -9 -8.5 -24t-26 -54t-45.5 -70t-67 -58.5t-90 -33.5q-114 -112 -265 -174.5t-317 -62.5q-169 0 -322.5 65.5t-264.5 176t-176.5 264t-65.5 321.5q0 70 14 156q-64 -47 -127 -109q12 21 27.5 46t56 80.5t84 104.5t109 106.5t133 98
t154.5 68t175 27.5q113 0 113 -66q0 -44 -51 -126t-123.5 -176.5t-145 -195t-123.5 -207.5t-51 -188q0 -59 35.5 -98t91.5 -39q49 0 89 37.5t40 79.5q0 10 -10 10q-6 -2 -22 -2q-60 0 -60 74q0 59 43 149.5t104.5 183.5t123 184.5t104.5 174.5t43 131q0 56 -42 95.5
t-122 39.5q-171 0 -322 -82.5t-270 -216.5q100 220 304 355t454 135q135 0 261 -42t228 -118.5t178.5 -178.5t118 -229t41.5 -262q0 -221 -110 -414q-27 -10 -43 -10q-62 0 -98.5 41.5t-57.5 114.5q127 139 215 295q6 12 6 18t-4 6q-8 0 -16 -16q-80 -147 -211 -266
q-6 26 -15.5 71t-15.5 72.5t-17.5 62t-24 54t-33.5 33.5t-48 14t-50 -11t-37.5 -29.5t-23 -33.5t-14.5 -31q0 -8 7 -8q40 0 72.5 -14t54 -33.5t41.5 -54t31 -61.5t26 -70q-183 -142 -336 -142q-135 0 -135 199q0 162 86 402q64 4 319.5 30.5t345.5 26.5q23 0 23 10
q0 8 -20 8q-101 0 -286.5 1t-350.5 1q39 96 76.5 157.5t58.5 61.5q14 0 14 -38q0 -13 12 -13t19.5 8t7.5 19q0 17 -16.5 32t-44.5 15q-36 0 -92 -67.5t-113 -174.5h-66q-41 0 -41 -22q0 -16 18 -31.5t50 -21.5q-123 -264 -123 -461q0 -250 221 -250q180 0 387 207
q16 -46 28.5 -75t33 -60.5t48 -46.5t62.5 -15z" />
    <glyph glyph-name="quotesingle" unicode="'" 
d="M1675 391q44 0 87 40t64 80l21 40q-3 -9 -8.5 -24t-26 -54t-45.5 -70t-67 -58.5t-90 -33.5q-114 -112 -265 -174.5t-317 -62.5q-169 0 -322.5 65.5t-264.5 176t-176.5 264t-65.5 321.5q0 70 14 156q-64 -47 -127 -109q12 21 27.5 46t56 80.5t84 104.5t109 106.5t133 98
t154.5 68t175 27.5q113 0 113 -66q0 -44 -51 -126t-123.5 -176.5t-145 -195t-123.5 -207.5t-51 -188q0 -59 35.5 -98t91.5 -39q49 0 89 37.5t40 79.5q0 10 -10 10q-6 -2 -22 -2q-60 0 -60 74q0 59 43 149.5t104.5 183.5t123 184.5t104.5 174.5t43 131q0 56 -42 95.5
t-122 39.5q-171 0 -322 -82.5t-270 -216.5q100 220 304 355t454 135q135 0 261 -42t228 -118.5t178.5 -178.5t118 -229t41.5 -262q0 -221 -110 -414q-27 -10 -43 -10q-62 0 -98.5 41.5t-57.5 114.5q127 139 215 295q6 12 6 18t-4 6q-8 0 -16 -16q-80 -147 -211 -266
q-6 26 -15.5 71t-15.5 72.5t-17.5 62t-24 54t-33.5 33.5t-48 14t-50 -11t-37.5 -29.5t-23 -33.5t-14.5 -31q0 -8 7 -8q40 0 72.5 -14t54 -33.5t41.5 -54t31 -61.5t26 -70q-183 -142 -336 -142q-135 0 -135 199q0 162 86 402q64 4 319.5 30.5t345.5 26.5q23 0 23 10
q0 8 -20 8q-101 0 -286.5 1t-350.5 1q39 96 76.5 157.5t58.5 61.5q14 0 14 -38q0 -13 12 -13t19.5 8t7.5 19q0 17 -16.5 32t-44.5 15q-36 0 -92 -67.5t-113 -174.5h-66q-41 0 -41 -22q0 -16 18 -31.5t50 -21.5q-123 -264 -123 -461q0 -250 221 -250q180 0 387 207
q16 -46 28.5 -75t33 -60.5t48 -46.5t62.5 -15z" />
    <glyph glyph-name="parenleft" unicode="(" 
d="M1675 391q44 0 87 40t64 80l21 40q-3 -9 -8.5 -24t-26 -54t-45.5 -70t-67 -58.5t-90 -33.5q-114 -112 -265 -174.5t-317 -62.5q-169 0 -322.5 65.5t-264.5 176t-176.5 264t-65.5 321.5q0 70 14 156q-64 -47 -127 -109q12 21 27.5 46t56 80.5t84 104.5t109 106.5t133 98
t154.5 68t175 27.5q113 0 113 -66q0 -44 -51 -126t-123.5 -176.5t-145 -195t-123.5 -207.5t-51 -188q0 -59 35.5 -98t91.5 -39q49 0 89 37.5t40 79.5q0 10 -10 10q-6 -2 -22 -2q-60 0 -60 74q0 59 43 149.5t104.5 183.5t123 184.5t104.5 174.5t43 131q0 56 -42 95.5
t-122 39.5q-171 0 -322 -82.5t-270 -216.5q100 220 304 355t454 135q135 0 261 -42t228 -118.5t178.5 -178.5t118 -229t41.5 -262q0 -221 -110 -414q-27 -10 -43 -10q-62 0 -98.5 41.5t-57.5 114.5q127 139 215 295q6 12 6 18t-4 6q-8 0 -16 -16q-80 -147 -211 -266
q-6 26 -15.5 71t-15.5 72.5t-17.5 62t-24 54t-33.5 33.5t-48 14t-50 -11t-37.5 -29.5t-23 -33.5t-14.5 -31q0 -8 7 -8q40 0 72.5 -14t54 -33.5t41.5 -54t31 -61.5t26 -70q-183 -142 -336 -142q-135 0 -135 199q0 162 86 402q64 4 319.5 30.5t345.5 26.5q23 0 23 10
q0 8 -20 8q-101 0 -286.5 1t-350.5 1q39 96 76.5 157.5t58.5 61.5q14 0 14 -38q0 -13 12 -13t19.5 8t7.5 19q0 17 -16.5 32t-44.5 15q-36 0 -92 -67.5t-113 -174.5h-66q-41 0 -41 -22q0 -16 18 -31.5t50 -21.5q-123 -264 -123 -461q0 -250 221 -250q180 0 387 207
q16 -46 28.5 -75t33 -60.5t48 -46.5t62.5 -15z" />
    <glyph glyph-name="parenright" unicode=")" 
d="M1675 391q44 0 87 40t64 80l21 40q-3 -9 -8.5 -24t-26 -54t-45.5 -70t-67 -58.5t-90 -33.5q-114 -112 -265 -174.5t-317 -62.5q-169 0 -322.5 65.5t-264.5 176t-176.5 264t-65.5 321.5q0 70 14 156q-64 -47 -127 -109q12 21 27.5 46t56 80.5t84 104.5t109 106.5t133 98
t154.5 68t175 27.5q113 0 113 -66q0 -44 -51 -126t-123.5 -176.5t-145 -195t-123.5 -207.5t-51 -188q0 -59 35.5 -98t91.5 -39q49 0 89 37.5t40 79.5q0 10 -10 10q-6 -2 -22 -2q-60 0 -60 74q0 59 43 149.5t104.5 183.5t123 184.5t104.5 174.5t43 131q0 56 -42 95.5
t-122 39.5q-171 0 -322 -82.5t-270 -216.5q100 220 304 355t454 135q135 0 261 -42t228 -118.5t178.5 -178.5t118 -229t41.5 -262q0 -221 -110 -414q-27 -10 -43 -10q-62 0 -98.5 41.5t-57.5 114.5q127 139 215 295q6 12 6 18t-4 6q-8 0 -16 -16q-80 -147 -211 -266
q-6 26 -15.5 71t-15.5 72.5t-17.5 62t-24 54t-33.5 33.5t-48 14t-50 -11t-37.5 -29.5t-23 -33.5t-14.5 -31q0 -8 7 -8q40 0 72.5 -14t54 -33.5t41.5 -54t31 -61.5t26 -70q-183 -142 -336 -142q-135 0 -135 199q0 162 86 402q64 4 319.5 30.5t345.5 26.5q23 0 23 10
q0 8 -20 8q-101 0 -286.5 1t-350.5 1q39 96 76.5 157.5t58.5 61.5q14 0 14 -38q0 -13 12 -13t19.5 8t7.5 19q0 17 -16.5 32t-44.5 15q-36 0 -92 -67.5t-113 -174.5h-66q-41 0 -41 -22q0 -16 18 -31.5t50 -21.5q-123 -264 -123 -461q0 -250 221 -250q180 0 387 207
q16 -46 28.5 -75t33 -60.5t48 -46.5t62.5 -15z" />
    <glyph glyph-name="asterisk" unicode="*" 
d="M1675 391q44 0 87 40t64 80l21 40q-3 -9 -8.5 -24t-26 -54t-45.5 -70t-67 -58.5t-90 -33.5q-114 -112 -265 -174.5t-317 -62.5q-169 0 -322.5 65.5t-264.5 176t-176.5 264t-65.5 321.5q0 70 14 156q-64 -47 -127 -109q12 21 27.5 46t56 80.5t84 104.5t109 106.5t133 98
t154.5 68t175 27.5q113 0 113 -66q0 -44 -51 -126t-123.5 -176.5t-145 -195t-123.5 -207.5t-51 -188q0 -59 35.5 -98t91.5 -39q49 0 89 37.5t40 79.5q0 10 -10 10q-6 -2 -22 -2q-60 0 -60 74q0 59 43 149.5t104.5 183.5t123 184.5t104.5 174.5t43 131q0 56 -42 95.5
t-122 39.5q-171 0 -322 -82.5t-270 -216.5q100 220 304 355t454 135q135 0 261 -42t228 -118.5t178.5 -178.5t118 -229t41.5 -262q0 -221 -110 -414q-27 -10 -43 -10q-62 0 -98.5 41.5t-57.5 114.5q127 139 215 295q6 12 6 18t-4 6q-8 0 -16 -16q-80 -147 -211 -266
q-6 26 -15.5 71t-15.5 72.5t-17.5 62t-24 54t-33.5 33.5t-48 14t-50 -11t-37.5 -29.5t-23 -33.5t-14.5 -31q0 -8 7 -8q40 0 72.5 -14t54 -33.5t41.5 -54t31 -61.5t26 -70q-183 -142 -336 -142q-135 0 -135 199q0 162 86 402q64 4 319.5 30.5t345.5 26.5q23 0 23 10
q0 8 -20 8q-101 0 -286.5 1t-350.5 1q39 96 76.5 157.5t58.5 61.5q14 0 14 -38q0 -13 12 -13t19.5 8t7.5 19q0 17 -16.5 32t-44.5 15q-36 0 -92 -67.5t-113 -174.5h-66q-41 0 -41 -22q0 -16 18 -31.5t50 -21.5q-123 -264 -123 -461q0 -250 221 -250q180 0 387 207
q16 -46 28.5 -75t33 -60.5t48 -46.5t62.5 -15z" />
    <glyph glyph-name="plus" unicode="+" 
d="M1675 391q44 0 87 40t64 80l21 40q-3 -9 -8.5 -24t-26 -54t-45.5 -70t-67 -58.5t-90 -33.5q-114 -112 -265 -174.5t-317 -62.5q-169 0 -322.5 65.5t-264.5 176t-176.5 264t-65.5 321.5q0 70 14 156q-64 -47 -127 -109q12 21 27.5 46t56 80.5t84 104.5t109 106.5t133 98
t154.5 68t175 27.5q113 0 113 -66q0 -44 -51 -126t-123.5 -176.5t-145 -195t-123.5 -207.5t-51 -188q0 -59 35.5 -98t91.5 -39q49 0 89 37.5t40 79.5q0 10 -10 10q-6 -2 -22 -2q-60 0 -60 74q0 59 43 149.5t104.5 183.5t123 184.5t104.5 174.5t43 131q0 56 -42 95.5
t-122 39.5q-171 0 -322 -82.5t-270 -216.5q100 220 304 355t454 135q135 0 261 -42t228 -118.5t178.5 -178.5t118 -229t41.5 -262q0 -221 -110 -414q-27 -10 -43 -10q-62 0 -98.5 41.5t-57.5 114.5q127 139 215 295q6 12 6 18t-4 6q-8 0 -16 -16q-80 -147 -211 -266
q-6 26 -15.5 71t-15.5 72.5t-17.5 62t-24 54t-33.5 33.5t-48 14t-50 -11t-37.5 -29.5t-23 -33.5t-14.5 -31q0 -8 7 -8q40 0 72.5 -14t54 -33.5t41.5 -54t31 -61.5t26 -70q-183 -142 -336 -142q-135 0 -135 199q0 162 86 402q64 4 319.5 30.5t345.5 26.5q23 0 23 10
q0 8 -20 8q-101 0 -286.5 1t-350.5 1q39 96 76.5 157.5t58.5 61.5q14 0 14 -38q0 -13 12 -13t19.5 8t7.5 19q0 17 -16.5 32t-44.5 15q-36 0 -92 -67.5t-113 -174.5h-66q-41 0 -41 -22q0 -16 18 -31.5t50 -21.5q-123 -264 -123 -461q0 -250 221 -250q180 0 387 207
q16 -46 28.5 -75t33 -60.5t48 -46.5t62.5 -15z" />
    <glyph glyph-name="comma" unicode="," 
d="M1675 391q44 0 87 40t64 80l21 40q-3 -9 -8.5 -24t-26 -54t-45.5 -70t-67 -58.5t-90 -33.5q-114 -112 -265 -174.5t-317 -62.5q-169 0 -322.5 65.5t-264.5 176t-176.5 264t-65.5 321.5q0 70 14 156q-64 -47 -127 -109q12 21 27.5 46t56 80.5t84 104.5t109 106.5t133 98
t154.5 68t175 27.5q113 0 113 -66q0 -44 -51 -126t-123.5 -176.5t-145 -195t-123.5 -207.5t-51 -188q0 -59 35.5 -98t91.5 -39q49 0 89 37.5t40 79.5q0 10 -10 10q-6 -2 -22 -2q-60 0 -60 74q0 59 43 149.5t104.5 183.5t123 184.5t104.5 174.5t43 131q0 56 -42 95.5
t-122 39.5q-171 0 -322 -82.5t-270 -216.5q100 220 304 355t454 135q135 0 261 -42t228 -118.5t178.5 -178.5t118 -229t41.5 -262q0 -221 -110 -414q-27 -10 -43 -10q-62 0 -98.5 41.5t-57.5 114.5q127 139 215 295q6 12 6 18t-4 6q-8 0 -16 -16q-80 -147 -211 -266
q-6 26 -15.5 71t-15.5 72.5t-17.5 62t-24 54t-33.5 33.5t-48 14t-50 -11t-37.5 -29.5t-23 -33.5t-14.5 -31q0 -8 7 -8q40 0 72.5 -14t54 -33.5t41.5 -54t31 -61.5t26 -70q-183 -142 -336 -142q-135 0 -135 199q0 162 86 402q64 4 319.5 30.5t345.5 26.5q23 0 23 10
q0 8 -20 8q-101 0 -286.5 1t-350.5 1q39 96 76.5 157.5t58.5 61.5q14 0 14 -38q0 -13 12 -13t19.5 8t7.5 19q0 17 -16.5 32t-44.5 15q-36 0 -92 -67.5t-113 -174.5h-66q-41 0 -41 -22q0 -16 18 -31.5t50 -21.5q-123 -264 -123 -461q0 -250 221 -250q180 0 387 207
q16 -46 28.5 -75t33 -60.5t48 -46.5t62.5 -15z" />
    <glyph glyph-name="hyphen" unicode="-" 
d="M1675 391q44 0 87 40t64 80l21 40q-3 -9 -8.5 -24t-26 -54t-45.5 -70t-67 -58.5t-90 -33.5q-114 -112 -265 -174.5t-317 -62.5q-169 0 -322.5 65.5t-264.5 176t-176.5 264t-65.5 321.5q0 70 14 156q-64 -47 -127 -109q12 21 27.5 46t56 80.5t84 104.5t109 106.5t133 98
t154.5 68t175 27.5q113 0 113 -66q0 -44 -51 -126t-123.5 -176.5t-145 -195t-123.5 -207.5t-51 -188q0 -59 35.5 -98t91.5 -39q49 0 89 37.5t40 79.5q0 10 -10 10q-6 -2 -22 -2q-60 0 -60 74q0 59 43 149.5t104.5 183.5t123 184.5t104.5 174.5t43 131q0 56 -42 95.5
t-122 39.5q-171 0 -322 -82.5t-270 -216.5q100 220 304 355t454 135q135 0 261 -42t228 -118.5t178.5 -178.5t118 -229t41.5 -262q0 -221 -110 -414q-27 -10 -43 -10q-62 0 -98.5 41.5t-57.5 114.5q127 139 215 295q6 12 6 18t-4 6q-8 0 -16 -16q-80 -147 -211 -266
q-6 26 -15.5 71t-15.5 72.5t-17.5 62t-24 54t-33.5 33.5t-48 14t-50 -11t-37.5 -29.5t-23 -33.5t-14.5 -31q0 -8 7 -8q40 0 72.5 -14t54 -33.5t41.5 -54t31 -61.5t26 -70q-183 -142 -336 -142q-135 0 -135 199q0 162 86 402q64 4 319.5 30.5t345.5 26.5q23 0 23 10
q0 8 -20 8q-101 0 -286.5 1t-350.5 1q39 96 76.5 157.5t58.5 61.5q14 0 14 -38q0 -13 12 -13t19.5 8t7.5 19q0 17 -16.5 32t-44.5 15q-36 0 -92 -67.5t-113 -174.5h-66q-41 0 -41 -22q0 -16 18 -31.5t50 -21.5q-123 -264 -123 -461q0 -250 221 -250q180 0 387 207
q16 -46 28.5 -75t33 -60.5t48 -46.5t62.5 -15z" />
    <glyph glyph-name="period" unicode="." 
d="M1675 391q44 0 87 40t64 80l21 40q-3 -9 -8.5 -24t-26 -54t-45.5 -70t-67 -58.5t-90 -33.5q-114 -112 -265 -174.5t-317 -62.5q-169 0 -322.5 65.5t-264.5 176t-176.5 264t-65.5 321.5q0 70 14 156q-64 -47 -127 -109q12 21 27.5 46t56 80.5t84 104.5t109 106.5t133 98
t154.5 68t175 27.5q113 0 113 -66q0 -44 -51 -126t-123.5 -176.5t-145 -195t-123.5 -207.5t-51 -188q0 -59 35.5 -98t91.5 -39q49 0 89 37.5t40 79.5q0 10 -10 10q-6 -2 -22 -2q-60 0 -60 74q0 59 43 149.5t104.5 183.5t123 184.5t104.5 174.5t43 131q0 56 -42 95.5
t-122 39.5q-171 0 -322 -82.5t-270 -216.5q100 220 304 355t454 135q135 0 261 -42t228 -118.5t178.5 -178.5t118 -229t41.5 -262q0 -221 -110 -414q-27 -10 -43 -10q-62 0 -98.5 41.5t-57.5 114.5q127 139 215 295q6 12 6 18t-4 6q-8 0 -16 -16q-80 -147 -211 -266
q-6 26 -15.5 71t-15.5 72.5t-17.5 62t-24 54t-33.5 33.5t-48 14t-50 -11t-37.5 -29.5t-23 -33.5t-14.5 -31q0 -8 7 -8q40 0 72.5 -14t54 -33.5t41.5 -54t31 -61.5t26 -70q-183 -142 -336 -142q-135 0 -135 199q0 162 86 402q64 4 319.5 30.5t345.5 26.5q23 0 23 10
q0 8 -20 8q-101 0 -286.5 1t-350.5 1q39 96 76.5 157.5t58.5 61.5q14 0 14 -38q0 -13 12 -13t19.5 8t7.5 19q0 17 -16.5 32t-44.5 15q-36 0 -92 -67.5t-113 -174.5h-66q-41 0 -41 -22q0 -16 18 -31.5t50 -21.5q-123 -264 -123 -461q0 -250 221 -250q180 0 387 207
q16 -46 28.5 -75t33 -60.5t48 -46.5t62.5 -15z" />
    <glyph glyph-name="slash" unicode="/" 
d="M1675 391q44 0 87 40t64 80l21 40q-3 -9 -8.5 -24t-26 -54t-45.5 -70t-67 -58.5t-90 -33.5q-114 -112 -265 -174.5t-317 -62.5q-169 0 -322.5 65.5t-264.5 176t-176.5 264t-65.5 321.5q0 70 14 156q-64 -47 -127 -109q12 21 27.5 46t56 80.5t84 104.5t109 106.5t133 98
t154.5 68t175 27.5q113 0 113 -66q0 -44 -51 -126t-123.5 -176.5t-145 -195t-123.5 -207.5t-51 -188q0 -59 35.5 -98t91.5 -39q49 0 89 37.5t40 79.5q0 10 -10 10q-6 -2 -22 -2q-60 0 -60 74q0 59 43 149.5t104.5 183.5t123 184.5t104.5 174.5t43 131q0 56 -42 95.5
t-122 39.5q-171 0 -322 -82.5t-270 -216.5q100 220 304 355t454 135q135 0 261 -42t228 -118.5t178.5 -178.5t118 -229t41.5 -262q0 -221 -110 -414q-27 -10 -43 -10q-62 0 -98.5 41.5t-57.5 114.5q127 139 215 295q6 12 6 18t-4 6q-8 0 -16 -16q-80 -147 -211 -266
q-6 26 -15.5 71t-15.5 72.5t-17.5 62t-24 54t-33.5 33.5t-48 14t-50 -11t-37.5 -29.5t-23 -33.5t-14.5 -31q0 -8 7 -8q40 0 72.5 -14t54 -33.5t41.5 -54t31 -61.5t26 -70q-183 -142 -336 -142q-135 0 -135 199q0 162 86 402q64 4 319.5 30.5t345.5 26.5q23 0 23 10
q0 8 -20 8q-101 0 -286.5 1t-350.5 1q39 96 76.5 157.5t58.5 61.5q14 0 14 -38q0 -13 12 -13t19.5 8t7.5 19q0 17 -16.5 32t-44.5 15q-36 0 -92 -67.5t-113 -174.5h-66q-41 0 -41 -22q0 -16 18 -31.5t50 -21.5q-123 -264 -123 -461q0 -250 221 -250q180 0 387 207
q16 -46 28.5 -75t33 -60.5t48 -46.5t62.5 -15z" />
    <glyph glyph-name="zero" unicode="0" horiz-adv-x="1024" 
d="M659 1468q60 0 123 -33t119 -92.5t91.5 -157.5t35.5 -214q0 -164 -40.5 -318.5t-108 -273t-151.5 -208.5t-175.5 -137.5t-175.5 -47.5t-147.5 71.5t-93.5 177t-30 222.5q0 170 34.5 330t91.5 281t128.5 212.5t149 139.5t149.5 48zM305 90q83 0 168.5 52.5t159.5 146.5
t132.5 214t92 266.5t33.5 293.5q0 137 -28 196.5t-101 59.5q-85 0 -180.5 -85t-173 -217.5t-128.5 -308t-51 -341.5q0 -63 5.5 -120.5t24 -107t46.5 -49.5z" />
    <glyph glyph-name="one" unicode="1" horiz-adv-x="1024" 
d="M729 1491q40 0 85.5 -48t45.5 -85q0 -23 -117 -364.5t-243 -677.5t-146 -336q-25 0 -42 33.5t-17 82.5q0 85 108.5 448.5t219.5 682.5q-56 -26 -114.5 -51t-95 -39.5t-40.5 -14.5q-25 0 -25 13q0 15 175.5 185.5t205.5 170.5z" />
    <glyph glyph-name="two" unicode="2" horiz-adv-x="1024" 
d="M600 549q-106 -83 -246.5 -220t-199.5 -216q110 16 267 26.5t226 10.5q38 0 86.5 -52.5t48.5 -72.5q0 -17 -90 -26t-194 -9q-71 0 -169 2.5t-167 5t-70 2.5q-21 0 -44 47.5t-23 95.5q0 66 117 207.5t323 311.5q245 202 341.5 326.5t96.5 230.5q0 73 -34.5 105t-104.5 32
q-63 0 -119 -16.5t-87.5 -36t-60.5 -36t-44 -16.5q-37 0 -70 22.5t-33 47.5q0 22 25.5 51.5t66.5 56t102.5 44.5t125.5 18q79 0 147.5 -34.5t113 -90t70 -125t25.5 -141.5q0 -60 -22.5 -119.5t-56 -108.5t-94.5 -108.5t-114 -104t-139 -110.5z" />
    <glyph glyph-name="three" unicode="3" horiz-adv-x="1024" 
d="M1010 1159q0 -82 -29 -156.5t-74.5 -125t-97.5 -83.5t-100 -42q74 -69 121 -165.5t47 -201.5q0 -104 -44.5 -193t-131 -145.5t-197.5 -56.5q-89 0 -178 43t-151 105t-101 128.5t-39 114.5q0 22 12 22q10 0 29.5 -28t47.5 -68t64.5 -80t92.5 -68t120 -28q73 0 129 19.5
t91.5 52.5t58.5 80t32 97t9 109q0 90 -30.5 147t-74.5 83q-44 -12 -55 -12q-26 0 -63 38.5t-37 75.5q0 11 17 20t38 9q51 0 115 -39q106 46 183 171t77 286q0 34 -38.5 66t-98.5 32q-50 0 -109.5 -27.5t-102.5 -60.5t-82 -60.5t-52 -27.5q-14 0 -35 19.5t-21 35.5
q0 35 46.5 87.5t124 95t151.5 42.5q76 0 155 -48.5t130 -121.5t51 -141z" />
    <glyph glyph-name="four" unicode="4" horiz-adv-x="1024" 
d="M1016 514q0 -20 -285 -20q-152 -496 -176 -496q-32 0 -62 50t-30 91q0 27 90 359h-399q-63 0 -100.5 46t-37.5 91q0 29 197 236t404 402t231 195q26 0 69.5 -44.5t43.5 -90.5q0 -56 -189 -702h102q37 0 89.5 -44t52.5 -73zM211 635q199 -2 381 -2l164 586z" />
    <glyph glyph-name="five" unicode="5" horiz-adv-x="1024" 
d="M1038 1368q0 -21 -53 -35t-135.5 -20t-144.5 -8t-117 -2l-129 -316q81 0 163 -31.5t151 -87.5t112 -145.5t43 -194.5q0 -146 -52 -269t-152 -198t-228 -75q-75 0 -147.5 24t-123.5 58.5t-91 72t-59.5 65.5t-19.5 38q0 26 17 26q26 0 63 -23t72 -50.5t90 -50.5t113 -23
q181 0 295 130.5t114 336.5q0 76 -28 128t-70.5 76.5t-97 41t-104.5 23t-97 21.5t-70 38q-24 27 -24 65q0 57 59 234t80 198t164 21h74q108 0 184.5 -9.5t112.5 -24.5t36 -34z" />
    <glyph glyph-name="six" unicode="6" horiz-adv-x="1024" 
d="M801 1464q51 0 101.5 -18.5t84.5 -43t55 -47.5t21 -34q0 -14 -23 -14q-5 0 -28 20.5t-56.5 41t-64.5 20.5q-52 0 -123.5 -43t-148 -120t-149 -174.5t-133.5 -217.5t-95 -238q75 157 201 261t223 104q35 0 79.5 -21t89 -59.5t75 -106.5t30.5 -149q0 -86 -39 -196.5
t-101 -207.5t-148.5 -164t-170.5 -67q-118 0 -208 63.5t-135.5 166t-45.5 224.5q0 83 28.5 191.5t77 221.5t117.5 222.5t145.5 194.5t166 137.5t174.5 52.5zM760 821q-87 0 -185.5 -49.5t-178.5 -126t-134 -174.5t-57 -188q5 -48 17.5 -82t27 -51t36.5 -26.5t36 -11t36 -1.5
q65 0 132 39.5t122 105t99.5 145t69 164t24.5 156.5q0 100 -45 100z" />
    <glyph glyph-name="seven" unicode="7" horiz-adv-x="1024" 
d="M932 1464q32 -3 74.5 -42.5t42.5 -69.5q0 -9 -53.5 -87t-159.5 -238t-199 -316q-121 -202 -216 -386.5t-129.5 -260.5t-39.5 -76q-39 0 -39 53q0 110 63 286t160.5 360.5t193 343.5t181.5 284q-183 13 -363 38.5t-180 53.5q0 17 166 31.5t332 19.5z" />
    <glyph glyph-name="eight" unicode="8" horiz-adv-x="1024" 
d="M979 1186q0 -46 -23.5 -92t-74.5 -96t-95 -86t-122 -93q40 -60 66 -103.5t55 -103.5t43 -121.5t14 -125.5q0 -169 -109 -283.5t-270 -114.5q-79 0 -152.5 37.5t-125 97.5t-82.5 136.5t-31 152.5q0 51 25.5 108t62.5 105t98 107t112 101t124 99q-97 161 -97 299
q0 110 97.5 179t226.5 69q90 0 174 -89.5t84 -182.5zM737 446q0 54 -23 113.5t-48.5 101t-73.5 107.5q-69 -51 -116 -88.5t-103 -91t-89 -101t-56 -107.5t-23 -120q0 -76 49.5 -121t132.5 -45q73 0 133.5 24.5t99.5 62.5t66.5 85.5t39 93t11.5 86.5zM567 967q54 42 77 60
t65.5 53t62 54.5t43 45.5t32.5 46t9 38q0 50 -41 86t-113 36q-80 0 -145 -60t-65 -146q0 -90 75 -213z" />
    <glyph glyph-name="nine" unicode="9" horiz-adv-x="1024" 
d="M315 -10q-51 0 -101.5 18.5t-84.5 43t-55 47.5t-21 34q0 14 23 14q5 0 28 -20.5t56 -40.5t63 -20q66 0 160.5 67.5t187.5 175t177 255.5t126 294q-75 -158 -200.5 -261t-222.5 -103q-28 0 -62.5 12t-72.5 39.5t-69 65t-51 94.5t-20 122q0 86 39 196.5t101 208.5
t148.5 165t170.5 67q117 0 207 -63.5t136 -166.5t46 -226q0 -82 -28.5 -190.5t-77 -221t-117.5 -222t-145.5 -194.5t-166 -137.5t-174.5 -52.5zM356 633q86 0 184.5 49.5t178.5 125.5t134.5 174t57.5 189q-5 48 -17.5 81.5t-27 50.5t-36.5 26t-36 10.5t-36 1.5
q-80 0 -163.5 -61t-144.5 -151.5t-100 -198t-39 -197.5q0 -100 45 -100z" />
    <glyph glyph-name="colon" unicode=":" 
d="M1675 391q44 0 87 40t64 80l21 40q-3 -9 -8.5 -24t-26 -54t-45.5 -70t-67 -58.5t-90 -33.5q-114 -112 -265 -174.5t-317 -62.5q-169 0 -322.5 65.5t-264.5 176t-176.5 264t-65.5 321.5q0 70 14 156q-64 -47 -127 -109q12 21 27.5 46t56 80.5t84 104.5t109 106.5t133 98
t154.5 68t175 27.5q113 0 113 -66q0 -44 -51 -126t-123.5 -176.5t-145 -195t-123.5 -207.5t-51 -188q0 -59 35.5 -98t91.5 -39q49 0 89 37.5t40 79.5q0 10 -10 10q-6 -2 -22 -2q-60 0 -60 74q0 59 43 149.5t104.5 183.5t123 184.5t104.5 174.5t43 131q0 56 -42 95.5
t-122 39.5q-171 0 -322 -82.5t-270 -216.5q100 220 304 355t454 135q135 0 261 -42t228 -118.5t178.5 -178.5t118 -229t41.5 -262q0 -221 -110 -414q-27 -10 -43 -10q-62 0 -98.5 41.5t-57.5 114.5q127 139 215 295q6 12 6 18t-4 6q-8 0 -16 -16q-80 -147 -211 -266
q-6 26 -15.5 71t-15.5 72.5t-17.5 62t-24 54t-33.5 33.5t-48 14t-50 -11t-37.5 -29.5t-23 -33.5t-14.5 -31q0 -8 7 -8q40 0 72.5 -14t54 -33.5t41.5 -54t31 -61.5t26 -70q-183 -142 -336 -142q-135 0 -135 199q0 162 86 402q64 4 319.5 30.5t345.5 26.5q23 0 23 10
q0 8 -20 8q-101 0 -286.5 1t-350.5 1q39 96 76.5 157.5t58.5 61.5q14 0 14 -38q0 -13 12 -13t19.5 8t7.5 19q0 17 -16.5 32t-44.5 15q-36 0 -92 -67.5t-113 -174.5h-66q-41 0 -41 -22q0 -16 18 -31.5t50 -21.5q-123 -264 -123 -461q0 -250 221 -250q180 0 387 207
q16 -46 28.5 -75t33 -60.5t48 -46.5t62.5 -15z" />
    <glyph glyph-name="semicolon" unicode=";" 
d="M1675 391q44 0 87 40t64 80l21 40q-3 -9 -8.5 -24t-26 -54t-45.5 -70t-67 -58.5t-90 -33.5q-114 -112 -265 -174.5t-317 -62.5q-169 0 -322.5 65.5t-264.5 176t-176.5 264t-65.5 321.5q0 70 14 156q-64 -47 -127 -109q12 21 27.5 46t56 80.5t84 104.5t109 106.5t133 98
t154.5 68t175 27.5q113 0 113 -66q0 -44 -51 -126t-123.5 -176.5t-145 -195t-123.5 -207.5t-51 -188q0 -59 35.5 -98t91.5 -39q49 0 89 37.5t40 79.5q0 10 -10 10q-6 -2 -22 -2q-60 0 -60 74q0 59 43 149.5t104.5 183.5t123 184.5t104.5 174.5t43 131q0 56 -42 95.5
t-122 39.5q-171 0 -322 -82.5t-270 -216.5q100 220 304 355t454 135q135 0 261 -42t228 -118.5t178.5 -178.5t118 -229t41.5 -262q0 -221 -110 -414q-27 -10 -43 -10q-62 0 -98.5 41.5t-57.5 114.5q127 139 215 295q6 12 6 18t-4 6q-8 0 -16 -16q-80 -147 -211 -266
q-6 26 -15.5 71t-15.5 72.5t-17.5 62t-24 54t-33.5 33.5t-48 14t-50 -11t-37.5 -29.5t-23 -33.5t-14.5 -31q0 -8 7 -8q40 0 72.5 -14t54 -33.5t41.5 -54t31 -61.5t26 -70q-183 -142 -336 -142q-135 0 -135 199q0 162 86 402q64 4 319.5 30.5t345.5 26.5q23 0 23 10
q0 8 -20 8q-101 0 -286.5 1t-350.5 1q39 96 76.5 157.5t58.5 61.5q14 0 14 -38q0 -13 12 -13t19.5 8t7.5 19q0 17 -16.5 32t-44.5 15q-36 0 -92 -67.5t-113 -174.5h-66q-41 0 -41 -22q0 -16 18 -31.5t50 -21.5q-123 -264 -123 -461q0 -250 221 -250q180 0 387 207
q16 -46 28.5 -75t33 -60.5t48 -46.5t62.5 -15z" />
    <glyph glyph-name="less" unicode="&#x3c;" 
d="M1675 391q44 0 87 40t64 80l21 40q-3 -9 -8.5 -24t-26 -54t-45.5 -70t-67 -58.5t-90 -33.5q-114 -112 -265 -174.5t-317 -62.5q-169 0 -322.5 65.5t-264.5 176t-176.5 264t-65.5 321.5q0 70 14 156q-64 -47 -127 -109q12 21 27.5 46t56 80.5t84 104.5t109 106.5t133 98
t154.5 68t175 27.5q113 0 113 -66q0 -44 -51 -126t-123.5 -176.5t-145 -195t-123.5 -207.5t-51 -188q0 -59 35.5 -98t91.5 -39q49 0 89 37.5t40 79.5q0 10 -10 10q-6 -2 -22 -2q-60 0 -60 74q0 59 43 149.5t104.5 183.5t123 184.5t104.5 174.5t43 131q0 56 -42 95.5
t-122 39.5q-171 0 -322 -82.5t-270 -216.5q100 220 304 355t454 135q135 0 261 -42t228 -118.5t178.5 -178.5t118 -229t41.5 -262q0 -221 -110 -414q-27 -10 -43 -10q-62 0 -98.5 41.5t-57.5 114.5q127 139 215 295q6 12 6 18t-4 6q-8 0 -16 -16q-80 -147 -211 -266
q-6 26 -15.5 71t-15.5 72.5t-17.5 62t-24 54t-33.5 33.5t-48 14t-50 -11t-37.5 -29.5t-23 -33.5t-14.5 -31q0 -8 7 -8q40 0 72.5 -14t54 -33.5t41.5 -54t31 -61.5t26 -70q-183 -142 -336 -142q-135 0 -135 199q0 162 86 402q64 4 319.5 30.5t345.5 26.5q23 0 23 10
q0 8 -20 8q-101 0 -286.5 1t-350.5 1q39 96 76.5 157.5t58.5 61.5q14 0 14 -38q0 -13 12 -13t19.5 8t7.5 19q0 17 -16.5 32t-44.5 15q-36 0 -92 -67.5t-113 -174.5h-66q-41 0 -41 -22q0 -16 18 -31.5t50 -21.5q-123 -264 -123 -461q0 -250 221 -250q180 0 387 207
q16 -46 28.5 -75t33 -60.5t48 -46.5t62.5 -15z" />
    <glyph glyph-name="equal" unicode="=" 
d="M1675 391q44 0 87 40t64 80l21 40q-3 -9 -8.5 -24t-26 -54t-45.5 -70t-67 -58.5t-90 -33.5q-114 -112 -265 -174.5t-317 -62.5q-169 0 -322.5 65.5t-264.5 176t-176.5 264t-65.5 321.5q0 70 14 156q-64 -47 -127 -109q12 21 27.5 46t56 80.5t84 104.5t109 106.5t133 98
t154.5 68t175 27.5q113 0 113 -66q0 -44 -51 -126t-123.5 -176.5t-145 -195t-123.5 -207.5t-51 -188q0 -59 35.5 -98t91.5 -39q49 0 89 37.5t40 79.5q0 10 -10 10q-6 -2 -22 -2q-60 0 -60 74q0 59 43 149.5t104.5 183.5t123 184.5t104.5 174.5t43 131q0 56 -42 95.5
t-122 39.5q-171 0 -322 -82.5t-270 -216.5q100 220 304 355t454 135q135 0 261 -42t228 -118.5t178.5 -178.5t118 -229t41.5 -262q0 -221 -110 -414q-27 -10 -43 -10q-62 0 -98.5 41.5t-57.5 114.5q127 139 215 295q6 12 6 18t-4 6q-8 0 -16 -16q-80 -147 -211 -266
q-6 26 -15.5 71t-15.5 72.5t-17.5 62t-24 54t-33.5 33.5t-48 14t-50 -11t-37.5 -29.5t-23 -33.5t-14.5 -31q0 -8 7 -8q40 0 72.5 -14t54 -33.5t41.5 -54t31 -61.5t26 -70q-183 -142 -336 -142q-135 0 -135 199q0 162 86 402q64 4 319.5 30.5t345.5 26.5q23 0 23 10
q0 8 -20 8q-101 0 -286.5 1t-350.5 1q39 96 76.5 157.5t58.5 61.5q14 0 14 -38q0 -13 12 -13t19.5 8t7.5 19q0 17 -16.5 32t-44.5 15q-36 0 -92 -67.5t-113 -174.5h-66q-41 0 -41 -22q0 -16 18 -31.5t50 -21.5q-123 -264 -123 -461q0 -250 221 -250q180 0 387 207
q16 -46 28.5 -75t33 -60.5t48 -46.5t62.5 -15z" />
    <glyph glyph-name="greater" unicode="&#x3e;" 
d="M1675 391q44 0 87 40t64 80l21 40q-3 -9 -8.5 -24t-26 -54t-45.5 -70t-67 -58.5t-90 -33.5q-114 -112 -265 -174.5t-317 -62.5q-169 0 -322.5 65.5t-264.5 176t-176.5 264t-65.5 321.5q0 70 14 156q-64 -47 -127 -109q12 21 27.5 46t56 80.5t84 104.5t109 106.5t133 98
t154.5 68t175 27.5q113 0 113 -66q0 -44 -51 -126t-123.5 -176.5t-145 -195t-123.5 -207.5t-51 -188q0 -59 35.5 -98t91.5 -39q49 0 89 37.5t40 79.5q0 10 -10 10q-6 -2 -22 -2q-60 0 -60 74q0 59 43 149.5t104.5 183.5t123 184.5t104.5 174.5t43 131q0 56 -42 95.5
t-122 39.5q-171 0 -322 -82.5t-270 -216.5q100 220 304 355t454 135q135 0 261 -42t228 -118.5t178.5 -178.5t118 -229t41.5 -262q0 -221 -110 -414q-27 -10 -43 -10q-62 0 -98.5 41.5t-57.5 114.5q127 139 215 295q6 12 6 18t-4 6q-8 0 -16 -16q-80 -147 -211 -266
q-6 26 -15.5 71t-15.5 72.5t-17.5 62t-24 54t-33.5 33.5t-48 14t-50 -11t-37.5 -29.5t-23 -33.5t-14.5 -31q0 -8 7 -8q40 0 72.5 -14t54 -33.5t41.5 -54t31 -61.5t26 -70q-183 -142 -336 -142q-135 0 -135 199q0 162 86 402q64 4 319.5 30.5t345.5 26.5q23 0 23 10
q0 8 -20 8q-101 0 -286.5 1t-350.5 1q39 96 76.5 157.5t58.5 61.5q14 0 14 -38q0 -13 12 -13t19.5 8t7.5 19q0 17 -16.5 32t-44.5 15q-36 0 -92 -67.5t-113 -174.5h-66q-41 0 -41 -22q0 -16 18 -31.5t50 -21.5q-123 -264 -123 -461q0 -250 221 -250q180 0 387 207
q16 -46 28.5 -75t33 -60.5t48 -46.5t62.5 -15z" />
    <glyph glyph-name="question" unicode="?" 
d="M1675 391q44 0 87 40t64 80l21 40q-3 -9 -8.5 -24t-26 -54t-45.5 -70t-67 -58.5t-90 -33.5q-114 -112 -265 -174.5t-317 -62.5q-169 0 -322.5 65.5t-264.5 176t-176.5 264t-65.5 321.5q0 70 14 156q-64 -47 -127 -109q12 21 27.5 46t56 80.5t84 104.5t109 106.5t133 98
t154.5 68t175 27.5q113 0 113 -66q0 -44 -51 -126t-123.5 -176.5t-145 -195t-123.5 -207.5t-51 -188q0 -59 35.5 -98t91.5 -39q49 0 89 37.5t40 79.5q0 10 -10 10q-6 -2 -22 -2q-60 0 -60 74q0 59 43 149.5t104.5 183.5t123 184.5t104.5 174.5t43 131q0 56 -42 95.5
t-122 39.5q-171 0 -322 -82.5t-270 -216.5q100 220 304 355t454 135q135 0 261 -42t228 -118.5t178.5 -178.5t118 -229t41.5 -262q0 -221 -110 -414q-27 -10 -43 -10q-62 0 -98.5 41.5t-57.5 114.5q127 139 215 295q6 12 6 18t-4 6q-8 0 -16 -16q-80 -147 -211 -266
q-6 26 -15.5 71t-15.5 72.5t-17.5 62t-24 54t-33.5 33.5t-48 14t-50 -11t-37.5 -29.5t-23 -33.5t-14.5 -31q0 -8 7 -8q40 0 72.5 -14t54 -33.5t41.5 -54t31 -61.5t26 -70q-183 -142 -336 -142q-135 0 -135 199q0 162 86 402q64 4 319.5 30.5t345.5 26.5q23 0 23 10
q0 8 -20 8q-101 0 -286.5 1t-350.5 1q39 96 76.5 157.5t58.5 61.5q14 0 14 -38q0 -13 12 -13t19.5 8t7.5 19q0 17 -16.5 32t-44.5 15q-36 0 -92 -67.5t-113 -174.5h-66q-41 0 -41 -22q0 -16 18 -31.5t50 -21.5q-123 -264 -123 -461q0 -250 221 -250q180 0 387 207
q16 -46 28.5 -75t33 -60.5t48 -46.5t62.5 -15z" />
    <glyph glyph-name="at" unicode="@" 
d="M1675 391q44 0 87 40t64 80l21 40q-3 -9 -8.5 -24t-26 -54t-45.5 -70t-67 -58.5t-90 -33.5q-114 -112 -265 -174.5t-317 -62.5q-169 0 -322.5 65.5t-264.5 176t-176.5 264t-65.5 321.5q0 70 14 156q-64 -47 -127 -109q12 21 27.5 46t56 80.5t84 104.5t109 106.5t133 98
t154.5 68t175 27.5q113 0 113 -66q0 -44 -51 -126t-123.5 -176.5t-145 -195t-123.5 -207.5t-51 -188q0 -59 35.5 -98t91.5 -39q49 0 89 37.5t40 79.5q0 10 -10 10q-6 -2 -22 -2q-60 0 -60 74q0 59 43 149.5t104.5 183.5t123 184.5t104.5 174.5t43 131q0 56 -42 95.5
t-122 39.5q-171 0 -322 -82.5t-270 -216.5q100 220 304 355t454 135q135 0 261 -42t228 -118.5t178.5 -178.5t118 -229t41.5 -262q0 -221 -110 -414q-27 -10 -43 -10q-62 0 -98.5 41.5t-57.5 114.5q127 139 215 295q6 12 6 18t-4 6q-8 0 -16 -16q-80 -147 -211 -266
q-6 26 -15.5 71t-15.5 72.5t-17.5 62t-24 54t-33.5 33.5t-48 14t-50 -11t-37.5 -29.5t-23 -33.5t-14.5 -31q0 -8 7 -8q40 0 72.5 -14t54 -33.5t41.5 -54t31 -61.5t26 -70q-183 -142 -336 -142q-135 0 -135 199q0 162 86 402q64 4 319.5 30.5t345.5 26.5q23 0 23 10
q0 8 -20 8q-101 0 -286.5 1t-350.5 1q39 96 76.5 157.5t58.5 61.5q14 0 14 -38q0 -13 12 -13t19.5 8t7.5 19q0 17 -16.5 32t-44.5 15q-36 0 -92 -67.5t-113 -174.5h-66q-41 0 -41 -22q0 -16 18 -31.5t50 -21.5q-123 -264 -123 -461q0 -250 221 -250q180 0 387 207
q16 -46 28.5 -75t33 -60.5t48 -46.5t62.5 -15z" />
    <glyph glyph-name="A" unicode="A" horiz-adv-x="1107" 
d="M1026 641q0 -33 -53 -70.5t-117 -52.5q-2 -59 -2 -121q0 -116 -19 -256.5t-49 -140.5q-42 0 -69 502q-198 -16 -297 -19q-266 -503 -293 -503q-25 0 -42 33.5t-17 82.5q0 50 158 397.5t322 672.5t179 325q32 0 70.5 -35.5t54.5 -73.5q20 -47 20 -292q0 -94 -10 -426
q81 8 119 8q19 0 32 -9t13 -22zM489 616q111 19 222 31q-10 249 -13 377q-112 -225 -209 -408z" />
    <glyph glyph-name="B" unicode="B" horiz-adv-x="1153" 
d="M885 717q162 -131 162 -318q0 -222 -150.5 -350.5t-427.5 -128.5q-51 0 -105.5 10.5t-107.5 32.5t-87 63t-34 95q0 76 144 549q-52 65 -52 123q0 47 111 69q86 261 96 289q-46 -16 -93 -34l-70.5 -27t-24.5 -9q-14 0 -43 26t-29 54q0 8 39.5 38t120.5 72.5t168 71.5
q58 148 65 148q32 0 69.5 -33.5t53.5 -71.5q72 5 88 5q105 0 188 -85.5t83 -183.5q0 -231 -164 -405zM899 1251q-101 0 -244 -34q-21 -65 -110 -324l-8 -25q98 -13 198 -57q79 85 126.5 197.5t47.5 230.5q0 4 -3.5 8t-6.5 4zM465 666q97 9 186 73q-80 30 -147 37
q-16 -49 -39 -110zM307 762q-22 -13 -22 -21q0 -5 10 -18q6 18 12 39zM354 68q123 0 217 24t154 64.5t98 99.5t53 124t15 144q0 52 -84 123q-133 -103 -272 -110h-17q-62 0 -92 18l-8 -23q-142 -378 -170 -442q52 -22 106 -22z" />
    <glyph glyph-name="C" unicode="C" horiz-adv-x="937" 
d="M942 1229q0 -7 -5 -13t-9 -6q-6 0 -34.5 19t-69 38t-74.5 19q-120 0 -216.5 -81.5t-156.5 -219.5t-91.5 -309.5t-31.5 -360.5q0 -69 9.5 -113.5t19 -57.5t18.5 -13q62 0 155.5 46.5t170 103t139.5 103t72 46.5q15 0 25.5 -13t10.5 -28q0 -19 -46.5 -83t-114 -136
t-156.5 -128t-162 -56q-155 0 -238 132.5t-83 360.5q0 252 75.5 480t203.5 366.5t272 138.5q61 0 123 -30.5t102.5 -71t66 -78t25.5 -55.5z" />
    <glyph glyph-name="D" unicode="D" horiz-adv-x="1150" 
d="M709 1397q81 0 152 -33t122 -89.5t87.5 -131.5t54.5 -159.5t18 -172.5q0 -91 -22 -189.5t-60.5 -191t-95 -176t-122.5 -146t-147 -99t-164 -36.5q-169 0 -272.5 37t-103.5 107q0 26 122 446.5t195 634.5q-11 -5 -37.5 -17.5t-38.5 -18t-32.5 -12.5t-39 -10t-38.5 -3
q-22 0 -65.5 35t-43.5 57q0 24 115 72.5t246 76.5q44 113 51 113q29 0 64 -29t55 -65zM408 76q112 0 221 68t192 183t134 278t51 341q0 82 -11 139.5t-29 90.5t-49.5 51.5t-63 24t-79.5 5.5q-57 0 -84 -2q-71 -222 -201.5 -590.5t-207.5 -555.5q68 -33 127 -33z" />
    <glyph glyph-name="E" unicode="E" horiz-adv-x="993" 
d="M1090 1425q17 -1 27.5 -11.5t10.5 -22.5q-4 -38 -69.5 -72.5t-130.5 -36.5q-55 -2 -307 -2q-62 -193 -177 -502q175 21 367 21h35q14 -2 23.5 -12t9.5 -23q-4 -39 -62 -74.5t-115 -38.5q-90 -4 -247 -4h-60q-125 -343 -205 -524q155 31 445 31q72 0 82 -2q17 -1 28 -11
t11 -24q-4 -39 -69.5 -74t-131.5 -37h-45q-59 0 -190.5 2t-149.5 2q-36 0 -63 24.5t-27 61.5q0 90 121.5 494t230.5 710q-43 21 -43 50q3 25 78 41q40 100 45 100q26 0 57.5 -23.5t53.5 -54.5q178 14 372 14q85 0 95 -2z" />
    <glyph glyph-name="F" unicode="F" horiz-adv-x="1064" 
d="M1083 1425q17 -1 28 -11.5t11 -22.5q-4 -38 -69.5 -72.5t-130.5 -36.5q-55 -2 -306 -2q-61 -190 -170 -502q172 21 361 21h33q14 -2 23 -12t9 -23q-4 -39 -61.5 -74.5t-114.5 -38.5q-86 -4 -239 -4h-58q-239 -667 -268 -667q-23 0 -40 33.5t-17 82.5q0 90 121.5 494
t230.5 710q-43 21 -43 50q3 25 78 41q40 100 45 100q26 0 57 -23t53 -55q178 14 373 14q84 0 94 -2z" />
    <glyph glyph-name="G" unicode="G" horiz-adv-x="1024" 
d="M995 725q0 -50 -42 -190t-70 -181q-25 -43 -74 -101.5t-113 -120t-140.5 -104t-139.5 -42.5q-155 0 -238.5 132.5t-83.5 360.5q0 252 75.5 480t203.5 366.5t272 138.5q61 0 123 -30.5t103 -71t66.5 -78t25.5 -55.5q0 -7 -5 -13t-10 -6q-6 0 -34.5 19t-69 38t-74.5 19
q-120 0 -216.5 -81.5t-156.5 -219.5t-91.5 -309.5t-31.5 -360.5q0 -43 4 -76.5t9.5 -53t12.5 -32.5t12.5 -17.5t9.5 -4.5q38 0 90 19t91.5 40t104 64t87.5 60.5t81 60.5q6 5 16 12t11 8q17 20 29.5 77.5t16 97t3.5 51.5q0 5 -8.5 8.5t-12.5 3.5q-9 0 -87 -8.5t-95 -8.5
q-33 0 -87 43t-54 95q0 13 167.5 50.5t198.5 37.5q35 0 78 -45t43 -72z" />
    <glyph glyph-name="H" unicode="H" horiz-adv-x="1064" 
d="M1018 1491q40 0 85.5 -48t45.5 -85q0 -23 -116.5 -364.5t-243 -677.5t-146.5 -336q-24 0 -41.5 33.5t-17.5 82.5q0 97 145 568q-35 -11 -57 -13q-86 -4 -240 -4h-57q-239 -667 -269 -667q-24 0 -40.5 33.5t-16.5 82.5q0 81 101.5 427.5t208.5 657t122 310.5
q40 0 85.5 -48t45.5 -85q0 -30 -190 -580q164 21 348 21q85 269 160.5 480.5t87.5 211.5z" />
    <glyph glyph-name="I" unicode="I" horiz-adv-x="724" 
d="M184 -20q-25 0 -42 33.5t-17 82.5q0 81 102 427.5t209.5 657t122.5 310.5q40 0 85.5 -48t45.5 -85q0 -23 -117 -364.5t-243 -677.5t-146 -336z" />
    <glyph glyph-name="J" unicode="J" horiz-adv-x="915" 
d="M858 1358q0 -7 -11 -42t-34.5 -105t-45 -132t-59 -170.5t-59.5 -173.5q-45 -128 -71 -198.5t-67.5 -174t-73.5 -160.5t-73 -116.5t-83.5 -85t-87.5 -25.5q-43 0 -80 19t-61.5 49.5t-44.5 70t-31 78t-18.5 76.5t-10 62.5t-2.5 38.5q0 12 10 12q12 0 27.5 -16.5t15.5 -32.5
q0 -81 41.5 -166.5t71.5 -85.5q142 0 393 794q78 243 145 430t78 187q40 0 85.5 -48t45.5 -85z" />
    <glyph glyph-name="K" unicode="K" horiz-adv-x="1150" 
d="M1044 1430q40 0 88 -45t48 -89q0 -13 -91.5 -100.5t-316.5 -292.5q-157 -144 -266 -223q83 -168 167.5 -367t84.5 -237q0 -80 -27 -80q-28 0 -103.5 104.5t-146 224.5t-133.5 236q-208 -581 -235 -581q-25 0 -42.5 33.5t-17.5 82.5q0 81 102 427.5t209.5 657t122.5 310.5
q40 0 85.5 -48t45.5 -85q0 -24 -178 -541q34 37 74.5 77.5t96 95.5t75.5 75q69 69 161.5 166.5t141.5 148t55 50.5z" />
    <glyph glyph-name="L" unicode="L" horiz-adv-x="897" 
d="M690 152q17 -1 28 -11t11 -24q-4 -39 -69.5 -74t-131.5 -37h-45q-59 0 -190.5 2t-149.5 2q-36 0 -63 24.5t-27 61.5q0 81 101.5 427.5t208.5 657t122 310.5q40 0 85.5 -48t45.5 -85q0 -30 -180 -528.5t-272 -706.5q155 31 444 31q72 0 82 -2z" />
    <glyph glyph-name="M" unicode="M" horiz-adv-x="1236" 
d="M1184 1491q44 0 87.5 -47.5t43.5 -85.5q0 -23 -117 -364.5t-244 -677.5t-147 -336q-23 0 -40 33.5t-17 82.5q0 68 71 321t168 552q-73 -98 -155 -199.5t-132.5 -159t-54.5 -57.5q-43 0 -88 46t-45 79q0 43 -10 293q-124 -364 -242 -677.5t-139 -313.5q-23 0 -40 33.5
t-17 82.5q0 81 101.5 427.5t208.5 657t122 310.5q58 0 88.5 -36t40.5 -81q20 -85 25 -180t5 -320q500 617 527 617z" />
    <glyph glyph-name="N" unicode="N" horiz-adv-x="1110" 
d="M1030 1491q40 0 85.5 -48t45.5 -85q0 -23 -116.5 -364.5t-243 -677.5t-146.5 -336q-27 0 -65.5 77t-38.5 148q0 57 -45 782q-124 -364 -245 -685.5t-142 -321.5q-24 0 -41 33.5t-17 82.5q0 81 102 427.5t209 657t122 310.5q42 0 86.5 -44.5t44.5 -88.5q0 -12 8.5 -160.5
t21.5 -375.5t21 -376q90 315 213.5 680t140.5 365z" />
    <glyph glyph-name="O" unicode="O" horiz-adv-x="1069" 
d="M489 1473q27 0 49.5 -37.5t22.5 -67.5q0 -15 -32.5 -85t-78.5 -174t-92.5 -226t-79 -269t-32.5 -274q0 -87 24 -151t49 -64q63 0 136.5 48t143.5 128.5t135 192.5t114 234.5t78.5 259.5t29.5 263q0 92 -18 92q-66 0 -129.5 -29.5t-108.5 -71t-79 -83t-53.5 -71
t-20.5 -29.5q-6 0 -12.5 4.5t-6.5 7.5q0 25 54 118t137 183t145 90q25 0 52 -8.5t57.5 -31t54.5 -57.5t39.5 -95t15.5 -135q0 -155 -43.5 -324.5t-113.5 -312.5t-152.5 -260t-167 -183.5t-149.5 -66.5q-24 0 -59 9.5t-86.5 40.5t-93 79t-71.5 136.5t-30 201.5q0 142 45 327
t105.5 334t123.5 253t98 104z" />
    <glyph glyph-name="P" unicode="P" horiz-adv-x="1024" 
d="M741 1391q105 0 188 -85.5t83 -183.5q0 -130 -58.5 -258t-143 -216.5t-179 -143.5t-168.5 -55q-58 0 -105 20q-180 -489 -204 -489t-41 33.5t-17 82.5q0 42 126 478.5t175 576.5q-46 -16 -93 -34l-70.5 -27t-24.5 -9q-14 0 -43 26t-29 54q0 8 39.5 38t120.5 72.5
t168 71.5q54 148 63 148q32 0 70.5 -34t54.5 -71q73 5 88 5zM399 586q119 28 229.5 133.5t177 247t66.5 272.5q0 4 -3.5 8t-6.5 4q-101 0 -244 -34q-82 -251 -219 -631z" />
    <glyph glyph-name="Q" unicode="Q" horiz-adv-x="1120" 
d="M745 -131q17 0 17 -12q0 -3 -10 -9.5t-27 -12t-33 -5.5q-31 0 -61 14t-56 33.5t-53.5 39.5t-65.5 34t-81 14q-32 0 -84.5 39.5t-59.5 81.5q-131 124 -131 369q0 142 45 327t106 334t124 253t98 104q27 0 49.5 -37.5t22.5 -67.5q0 -16 -49.5 -123.5t-108.5 -241.5
t-108.5 -320.5t-49.5 -342.5q0 -87 24.5 -151t49.5 -64q63 0 136.5 48t143.5 128.5t135 192.5t114 234.5t78.5 259.5t29.5 263q0 92 -18 92q-66 0 -130 -29.5t-108.5 -71t-79 -83t-54 -71t-20.5 -29.5q-6 0 -12 4.5t-6 7.5q0 25 54 118t137 183t145 90q25 0 52 -8.5
t57.5 -31t54.5 -57.5t39.5 -95t15.5 -135q0 -168 -52 -353t-131.5 -335.5t-173 -266.5t-178.5 -164q36 -25 87.5 -66.5t80 -61t45.5 -19.5z" />
    <glyph glyph-name="R" unicode="R" horiz-adv-x="1011" 
d="M993 1122q0 -105 -38 -209t-99 -186t-133 -145.5t-145 -98.5q163 -358 163 -417q0 -80 -26 -80q-36 0 -130.5 141t-199.5 328q-15 2 -47 14q-176 -489 -203 -489q-24 0 -41.5 33.5t-17.5 82.5q0 42 127 477.5t176 577.5l-191 -70q-13 0 -41 26t-28 54q0 8 39.5 37.5
t120 72.5t167.5 72q54 148 64 148q32 0 70.5 -34t54.5 -71q72 5 88 5q105 0 187.5 -85.5t82.5 -183.5zM506 639q144 89 246 263t102 337q0 4 -3.5 8t-6.5 4q-101 0 -244 -34q-60 -183 -158 -457q19 -32 64 -121z" />
    <glyph glyph-name="S" unicode="S" horiz-adv-x="894" 
d="M961 1249q0 -8 -5.5 -13t-9.5 -5q-26 0 -49 17.5t-36 38.5t-31 38.5t-35 17.5q-14 0 -49.5 -10t-87.5 -36t-98.5 -63t-80 -99.5t-33.5 -137.5q0 -19 23 -49t58 -62.5t75 -80.5t75 -100t58 -125t23 -152q0 -87 -59.5 -192t-152.5 -179.5t-179 -74.5q-66 0 -130 40.5
t-105.5 94.5t-67 104t-25.5 74q0 18 12.5 46t22.5 28q11 0 42.5 -60t72.5 -120t75 -60q41 0 100 37t113 94t92.5 132.5t38.5 144.5q0 59 -17.5 112t-45 92.5t-61 76t-67.5 70t-61.5 67t-45 73t-17.5 82.5q0 61 28.5 118t74 99t100.5 74t109.5 48.5t99.5 16.5
q51 0 101.5 -29.5t82.5 -68.5t52 -72.5t20 -46.5z" />
    <glyph glyph-name="T" unicode="T" horiz-adv-x="1024" 
d="M1196 1315q0 -12 -142 -26t-313 -23q-97 -305 -275 -795.5t-204 -490.5q-24 0 -41.5 33.5t-17.5 82.5q0 56 84 347.5t167 554.5l83 262q-137 0 -243.5 14.5t-149 29t-42.5 23.5q0 15 463 72t496 57t84 -45.5t51 -95.5z" />
    <glyph glyph-name="U" unicode="U" horiz-adv-x="1036" 
d="M905 1362v18q0 31 13 31q28 0 70 -62.5t42 -105.5q0 -209 -66.5 -441t-161.5 -407.5t-203.5 -291t-190.5 -115.5q-24 0 -58 9.5t-81.5 40.5t-86.5 79t-66.5 136.5t-27.5 201.5q0 133 25 279t63.5 267t83 220t86.5 155t70 56q27 0 41 -47t14 -85q0 -14 -26 -63.5
t-63.5 -129.5t-75 -184.5t-63.5 -259.5t-26 -323q0 -96 30.5 -172t74.5 -76q65 0 146 81t156.5 217.5t139.5 299t102.5 342t38.5 330.5z" />
    <glyph glyph-name="V" unicode="V" horiz-adv-x="1153" 
d="M1028 1460q39 0 72 -47t33 -86q0 -22 -162 -356.5t-333 -662.5t-192 -328q-7 0 -31.5 34t-48.5 90t-24 101q0 79 -37 645t-37 567q0 9 9 21t20 12q44 0 96.5 -37.5t52.5 -85.5q0 -21 9 -175.5t22.5 -388t20.5 -372.5q135 306 324 687.5t206 381.5z" />
    <glyph glyph-name="W" unicode="W" horiz-adv-x="1536" 
d="M1524 1460q38 0 70 -47t32 -86q0 -22 -161.5 -356.5t-332.5 -662.5t-192 -328q-6 0 -30.5 34t-49 90t-24.5 101q0 223 -7 620q-121 -324 -234 -584.5t-138 -260.5q-7 0 -32.5 34t-50 90t-24.5 101q0 80 -35.5 645.5t-35.5 566.5q0 9 8.5 21t19.5 12q43 0 96.5 -37.5
t53.5 -85.5q0 -21 8.5 -174.5t22 -390t20.5 -371.5q37 93 91.5 236t88.5 230.5t71.5 178.5t60.5 134.5t34 43.5q37 0 82 -55t45 -96q0 -1 -1 -61t-1 -115q0 -260 12 -496q32 66 126 261.5t144.5 300t118.5 242t102.5 201.5t41.5 64z" />
    <glyph glyph-name="X" unicode="X" horiz-adv-x="1110" 
d="M1217 1364q0 -27 -461 -619q22 -79 51 -184.5t48.5 -176.5t38.5 -141t28.5 -110t9.5 -51q0 -31 -7.5 -54.5t-19.5 -23.5q-29 0 -61.5 47t-67 135t-66 186t-67.5 228q-201 -255 -362 -432.5t-203 -177.5q-12 0 -12 14q0 93 524 784q-34 124 -83 295t-69 247t-20 100
q0 28 33 28q23 0 43.5 -8t38.5 -27.5t32.5 -39.5t29.5 -57t25 -65.5t24 -80t22.5 -85.5t23.5 -96l15 -59q49 65 117.5 156.5t110 147.5t84 112t64.5 82t27 26q27 0 68 -36t41 -64z" />
    <glyph glyph-name="Y" unicode="Y" horiz-adv-x="894" 
d="M1067 1364q0 -4 -13.5 -24.5t-42 -58.5l-58.5 -78t-78.5 -102t-85.5 -109t-94.5 -121.5t-92.5 -118.5q-101 -285 -195 -528.5t-104 -243.5q-25 0 -42 33.5t-17 82.5q0 24 25.5 117t82 285.5t86.5 298.5q-32 115 -82 289.5t-69 247.5t-19 96q0 28 33 28q23 0 44 -8
t38.5 -27.5t32 -40t29.5 -57t25.5 -65.5t24.5 -79.5t22.5 -85.5t23.5 -96l14 -59q49 65 117.5 156.5t110 147.5t84 112t64.5 82t27 26q27 0 68 -36t41 -64z" />
    <glyph glyph-name="Z" unicode="Z" horiz-adv-x="1150" 
d="M743 150q38 0 87 -52.5t49 -72.5q0 -35 -271 -35h-522q-12 0 -12 14q0 59 174 308.5t385 523.5q77 101 195 260t155 207q-177 -13 -276 -13q-89 0 -180 16t-91 44q0 42 233 68t427 26q24 0 68 -37t44 -64q0 -16 -36 -71t-125.5 -171t-151 -193.5t-199.5 -250.5
q-40 -50 -118.5 -148.5t-121.5 -152t-100.5 -123.5t-101.5 -120q109 17 261 27t228 10z" />
    <glyph glyph-name="bracketleft" unicode="[" 
d="M1675 391q44 0 87 40t64 80l21 40q-3 -9 -8.5 -24t-26 -54t-45.5 -70t-67 -58.5t-90 -33.5q-114 -112 -265 -174.5t-317 -62.5q-169 0 -322.5 65.5t-264.5 176t-176.5 264t-65.5 321.5q0 70 14 156q-64 -47 -127 -109q12 21 27.5 46t56 80.5t84 104.5t109 106.5t133 98
t154.5 68t175 27.5q113 0 113 -66q0 -44 -51 -126t-123.5 -176.5t-145 -195t-123.5 -207.5t-51 -188q0 -59 35.5 -98t91.5 -39q49 0 89 37.5t40 79.5q0 10 -10 10q-6 -2 -22 -2q-60 0 -60 74q0 59 43 149.5t104.5 183.5t123 184.5t104.5 174.5t43 131q0 56 -42 95.5
t-122 39.5q-171 0 -322 -82.5t-270 -216.5q100 220 304 355t454 135q135 0 261 -42t228 -118.5t178.5 -178.5t118 -229t41.5 -262q0 -221 -110 -414q-27 -10 -43 -10q-62 0 -98.5 41.5t-57.5 114.5q127 139 215 295q6 12 6 18t-4 6q-8 0 -16 -16q-80 -147 -211 -266
q-6 26 -15.5 71t-15.5 72.5t-17.5 62t-24 54t-33.5 33.5t-48 14t-50 -11t-37.5 -29.5t-23 -33.5t-14.5 -31q0 -8 7 -8q40 0 72.5 -14t54 -33.5t41.5 -54t31 -61.5t26 -70q-183 -142 -336 -142q-135 0 -135 199q0 162 86 402q64 4 319.5 30.5t345.5 26.5q23 0 23 10
q0 8 -20 8q-101 0 -286.5 1t-350.5 1q39 96 76.5 157.5t58.5 61.5q14 0 14 -38q0 -13 12 -13t19.5 8t7.5 19q0 17 -16.5 32t-44.5 15q-36 0 -92 -67.5t-113 -174.5h-66q-41 0 -41 -22q0 -16 18 -31.5t50 -21.5q-123 -264 -123 -461q0 -250 221 -250q180 0 387 207
q16 -46 28.5 -75t33 -60.5t48 -46.5t62.5 -15z" />
    <glyph glyph-name="backslash" unicode="\" 
d="M1675 391q44 0 87 40t64 80l21 40q-3 -9 -8.5 -24t-26 -54t-45.5 -70t-67 -58.5t-90 -33.5q-114 -112 -265 -174.5t-317 -62.5q-169 0 -322.5 65.5t-264.5 176t-176.5 264t-65.5 321.5q0 70 14 156q-64 -47 -127 -109q12 21 27.5 46t56 80.5t84 104.5t109 106.5t133 98
t154.5 68t175 27.5q113 0 113 -66q0 -44 -51 -126t-123.5 -176.5t-145 -195t-123.5 -207.5t-51 -188q0 -59 35.5 -98t91.5 -39q49 0 89 37.5t40 79.5q0 10 -10 10q-6 -2 -22 -2q-60 0 -60 74q0 59 43 149.5t104.5 183.5t123 184.5t104.5 174.5t43 131q0 56 -42 95.5
t-122 39.5q-171 0 -322 -82.5t-270 -216.5q100 220 304 355t454 135q135 0 261 -42t228 -118.5t178.5 -178.5t118 -229t41.5 -262q0 -221 -110 -414q-27 -10 -43 -10q-62 0 -98.5 41.5t-57.5 114.5q127 139 215 295q6 12 6 18t-4 6q-8 0 -16 -16q-80 -147 -211 -266
q-6 26 -15.5 71t-15.5 72.5t-17.5 62t-24 54t-33.5 33.5t-48 14t-50 -11t-37.5 -29.5t-23 -33.5t-14.5 -31q0 -8 7 -8q40 0 72.5 -14t54 -33.5t41.5 -54t31 -61.5t26 -70q-183 -142 -336 -142q-135 0 -135 199q0 162 86 402q64 4 319.5 30.5t345.5 26.5q23 0 23 10
q0 8 -20 8q-101 0 -286.5 1t-350.5 1q39 96 76.5 157.5t58.5 61.5q14 0 14 -38q0 -13 12 -13t19.5 8t7.5 19q0 17 -16.5 32t-44.5 15q-36 0 -92 -67.5t-113 -174.5h-66q-41 0 -41 -22q0 -16 18 -31.5t50 -21.5q-123 -264 -123 -461q0 -250 221 -250q180 0 387 207
q16 -46 28.5 -75t33 -60.5t48 -46.5t62.5 -15z" />
    <glyph glyph-name="bracketright" unicode="]" 
d="M1675 391q44 0 87 40t64 80l21 40q-3 -9 -8.5 -24t-26 -54t-45.5 -70t-67 -58.5t-90 -33.5q-114 -112 -265 -174.5t-317 -62.5q-169 0 -322.5 65.5t-264.5 176t-176.5 264t-65.5 321.5q0 70 14 156q-64 -47 -127 -109q12 21 27.5 46t56 80.5t84 104.5t109 106.5t133 98
t154.5 68t175 27.5q113 0 113 -66q0 -44 -51 -126t-123.5 -176.5t-145 -195t-123.5 -207.5t-51 -188q0 -59 35.5 -98t91.5 -39q49 0 89 37.5t40 79.5q0 10 -10 10q-6 -2 -22 -2q-60 0 -60 74q0 59 43 149.5t104.5 183.5t123 184.5t104.5 174.5t43 131q0 56 -42 95.5
t-122 39.5q-171 0 -322 -82.5t-270 -216.5q100 220 304 355t454 135q135 0 261 -42t228 -118.5t178.5 -178.5t118 -229t41.5 -262q0 -221 -110 -414q-27 -10 -43 -10q-62 0 -98.5 41.5t-57.5 114.5q127 139 215 295q6 12 6 18t-4 6q-8 0 -16 -16q-80 -147 -211 -266
q-6 26 -15.5 71t-15.5 72.5t-17.5 62t-24 54t-33.5 33.5t-48 14t-50 -11t-37.5 -29.5t-23 -33.5t-14.5 -31q0 -8 7 -8q40 0 72.5 -14t54 -33.5t41.5 -54t31 -61.5t26 -70q-183 -142 -336 -142q-135 0 -135 199q0 162 86 402q64 4 319.5 30.5t345.5 26.5q23 0 23 10
q0 8 -20 8q-101 0 -286.5 1t-350.5 1q39 96 76.5 157.5t58.5 61.5q14 0 14 -38q0 -13 12 -13t19.5 8t7.5 19q0 17 -16.5 32t-44.5 15q-36 0 -92 -67.5t-113 -174.5h-66q-41 0 -41 -22q0 -16 18 -31.5t50 -21.5q-123 -264 -123 -461q0 -250 221 -250q180 0 387 207
q16 -46 28.5 -75t33 -60.5t48 -46.5t62.5 -15z" />
    <glyph glyph-name="asciicircum" unicode="^" 
d="M1675 391q44 0 87 40t64 80l21 40q-3 -9 -8.5 -24t-26 -54t-45.5 -70t-67 -58.5t-90 -33.5q-114 -112 -265 -174.5t-317 -62.5q-169 0 -322.5 65.5t-264.5 176t-176.5 264t-65.5 321.5q0 70 14 156q-64 -47 -127 -109q12 21 27.5 46t56 80.5t84 104.5t109 106.5t133 98
t154.5 68t175 27.5q113 0 113 -66q0 -44 -51 -126t-123.5 -176.5t-145 -195t-123.5 -207.5t-51 -188q0 -59 35.5 -98t91.5 -39q49 0 89 37.5t40 79.5q0 10 -10 10q-6 -2 -22 -2q-60 0 -60 74q0 59 43 149.5t104.5 183.5t123 184.5t104.5 174.5t43 131q0 56 -42 95.5
t-122 39.5q-171 0 -322 -82.5t-270 -216.5q100 220 304 355t454 135q135 0 261 -42t228 -118.5t178.5 -178.5t118 -229t41.5 -262q0 -221 -110 -414q-27 -10 -43 -10q-62 0 -98.5 41.5t-57.5 114.5q127 139 215 295q6 12 6 18t-4 6q-8 0 -16 -16q-80 -147 -211 -266
q-6 26 -15.5 71t-15.5 72.5t-17.5 62t-24 54t-33.5 33.5t-48 14t-50 -11t-37.5 -29.5t-23 -33.5t-14.5 -31q0 -8 7 -8q40 0 72.5 -14t54 -33.5t41.5 -54t31 -61.5t26 -70q-183 -142 -336 -142q-135 0 -135 199q0 162 86 402q64 4 319.5 30.5t345.5 26.5q23 0 23 10
q0 8 -20 8q-101 0 -286.5 1t-350.5 1q39 96 76.5 157.5t58.5 61.5q14 0 14 -38q0 -13 12 -13t19.5 8t7.5 19q0 17 -16.5 32t-44.5 15q-36 0 -92 -67.5t-113 -174.5h-66q-41 0 -41 -22q0 -16 18 -31.5t50 -21.5q-123 -264 -123 -461q0 -250 221 -250q180 0 387 207
q16 -46 28.5 -75t33 -60.5t48 -46.5t62.5 -15z" />
    <glyph glyph-name="underscore" unicode="_" 
d="M1675 391q44 0 87 40t64 80l21 40q-3 -9 -8.5 -24t-26 -54t-45.5 -70t-67 -58.5t-90 -33.5q-114 -112 -265 -174.5t-317 -62.5q-169 0 -322.5 65.5t-264.5 176t-176.5 264t-65.5 321.5q0 70 14 156q-64 -47 -127 -109q12 21 27.5 46t56 80.5t84 104.5t109 106.5t133 98
t154.5 68t175 27.5q113 0 113 -66q0 -44 -51 -126t-123.5 -176.5t-145 -195t-123.5 -207.5t-51 -188q0 -59 35.5 -98t91.5 -39q49 0 89 37.5t40 79.5q0 10 -10 10q-6 -2 -22 -2q-60 0 -60 74q0 59 43 149.5t104.5 183.5t123 184.5t104.5 174.5t43 131q0 56 -42 95.5
t-122 39.5q-171 0 -322 -82.5t-270 -216.5q100 220 304 355t454 135q135 0 261 -42t228 -118.5t178.5 -178.5t118 -229t41.5 -262q0 -221 -110 -414q-27 -10 -43 -10q-62 0 -98.5 41.5t-57.5 114.5q127 139 215 295q6 12 6 18t-4 6q-8 0 -16 -16q-80 -147 -211 -266
q-6 26 -15.5 71t-15.5 72.5t-17.5 62t-24 54t-33.5 33.5t-48 14t-50 -11t-37.5 -29.5t-23 -33.5t-14.5 -31q0 -8 7 -8q40 0 72.5 -14t54 -33.5t41.5 -54t31 -61.5t26 -70q-183 -142 -336 -142q-135 0 -135 199q0 162 86 402q64 4 319.5 30.5t345.5 26.5q23 0 23 10
q0 8 -20 8q-101 0 -286.5 1t-350.5 1q39 96 76.5 157.5t58.5 61.5q14 0 14 -38q0 -13 12 -13t19.5 8t7.5 19q0 17 -16.5 32t-44.5 15q-36 0 -92 -67.5t-113 -174.5h-66q-41 0 -41 -22q0 -16 18 -31.5t50 -21.5q-123 -264 -123 -461q0 -250 221 -250q180 0 387 207
q16 -46 28.5 -75t33 -60.5t48 -46.5t62.5 -15z" />
    <glyph glyph-name="grave" unicode="`" 
d="M1675 391q44 0 87 40t64 80l21 40q-3 -9 -8.5 -24t-26 -54t-45.5 -70t-67 -58.5t-90 -33.5q-114 -112 -265 -174.5t-317 -62.5q-169 0 -322.5 65.5t-264.5 176t-176.5 264t-65.5 321.5q0 70 14 156q-64 -47 -127 -109q12 21 27.5 46t56 80.5t84 104.5t109 106.5t133 98
t154.5 68t175 27.5q113 0 113 -66q0 -44 -51 -126t-123.5 -176.5t-145 -195t-123.5 -207.5t-51 -188q0 -59 35.5 -98t91.5 -39q49 0 89 37.5t40 79.5q0 10 -10 10q-6 -2 -22 -2q-60 0 -60 74q0 59 43 149.5t104.5 183.5t123 184.5t104.5 174.5t43 131q0 56 -42 95.5
t-122 39.5q-171 0 -322 -82.5t-270 -216.5q100 220 304 355t454 135q135 0 261 -42t228 -118.5t178.5 -178.5t118 -229t41.5 -262q0 -221 -110 -414q-27 -10 -43 -10q-62 0 -98.5 41.5t-57.5 114.5q127 139 215 295q6 12 6 18t-4 6q-8 0 -16 -16q-80 -147 -211 -266
q-6 26 -15.5 71t-15.5 72.5t-17.5 62t-24 54t-33.5 33.5t-48 14t-50 -11t-37.5 -29.5t-23 -33.5t-14.5 -31q0 -8 7 -8q40 0 72.5 -14t54 -33.5t41.5 -54t31 -61.5t26 -70q-183 -142 -336 -142q-135 0 -135 199q0 162 86 402q64 4 319.5 30.5t345.5 26.5q23 0 23 10
q0 8 -20 8q-101 0 -286.5 1t-350.5 1q39 96 76.5 157.5t58.5 61.5q14 0 14 -38q0 -13 12 -13t19.5 8t7.5 19q0 17 -16.5 32t-44.5 15q-36 0 -92 -67.5t-113 -174.5h-66q-41 0 -41 -22q0 -16 18 -31.5t50 -21.5q-123 -264 -123 -461q0 -250 221 -250q180 0 387 207
q16 -46 28.5 -75t33 -60.5t48 -46.5t62.5 -15z" />
    <glyph glyph-name="a" unicode="a" horiz-adv-x="952" 
d="M981 528q2 -9 -38 -90.5t-93.5 -178.5t-115.5 -176t-99 -79q-10 0 -30.5 10t-48.5 33.5t-52.5 55t-42 81.5t-17.5 107q0 152 138 493l-9 11q-59 77 -112 77q-81 0 -165 -86t-139 -224t-55 -275q0 -53 10.5 -100t26.5 -76t32.5 -45.5t29.5 -16.5q31 0 63 17.5t52.5 38
t38.5 38t24 17.5q1 0 3.5 -2t2.5 -4q0 -10 -29 -47t-74.5 -73t-80.5 -36q-22 0 -61.5 27t-82 74.5t-73.5 128.5t-31 173q0 106 25.5 205.5t67 173t92 130t102.5 85.5t96 29q80 0 152 -56t118 -128q32 78 58 129t34 51q32 0 82.5 -45t50.5 -82q0 -3 -24 -56.5t-58.5 -136.5
t-69.5 -176.5t-59 -193.5t-24 -170q0 -28 6.5 -38.5t28.5 -10.5q41 0 102.5 65t111.5 143.5t90.5 143.5t45.5 65z" />
    <glyph glyph-name="b" unicode="b" horiz-adv-x="892" 
d="M928 526q0 -6 -15 -33.5t-48 -69t-76.5 -80.5t-110.5 -69.5t-141 -35.5q-92 -113 -180.5 -182.5t-147.5 -69.5q-6 0 -28.5 9t-58 34t-67.5 60.5t-55 97.5t-23 137q0 112 30.5 270t75 305t91 278t83 210t46.5 79q34 0 83.5 -45t49.5 -88q0 -4 -33.5 -85t-81 -207.5
t-94.5 -269.5t-80.5 -297t-33.5 -263q0 -78 18 -78q138 0 275 117q-191 54 -191 305q0 103 75 214t189 184t219 73q57 0 87 -43t30 -113q0 -121 -58 -262.5t-153 -279.5q12 -4 41 -4q46 0 89.5 21t73 51t53.5 59.5t41.5 50.5t25.5 20zM571 872q-81 0 -143.5 -69.5
t-62.5 -163.5q0 -70 41 -148t108 -124q68 93 108 196.5t40 190.5q0 118 -91 118z" />
    <glyph glyph-name="c" unicode="c" horiz-adv-x="751" 
d="M788 526q0 -13 -32 -72.5t-88 -139t-120.5 -155.5t-140 -129t-137.5 -53q-30 0 -68.5 16.5t-78 48.5t-73 74.5t-54.5 101t-21 120.5q0 112 43 240t105.5 228.5t136 167t131.5 66.5q53 0 113.5 -36.5t97.5 -80.5t37 -69q0 -8 -7.5 -13t-13.5 -5t-18.5 14t-33.5 28.5
t-48 14.5q-49 0 -116.5 -63.5t-128 -158.5t-102.5 -217.5t-42 -228.5q0 -86 23 -115.5t69 -29.5q68 0 148.5 46.5t148 112.5t126 132t97.5 111t47 44z" />
    <glyph glyph-name="d" unicode="d" horiz-adv-x="1003" 
d="M1024 528q2 -9 -38 -90.5t-93.5 -178.5t-117 -176t-101.5 -79q-17 0 -32.5 1.5t-46.5 12t-53 30t-39.5 59.5t-17.5 96q0 177 127 596q-19 23 -31 35.5t-33.5 25t-43.5 12.5q-81 0 -165 -86t-139 -224t-55 -275q0 -69 18 -126.5t40 -84.5t39 -27q31 0 63.5 17.5t53.5 38
t39 38t24 17.5q4 0 4 -6q0 -10 -28.5 -47t-74 -73t-81.5 -36q-22 0 -60.5 27t-81 74.5t-73.5 128.5t-31 173q0 106 25.5 205t66.5 173t91.5 130.5t102.5 85.5t97 29q72 0 139 -47.5t113 -112.5q44 143 91 278.5t79 214.5t39 79q32 0 79.5 -37t47.5 -88q0 -3 -34 -99.5
t-82 -240.5t-96 -298.5t-82 -297.5t-34 -215q0 -28 6 -38.5t27 -10.5q42 0 104 65t112 143.5t90.5 143.5t45.5 65z" />
    <glyph glyph-name="e" unicode="e" horiz-adv-x="724" 
d="M768 528q0 -14 -32 -73.5t-88 -139.5t-120.5 -156t-140 -129t-137.5 -53q-30 0 -68.5 16.5t-78 48.5t-73 74.5t-54.5 101t-21 120.5q0 112 43 240t105.5 228.5t136 167t131.5 66.5q66 0 127 -25.5t99.5 -62t61.5 -74.5t23 -65q0 -66 -34.5 -122.5t-89.5 -95.5t-126 -68
t-141.5 -44.5t-138.5 -19.5q-43 -127 -43 -238q0 -86 23 -115.5t69 -29.5q68 0 148 46t147.5 112t126 132t97.5 112t48 46zM498 893q-72 0 -174.5 -124t-163.5 -288q77 6 146.5 28t129.5 60t95.5 99.5t35.5 138.5q0 31 -26 58.5t-43 27.5z" />
    <glyph glyph-name="f" unicode="f" horiz-adv-x="671" 
d="M705 526q0 -25 -71 -132.5t-159 -200.5q-12 -94 -65.5 -228.5t-126.5 -259t-164.5 -212t-169.5 -87.5q-12 0 -23.5 5t-26.5 23.5t-26 49.5t-19 88.5t-8 134.5q0 159 50 395t124 462.5t152.5 429.5t141 327.5t83.5 124.5q37 0 81 -53.5t44 -83.5q0 -9 -59 -140.5
t-143.5 -331.5t-169.5 -425t-144 -462t-59 -401q0 -51 47 -51q59 0 130 98t125 226t83 246q-67 -45 -125 -45q-47 0 -75 38.5t-28 100.5q0 46 29 105t80 104t102 45q61 0 108.5 -43.5t53.5 -116.5q33 30 68 70t61 74.5t48 65t35 46.5t16 14zM297 156q26 0 53 12l2 25
q0 44 -30.5 75t-67.5 31q-21 0 -21 -47q0 -19 4.5 -38.5t20 -38.5t39.5 -19z" />
    <glyph glyph-name="g" unicode="g" horiz-adv-x="972" 
d="M1001 526q0 -48 -95 -152t-242 -216q-225 -785 -269 -785q-29 0 -70 12.5t-86 39t-83 61.5t-63 85.5t-25 106.5q0 38 23.5 80t57.5 78t87.5 77.5t98.5 71t105 66.5q23 82 64.5 231t74.5 267.5t58 206.5q-10 4 -27 23.5t-33 39.5t-41 36.5t-51 16.5q-81 0 -165 -86
t-138.5 -224t-54.5 -275q0 -69 18 -126.5t39.5 -84.5t38.5 -27q31 0 63.5 17.5t53.5 38t39 38t24 17.5q5 0 5 -6q0 -10 -28.5 -47t-74.5 -73t-82 -36q-22 0 -60.5 27t-81 74.5t-73.5 128.5t-31 173q0 106 25.5 205t66.5 173t91.5 130.5t102.5 85.5t97 29q48 0 97 -23
t86.5 -58.5t65 -71.5t42.5 -68q69 239 86 239q47 0 85 -56t38 -99q0 -6 -24 -100t-68 -256t-90 -322q67 50 124.5 102t91 89.5t57.5 68t35.5 45t14.5 12.5zM262 -475q28 0 160 465q-156 -109 -231.5 -188.5t-75.5 -157.5q0 -38 42 -78.5t105 -40.5z" />
    <glyph glyph-name="h" unicode="h" horiz-adv-x="915" 
d="M940 528q0 -46 -108.5 -185t-240.5 -261.5t-188 -122.5q-14 0 -25 15.5t-11 35.5q0 56 44.5 207.5t89 314t44.5 244.5q0 27 -13.5 47.5t-31.5 20.5q-26 0 -66 -30.5t-92.5 -90.5t-83.5 -98.5t-82 -104.5q-194 -540 -223 -540q-24 0 -41.5 33.5t-17.5 82.5q0 81 102 427.5
t209.5 657t122.5 310.5q40 0 85.5 -48t45.5 -85q0 -18 -79 -254.5t-171 -489.5q55 73 114 140t128 134t136 107.5t118 40.5q35 0 52 -34t17 -89q0 -82 -44.5 -246t-89 -303t-44.5 -159q0 -17 10 -17q31 0 110 85t148.5 170t75.5 85z" />
    <glyph glyph-name="i" unicode="i" horiz-adv-x="430" 
d="M459 528q1 -14 -62 -141t-150 -255t-136 -128q-10 0 -30.5 10t-48.5 33.5t-52.5 55t-42 81.5t-17.5 107q0 92 66.5 285.5t136 345t84.5 151.5q32 0 82.5 -45.5t50.5 -83.5q0 -3 -27.5 -62t-66.5 -149.5t-78 -191.5t-66.5 -206t-27.5 -175q0 -28 5.5 -38.5t26.5 -10.5
q42 0 104 65t112 143.5t91 143.5t46 65zM557 1374q0 -12 -14.5 -22t-29.5 -14l-15 -5q16 -25 16 -43q0 -22 -25 -22q-60 0 -119 52t-59 112q0 28 35 43.5t70 15.5q47 0 94 -46t47 -71z" />
    <glyph glyph-name="j" unicode="j" horiz-adv-x="532" 
d="M434 1491q47 0 94 -46t47 -71q0 -12 -14.5 -22t-29.5 -14l-15 -5q16 -25 16 -43q0 -22 -24 -22q-60 0 -120 52t-60 112q0 28 35.5 43.5t70.5 15.5zM557 528q0 -50 -89.5 -156t-225.5 -216q-225 -783 -269 -783q-38 0 -82 18t-86 51t-70 90t-28 126q0 172 307 381l170 606
q-63 -76 -123 -135t-71 -59q-4 0 -4 8q0 13 30 55.5t71 95t90.5 134.5t80.5 159q47 139 57 139q47 0 85 -56t38 -99q0 -26 -182 -682q98 78 171 159.5t100.5 122.5t29.5 41zM-160 -475q26 0 158 452q-133 -98 -188.5 -181.5t-55.5 -172.5q0 -34 25.5 -66t60.5 -32z" />
    <glyph glyph-name="k" unicode="k" horiz-adv-x="933" 
d="M958 528q0 -8 -23.5 -52t-63 -107.5t-94.5 -135t-113 -133t-125 -101.5t-125 -40q-38 0 -80 42t-79.5 110.5t-68 139t-55.5 144.5q-153 -415 -176 -415q-24 0 -41.5 33.5t-17.5 82.5q0 81 102 427.5t209.5 657t122.5 310.5q40 0 85.5 -48t45.5 -85q0 -34 -174 -531
q97 97 189.5 162.5t148.5 65.5q41 0 76.5 -21.5t56.5 -51.5t33 -57.5t12 -43.5q0 -136 -144.5 -257t-359.5 -165q31 -73 56 -125t56 -107.5t61 -84.5t56 -29q59 0 136.5 65t136.5 142.5t106 142.5t51 65zM655 936q-52 0 -105 -22t-94.5 -53t-86 -78t-73 -83t-60.5 -82
q101 10 204.5 61.5t167.5 116.5t64 117q0 7 -5 15t-12 8z" />
    <glyph glyph-name="l" unicode="l" horiz-adv-x="454" 
d="M-61 203q0 140 84 460.5t171 575t103 254.5q31 0 78 -37t47 -88q0 -1 -83 -251.5t-166 -547t-83 -409.5q0 -28 6.5 -38.5t28.5 -10.5q86 1 328 377l26 38q0 -14 -64 -140t-151.5 -254t-136.5 -128q-17 0 -32.5 1.5t-46.5 12t-52.5 30t-39 59.5t-17.5 96z" />
    <glyph glyph-name="m" unicode="m" horiz-adv-x="1236" 
d="M1260 528q1 -46 -107 -185t-240 -261.5t-188 -122.5q-14 0 -26.5 15.5t-12.5 35.5q0 45 34 150.5t75.5 211.5t75.5 222.5t34 181.5q0 28 -13 48t-30 20q-58 0 -246 -307l-122 -387q-26 -86 -80 -138.5t-103 -52.5q-14 0 -26.5 15.5t-12.5 35.5q0 56 55 207.5t110 314
t55 244.5q0 28 -13 48t-30 20q-19 0 -49.5 -29t-71 -87t-65 -95.5t-64.5 -102.5q-22 -67 -68.5 -202.5t-60.5 -177.5q-26 -86 -80 -138.5t-103 -52.5q-14 0 -26.5 15.5t-12.5 35.5q0 56 59 224.5t118 341.5t59 239q0 55 41.5 107t87.5 79t72 27q41 0 41 -45q0 -5 -4 -51
q-7 -46 -86 -291q46 72 93 134.5t103.5 125t114 99t106.5 36.5q30 0 50 -28t20 -70q0 -17 -2 -25q-6 -42 -43 -168l-6 -22l-4 -12t-4 -15l-17 -57q46 72 93.5 135t104.5 125.5t114.5 99.5t105.5 37q35 0 52.5 -34.5t17.5 -88.5q0 -82 -54.5 -246t-108.5 -303t-54 -159
q0 -17 10 -17q31 0 110 85t148 170t74 85z" />
    <glyph glyph-name="n" unicode="n" horiz-adv-x="876" 
d="M913 528q0 -46 -108.5 -185t-240 -261.5t-187.5 -122.5q-14 0 -25.5 15.5t-11.5 35.5q0 56 44.5 207.5t89 314t44.5 244.5q0 27 -13.5 47.5t-31.5 20.5q-67 0 -258 -240q-38 -121 -77.5 -226t-86.5 -204.5t-96 -157t-92 -57.5q-29 0 -29 47q0 46 128 421t128 425
q0 17 33.5 59t83 79.5t84.5 37.5q28 0 28 -45q0 -5 -9 -42.5t-28.5 -109t-41.5 -145.5q119 147 236.5 248.5t201.5 101.5q35 0 52.5 -34.5t17.5 -88.5q0 -82 -45 -246t-89.5 -303t-44.5 -159q0 -17 11 -17q31 0 110 85t148 170t75 85z" />
    <glyph glyph-name="o" unicode="o" horiz-adv-x="909" 
d="M944 526q0 -6 -15 -33.5t-48 -69t-76.5 -80.5t-110.5 -69.5t-141 -35.5q-92 -113 -180.5 -182.5t-147.5 -69.5q-112 0 -184 97.5t-72 258.5q0 134 43.5 297.5t96 269t81.5 105.5q36 0 72.5 -42t36.5 -87q0 -6 -19.5 -44.5t-47 -101.5t-55 -140t-47 -179.5t-19.5 -200.5
q0 -87 25.5 -117t76.5 -30q104 0 238 172q-113 21 -166.5 103t-53.5 208q0 77 45.5 162.5t114.5 152.5t157 111.5t167 44.5q57 0 86.5 -43t29.5 -113q0 -121 -58 -263t-152 -279q12 -4 41 -4q46 0 89 21t73 51t54 59.5t41 50.5t25 20zM381 639q0 -70 42 -150t109 -124
q64 106 105 214.5t41 174.5q0 118 -90 118q-81 0 -144 -69.5t-63 -163.5z" />
    <glyph glyph-name="p" unicode="p" horiz-adv-x="804" 
d="M840 528q1 -46 -107 -185t-240 -261.5t-188 -122.5q-15 0 -27 15.5t-12 35.5q0 45 34 150.5t75.5 211.5t75.5 222.5t34 181.5q0 27 -13.5 47.5t-29.5 20.5q-55 0 -231 -283q-131 -415 -254.5 -774.5t-144.5 -359.5q-24 0 -41 33.5t-17 82.5q0 81 101 456t207.5 713.5
t121.5 338.5q40 0 85.5 -49t45.5 -87q0 -21 -73 -253q47 70 93 130.5t100.5 118.5t109 91.5t100.5 33.5q35 0 52.5 -34.5t17.5 -88.5q0 -64 -34 -181.5t-75.5 -222t-75.5 -195.5t-34 -109q0 -17 12 -17q30 0 109 85t148.5 170t74.5 85z" />
    <glyph glyph-name="q" unicode="q" horiz-adv-x="1003" 
d="M1040 526q0 -31 -87.5 -175t-192.5 -273q-20 -25 -87 -106.5t-92.5 -114t-62.5 -85t-55 -89.5q-93 -256 -109 -256q-24 0 -41.5 33.5t-17.5 82.5q0 85 107.5 477t218.5 742q-7 6 -32.5 38t-52.5 52t-57 20q-81 0 -165 -86t-138.5 -224t-54.5 -275q0 -69 18 -126.5
t39.5 -84.5t38.5 -27q31 0 63.5 17.5t53.5 38t39 38t24 17.5q4 0 4 -6q0 -10 -28.5 -47t-74 -73t-81.5 -36q-22 0 -60.5 27t-81 74.5t-73.5 128.5t-31 173q0 106 25.5 205t66.5 173t91.5 130.5t102.5 85.5t97 29q87 0 166 -67t119 -142q75 236 88 236q40 0 85.5 -49
t45.5 -87q0 -17 -82.5 -281t-181.5 -566q30 23 77.5 57.5t53.5 38.5q63 46 116 101t84 99.5t54.5 82.5t37.5 59t23 20z" />
    <glyph glyph-name="r" unicode="r" horiz-adv-x="663" 
d="M700 528q0 -22 -96.5 -164t-214.5 -278.5t-164 -136.5q-24 0 -37.5 13.5t-13.5 37.5q0 56 66.5 232t66.5 235q0 17 -4.5 32.5t-16 31t-21 26.5t-30 27t-31 24t-35.5 25.5t-34 23.5q-53 -88 -96 -147t-53 -59q-4 0 -4 8q0 5 16 33.5t51 87t57 96.5q-94 72 -94 131
q0 57 51 131.5t110.5 124t88.5 49.5q23 0 34 -18.5t11 -46.5q0 -69 -84 -230q21 -11 61 -28.5t68.5 -31.5t59 -34.5t47 -49.5t16.5 -65q0 -73 -34.5 -191t-68.5 -211.5t-34 -107.5q0 -18 12 -18q9 0 171 224t179 224zM164 897q0 -31 31 -59q38 71 38 104q0 51 -20 51
q-14 0 -31.5 -33.5t-17.5 -62.5z" />
    <glyph glyph-name="s" unicode="s" horiz-adv-x="602" 
d="M635 526q0 -7 -18 -40.5t-55 -86t-79 -96.5q-12 -67 -55 -134t-95 -113.5t-103 -75.5t-83 -29q-53 0 -53 49q0 104 250 264q-3 75 -33 141.5t-85 145.5t-74 115q-55 -88 -102 -151.5t-58 -63.5q-2 0 -2 8q0 10 143 246q-27 66 -27 126q0 58 15.5 105t37.5 74t48 45.5
t44.5 25t29.5 6.5q21 0 33 -13t12 -32q0 -52 -72 -200q15 -21 54 -74.5t63.5 -90.5t54 -90.5t45 -109t16.5 -112.5q10 10 43.5 51.5t63.5 75t41 34.5zM201 965q0 -38 28 -86q31 67 31 86q0 47 -22 47q-19 0 -28 -16t-9 -31zM203 43q8 0 32 16t54.5 50.5t44.5 74.5l-49 -34
q-87 -59 -97 -75q-4 -5 -4 -9q0 -23 19 -23z" />
    <glyph glyph-name="t" unicode="t" horiz-adv-x="466" 
d="M418 1311h22q16 0 58.5 -30t80 -74t37.5 -74q0 -14 -9 -23.5t-19 -9.5q-90 0 -238 4q-246 -756 -246 -944q0 -28 6.5 -38.5t28.5 -10.5q86 1 329 376l26 39q0 -8 -40.5 -89t-94.5 -178.5t-117 -176t-101 -78.5q-17 0 -32.5 1.5t-46.5 12t-52.5 30t-39 59.5t-17.5 96
q0 125 64 381t151 526q-158 9 -248 27t-90 41q0 12 121.5 42t271.5 58q75 215 88 215q31 0 78 -37t47 -88q0 -8 -18 -57z" />
    <glyph glyph-name="u" unicode="u" horiz-adv-x="929" 
d="M952 528q0 -15 -73 -158.5t-167 -287t-137 -143.5q-89 0 -137.5 62t-58.5 157q-162 -211 -270 -211q-97 0 -149 73.5t-52 184.5q0 73 20 137q60 196 84 273t65.5 206.5t60 179.5t24.5 50q40 0 85.5 -49t45.5 -87q0 -16 -72 -249.5t-158 -493.5q-16 -47 -16 -78
q0 -26 14 -26q19 0 42 9t49.5 29t48 37t53.5 50t49 50.5t50.5 54.5t43.5 48q15 48 36 116.5t35 113.5t32 102.5t30 95.5t25.5 81t23 69.5t18 49.5t13.5 33.5t8 10.5q40 0 86 -49t46 -86q0 -11 -187 -604l-33 -107q-14 -43 -14 -72q0 -28 19 -28q47 0 120 71t133.5 157
t109.5 157t54 71z" />
    <glyph glyph-name="v" unicode="v" horiz-adv-x="858" 
d="M893 545q1 -18 -25 -60t-65.5 -87.5t-95.5 -80t-107 -34.5q-92 0 -164 82q-122 -156 -230.5 -272t-133.5 -116q-28 0 -71.5 48t-43.5 94q0 57 21.5 379t21.5 473q0 7 7 13.5t18 6.5q41 0 91 -56t50 -81q0 -63 -13 -360t-28 -392q139 148 268 320q-57 99 -57 211
q0 86 44 176.5t118.5 151.5t152.5 61q52 0 77.5 -26.5t25.5 -71.5q0 -118 -205 -410q63 -100 156 -100q35 0 70 20.5t57 45t39.5 45t21.5 20.5zM485 737q0 -75 27 -145q104 167 104 260v8q-3 64 -38 64q-28 0 -60.5 -53.5t-32.5 -133.5z" />
    <glyph glyph-name="w" unicode="w" horiz-adv-x="1247" 
d="M1290 528q1 -14 -36 -85t-91 -140.5t-88 -69.5q-72 0 -84 170q-222 -426 -266 -426q-26 0 -75 61.5t-104 168.5t-91 219q-114 -170 -231.5 -309.5t-145.5 -139.5t-71.5 48t-43.5 94q0 57 21.5 379t21.5 473q0 7 7.5 13.5t19.5 6.5q40 0 89.5 -56t49.5 -81
q0 -71 -12.5 -364t-28.5 -388q170 215 295 428q-20 92 -20 166q0 71 21.5 130t53 91.5t62 50t53.5 17.5q38 0 59 -26.5t21 -65.5q0 -102 -131 -324q23 -152 57.5 -300t46.5 -148q11 0 115 216t210.5 432t123.5 216q28 0 75.5 -45.5t47.5 -71.5q0 -4 -42 -94l-42 -90
q-95 -193 -95 -352q0 -18 2 -32.5t4.5 -21t4.5 -6.5q26 0 82 64t103 128t52 64zM526 762v-27q29 76 29 125q0 12 -8 12q-9 0 -15 -33t-6 -77z" />
    <glyph glyph-name="x" unicode="x" horiz-adv-x="1007" 
d="M1057 569q1 -16 -96.5 -167.5t-207 -298t-135.5 -146.5q-18 0 -190 412q-409 -398 -426 -398q-25 0 -48.5 38t-23.5 57q0 8 7 8q4 0 10 -5t10 -11l4 -5q199 229 406 465l-134 334q-207 -360 -225 -360q-2 0 -2 8q0 11 71 147t152.5 270t102.5 134q19 0 174 -373
q311 348 328 348q42 0 79 -45.5t37 -77.5q0 -10 -110 -124.5t-265 -266.5l146 -356q324 413 336 413z" />
    <glyph glyph-name="y" unicode="y" horiz-adv-x="831" 
d="M870 526q0 -47 -90 -153.5t-227 -216.5q-225 -783 -266 -783q-38 0 -83 18t-87.5 51t-70.5 90t-28 126q0 173 310 381q6 29 16 63q-133 -155 -225 -155q-97 0 -149 73.5t-52 184.5q0 69 21 137q188 610 219 685q10 24 14 24q40 0 85.5 -49t45.5 -87q0 -16 -72 -251
t-157 -492q-17 -50 -17 -78q0 -26 15 -26q20 0 43 9t51.5 31t49 38t55.5 52.5t48.5 51t51.5 57t43 47.5q51 183 74 265t58.5 203t54 170.5t26.5 49.5q47 0 85 -56t38 -99q0 -6 -24.5 -101t-68.5 -257t-90 -324q62 49 115.5 101.5t85 90.5t54.5 69.5t34 46.5t14 13zM152 -475
q29 0 157 452q-133 -98 -188 -181.5t-55 -172.5q0 -34 26 -66t60 -32z" />
    <glyph glyph-name="z" unicode="z" horiz-adv-x="710" 
d="M760 526q0 -13 -54.5 -100t-141 -205t-156.5 -192q-14 -18 -64 -68q4 -20 4 -61q0 -90 -27.5 -185.5t-67 -165.5t-83 -115.5t-74.5 -45.5q-32 0 -57.5 11t-41 28t-25.5 39.5t-13.5 43t-3.5 41.5q0 102 242 340v72q-30 -12 -52 -12q-54 0 -92.5 32.5t-38.5 75.5
q0 67 45.5 118.5t94.5 51.5q35 0 72 -30.5t67 -81.5q49 60 49 131q0 62 -21.5 123.5t-47.5 102t-65 98.5t-58 94q-55 -88 -102 -151.5t-58 -63.5q-2 0 -2 8q0 10 143 246q-27 66 -27 126q0 58 15.5 105t37.5 74t48 45.5t44.5 25t29.5 6.5q21 0 33 -13t12 -32q0 -52 -72 -200
q15 -23 54.5 -76t64.5 -91.5t54.5 -93t44.5 -111t15 -114.5q0 -83 -45.5 -163.5t-115.5 -143.5l8 -31q6 6 27 26t30 30q47 44 100.5 108.5t96.5 122.5t80 110t62 82.5t32 28.5zM199 965q0 -38 28 -86q31 67 31 86q0 47 -22 47q-19 0 -28 -16t-9 -31zM102 109q0 -19 27.5 -39
t58.5 -25q-16 113 -59 113q-27 0 -27 -49zM121 -467q25 0 45.5 82.5t28.5 191.5q-121 -128 -121 -174q0 -35 14.5 -67.5t32.5 -32.5z" />
    <glyph glyph-name="braceleft" unicode="{" 
d="M1675 391q44 0 87 40t64 80l21 40q-3 -9 -8.5 -24t-26 -54t-45.5 -70t-67 -58.5t-90 -33.5q-114 -112 -265 -174.5t-317 -62.5q-169 0 -322.5 65.5t-264.5 176t-176.5 264t-65.5 321.5q0 70 14 156q-64 -47 -127 -109q12 21 27.5 46t56 80.5t84 104.5t109 106.5t133 98
t154.5 68t175 27.5q113 0 113 -66q0 -44 -51 -126t-123.5 -176.5t-145 -195t-123.5 -207.5t-51 -188q0 -59 35.5 -98t91.5 -39q49 0 89 37.5t40 79.5q0 10 -10 10q-6 -2 -22 -2q-60 0 -60 74q0 59 43 149.5t104.5 183.5t123 184.5t104.5 174.5t43 131q0 56 -42 95.5
t-122 39.5q-171 0 -322 -82.5t-270 -216.5q100 220 304 355t454 135q135 0 261 -42t228 -118.5t178.5 -178.5t118 -229t41.5 -262q0 -221 -110 -414q-27 -10 -43 -10q-62 0 -98.5 41.5t-57.5 114.5q127 139 215 295q6 12 6 18t-4 6q-8 0 -16 -16q-80 -147 -211 -266
q-6 26 -15.5 71t-15.5 72.5t-17.5 62t-24 54t-33.5 33.5t-48 14t-50 -11t-37.5 -29.5t-23 -33.5t-14.5 -31q0 -8 7 -8q40 0 72.5 -14t54 -33.5t41.5 -54t31 -61.5t26 -70q-183 -142 -336 -142q-135 0 -135 199q0 162 86 402q64 4 319.5 30.5t345.5 26.5q23 0 23 10
q0 8 -20 8q-101 0 -286.5 1t-350.5 1q39 96 76.5 157.5t58.5 61.5q14 0 14 -38q0 -13 12 -13t19.5 8t7.5 19q0 17 -16.5 32t-44.5 15q-36 0 -92 -67.5t-113 -174.5h-66q-41 0 -41 -22q0 -16 18 -31.5t50 -21.5q-123 -264 -123 -461q0 -250 221 -250q180 0 387 207
q16 -46 28.5 -75t33 -60.5t48 -46.5t62.5 -15z" />
    <glyph glyph-name="bar" unicode="|" 
d="M1675 391q44 0 87 40t64 80l21 40q-3 -9 -8.5 -24t-26 -54t-45.5 -70t-67 -58.5t-90 -33.5q-114 -112 -265 -174.5t-317 -62.5q-169 0 -322.5 65.5t-264.5 176t-176.5 264t-65.5 321.5q0 70 14 156q-64 -47 -127 -109q12 21 27.5 46t56 80.5t84 104.5t109 106.5t133 98
t154.5 68t175 27.5q113 0 113 -66q0 -44 -51 -126t-123.5 -176.5t-145 -195t-123.5 -207.5t-51 -188q0 -59 35.5 -98t91.5 -39q49 0 89 37.5t40 79.5q0 10 -10 10q-6 -2 -22 -2q-60 0 -60 74q0 59 43 149.5t104.5 183.5t123 184.5t104.5 174.5t43 131q0 56 -42 95.5
t-122 39.5q-171 0 -322 -82.5t-270 -216.5q100 220 304 355t454 135q135 0 261 -42t228 -118.5t178.5 -178.5t118 -229t41.5 -262q0 -221 -110 -414q-27 -10 -43 -10q-62 0 -98.5 41.5t-57.5 114.5q127 139 215 295q6 12 6 18t-4 6q-8 0 -16 -16q-80 -147 -211 -266
q-6 26 -15.5 71t-15.5 72.5t-17.5 62t-24 54t-33.5 33.5t-48 14t-50 -11t-37.5 -29.5t-23 -33.5t-14.5 -31q0 -8 7 -8q40 0 72.5 -14t54 -33.5t41.5 -54t31 -61.5t26 -70q-183 -142 -336 -142q-135 0 -135 199q0 162 86 402q64 4 319.5 30.5t345.5 26.5q23 0 23 10
q0 8 -20 8q-101 0 -286.5 1t-350.5 1q39 96 76.5 157.5t58.5 61.5q14 0 14 -38q0 -13 12 -13t19.5 8t7.5 19q0 17 -16.5 32t-44.5 15q-36 0 -92 -67.5t-113 -174.5h-66q-41 0 -41 -22q0 -16 18 -31.5t50 -21.5q-123 -264 -123 -461q0 -250 221 -250q180 0 387 207
q16 -46 28.5 -75t33 -60.5t48 -46.5t62.5 -15z" />
    <glyph glyph-name="braceright" unicode="}" 
d="M1675 391q44 0 87 40t64 80l21 40q-3 -9 -8.5 -24t-26 -54t-45.5 -70t-67 -58.5t-90 -33.5q-114 -112 -265 -174.5t-317 -62.5q-169 0 -322.5 65.5t-264.5 176t-176.5 264t-65.5 321.5q0 70 14 156q-64 -47 -127 -109q12 21 27.5 46t56 80.5t84 104.5t109 106.5t133 98
t154.5 68t175 27.5q113 0 113 -66q0 -44 -51 -126t-123.5 -176.5t-145 -195t-123.5 -207.5t-51 -188q0 -59 35.5 -98t91.5 -39q49 0 89 37.5t40 79.5q0 10 -10 10q-6 -2 -22 -2q-60 0 -60 74q0 59 43 149.5t104.5 183.5t123 184.5t104.5 174.5t43 131q0 56 -42 95.5
t-122 39.5q-171 0 -322 -82.5t-270 -216.5q100 220 304 355t454 135q135 0 261 -42t228 -118.5t178.5 -178.5t118 -229t41.5 -262q0 -221 -110 -414q-27 -10 -43 -10q-62 0 -98.5 41.5t-57.5 114.5q127 139 215 295q6 12 6 18t-4 6q-8 0 -16 -16q-80 -147 -211 -266
q-6 26 -15.5 71t-15.5 72.5t-17.5 62t-24 54t-33.5 33.5t-48 14t-50 -11t-37.5 -29.5t-23 -33.5t-14.5 -31q0 -8 7 -8q40 0 72.5 -14t54 -33.5t41.5 -54t31 -61.5t26 -70q-183 -142 -336 -142q-135 0 -135 199q0 162 86 402q64 4 319.5 30.5t345.5 26.5q23 0 23 10
q0 8 -20 8q-101 0 -286.5 1t-350.5 1q39 96 76.5 157.5t58.5 61.5q14 0 14 -38q0 -13 12 -13t19.5 8t7.5 19q0 17 -16.5 32t-44.5 15q-36 0 -92 -67.5t-113 -174.5h-66q-41 0 -41 -22q0 -16 18 -31.5t50 -21.5q-123 -264 -123 -461q0 -250 221 -250q180 0 387 207
q16 -46 28.5 -75t33 -60.5t48 -46.5t62.5 -15z" />
    <glyph glyph-name="asciitilde" unicode="~" 
d="M1675 391q44 0 87 40t64 80l21 40q-3 -9 -8.5 -24t-26 -54t-45.5 -70t-67 -58.5t-90 -33.5q-114 -112 -265 -174.5t-317 -62.5q-169 0 -322.5 65.5t-264.5 176t-176.5 264t-65.5 321.5q0 70 14 156q-64 -47 -127 -109q12 21 27.5 46t56 80.5t84 104.5t109 106.5t133 98
t154.5 68t175 27.5q113 0 113 -66q0 -44 -51 -126t-123.5 -176.5t-145 -195t-123.5 -207.5t-51 -188q0 -59 35.5 -98t91.5 -39q49 0 89 37.5t40 79.5q0 10 -10 10q-6 -2 -22 -2q-60 0 -60 74q0 59 43 149.5t104.5 183.5t123 184.5t104.5 174.5t43 131q0 56 -42 95.5
t-122 39.5q-171 0 -322 -82.5t-270 -216.5q100 220 304 355t454 135q135 0 261 -42t228 -118.5t178.5 -178.5t118 -229t41.5 -262q0 -221 -110 -414q-27 -10 -43 -10q-62 0 -98.5 41.5t-57.5 114.5q127 139 215 295q6 12 6 18t-4 6q-8 0 -16 -16q-80 -147 -211 -266
q-6 26 -15.5 71t-15.5 72.5t-17.5 62t-24 54t-33.5 33.5t-48 14t-50 -11t-37.5 -29.5t-23 -33.5t-14.5 -31q0 -8 7 -8q40 0 72.5 -14t54 -33.5t41.5 -54t31 -61.5t26 -70q-183 -142 -336 -142q-135 0 -135 199q0 162 86 402q64 4 319.5 30.5t345.5 26.5q23 0 23 10
q0 8 -20 8q-101 0 -286.5 1t-350.5 1q39 96 76.5 157.5t58.5 61.5q14 0 14 -38q0 -13 12 -13t19.5 8t7.5 19q0 17 -16.5 32t-44.5 15q-36 0 -92 -67.5t-113 -174.5h-66q-41 0 -41 -22q0 -16 18 -31.5t50 -21.5q-123 -264 -123 -461q0 -250 221 -250q180 0 387 207
q16 -46 28.5 -75t33 -60.5t48 -46.5t62.5 -15z" />
    <glyph glyph-name="uni00A0" unicode="&#xa0;" horiz-adv-x="0" 
 />
    <glyph glyph-name="exclamdown" unicode="&#xa1;" 
d="M1675 391q44 0 87 40t64 80l21 40q-3 -9 -8.5 -24t-26 -54t-45.5 -70t-67 -58.5t-90 -33.5q-114 -112 -265 -174.5t-317 -62.5q-169 0 -322.5 65.5t-264.5 176t-176.5 264t-65.5 321.5q0 70 14 156q-64 -47 -127 -109q12 21 27.5 46t56 80.5t84 104.5t109 106.5t133 98
t154.5 68t175 27.5q113 0 113 -66q0 -44 -51 -126t-123.5 -176.5t-145 -195t-123.5 -207.5t-51 -188q0 -59 35.5 -98t91.5 -39q49 0 89 37.5t40 79.5q0 10 -10 10q-6 -2 -22 -2q-60 0 -60 74q0 59 43 149.5t104.5 183.5t123 184.5t104.5 174.5t43 131q0 56 -42 95.5
t-122 39.5q-171 0 -322 -82.5t-270 -216.5q100 220 304 355t454 135q135 0 261 -42t228 -118.5t178.5 -178.5t118 -229t41.5 -262q0 -221 -110 -414q-27 -10 -43 -10q-62 0 -98.5 41.5t-57.5 114.5q127 139 215 295q6 12 6 18t-4 6q-8 0 -16 -16q-80 -147 -211 -266
q-6 26 -15.5 71t-15.5 72.5t-17.5 62t-24 54t-33.5 33.5t-48 14t-50 -11t-37.5 -29.5t-23 -33.5t-14.5 -31q0 -8 7 -8q40 0 72.5 -14t54 -33.5t41.5 -54t31 -61.5t26 -70q-183 -142 -336 -142q-135 0 -135 199q0 162 86 402q64 4 319.5 30.5t345.5 26.5q23 0 23 10
q0 8 -20 8q-101 0 -286.5 1t-350.5 1q39 96 76.5 157.5t58.5 61.5q14 0 14 -38q0 -13 12 -13t19.5 8t7.5 19q0 17 -16.5 32t-44.5 15q-36 0 -92 -67.5t-113 -174.5h-66q-41 0 -41 -22q0 -16 18 -31.5t50 -21.5q-123 -264 -123 -461q0 -250 221 -250q180 0 387 207
q16 -46 28.5 -75t33 -60.5t48 -46.5t62.5 -15z" />
    <glyph glyph-name="cent" unicode="&#xa2;" 
d="M1382 526q0 -13 -32 -72.5t-88 -139t-120.5 -155.5t-140 -129t-137.5 -53q-30 0 -68.5 16.5t-78 48.5t-73 74.5t-54.5 101t-21 120.5q0 112 43 240t105.5 228.5t136 167t131.5 66.5q53 0 113.5 -36.5t97.5 -80.5t37 -69q0 -8 -7.5 -13t-13.5 -5t-18.5 14t-33.5 28.5
t-48 14.5q-49 0 -116.5 -63.5t-128 -158.5t-102.5 -217.5t-42 -228.5q0 -86 23 -115.5t69 -29.5q68 0 148.5 46.5t148 112.5t126 132t97.5 111t47 44zM1675 391q44 0 87 40t64 80l21 40q-3 -9 -8.5 -24t-26 -54t-45.5 -70t-67 -58.5t-90 -33.5q-114 -112 -265 -174.5
t-317 -62.5q-169 0 -322.5 65.5t-264.5 176t-176.5 264t-65.5 321.5q0 70 14 156q-64 -47 -127 -109q12 21 27.5 46t56 80.5t84 104.5t109 106.5t133 98t154.5 68t175 27.5q113 0 113 -66q0 -44 -51 -126t-123.5 -176.5t-145 -195t-123.5 -207.5t-51 -188q0 -59 35.5 -98
t91.5 -39q49 0 89 37.5t40 79.5q0 10 -10 10q-6 -2 -22 -2q-60 0 -60 74q0 59 43 149.5t104.5 183.5t123 184.5t104.5 174.5t43 131q0 56 -42 95.5t-122 39.5q-171 0 -322 -82.5t-270 -216.5q100 220 304 355t454 135q135 0 261 -42t228 -118.5t178.5 -178.5t118 -229
t41.5 -262q0 -221 -110 -414q-27 -10 -43 -10q-62 0 -98.5 41.5t-57.5 114.5q127 139 215 295q6 12 6 18t-4 6q-8 0 -16 -16q-80 -147 -211 -266q-6 26 -15.5 71t-15.5 72.5t-17.5 62t-24 54t-33.5 33.5t-48 14t-50 -11t-37.5 -29.5t-23 -33.5t-14.5 -31q0 -8 7 -8
q40 0 72.5 -14t54 -33.5t41.5 -54t31 -61.5t26 -70q-183 -142 -336 -142q-135 0 -135 199q0 162 86 402q64 4 319.5 30.5t345.5 26.5q23 0 23 10q0 8 -20 8q-101 0 -286.5 1t-350.5 1q39 96 76.5 157.5t58.5 61.5q14 0 14 -38q0 -13 12 -13t19.5 8t7.5 19q0 17 -16.5 32
t-44.5 15q-36 0 -92 -67.5t-113 -174.5h-66q-41 0 -41 -22q0 -16 18 -31.5t50 -21.5q-123 -264 -123 -461q0 -250 221 -250q180 0 387 207q16 -46 28.5 -75t33 -60.5t48 -46.5t62.5 -15z" />
    <glyph glyph-name="sterling" unicode="&#xa3;" 
d="M1675 391q44 0 87 40t64 80l21 40q-3 -9 -8.5 -24t-26 -54t-45.5 -70t-67 -58.5t-90 -33.5q-114 -112 -265 -174.5t-317 -62.5q-169 0 -322.5 65.5t-264.5 176t-176.5 264t-65.5 321.5q0 70 14 156q-64 -47 -127 -109q12 21 27.5 46t56 80.5t84 104.5t109 106.5t133 98
t154.5 68t175 27.5q113 0 113 -66q0 -44 -51 -126t-123.5 -176.5t-145 -195t-123.5 -207.5t-51 -188q0 -59 35.5 -98t91.5 -39q49 0 89 37.5t40 79.5q0 10 -10 10q-6 -2 -22 -2q-60 0 -60 74q0 59 43 149.5t104.5 183.5t123 184.5t104.5 174.5t43 131q0 56 -42 95.5
t-122 39.5q-171 0 -322 -82.5t-270 -216.5q100 220 304 355t454 135q135 0 261 -42t228 -118.5t178.5 -178.5t118 -229t41.5 -262q0 -221 -110 -414q-27 -10 -43 -10q-62 0 -98.5 41.5t-57.5 114.5q127 139 215 295q6 12 6 18t-4 6q-8 0 -16 -16q-80 -147 -211 -266
q-6 26 -15.5 71t-15.5 72.5t-17.5 62t-24 54t-33.5 33.5t-48 14t-50 -11t-37.5 -29.5t-23 -33.5t-14.5 -31q0 -8 7 -8q40 0 72.5 -14t54 -33.5t41.5 -54t31 -61.5t26 -70q-183 -142 -336 -142q-135 0 -135 199q0 162 86 402q64 4 319.5 30.5t345.5 26.5q23 0 23 10
q0 8 -20 8q-101 0 -286.5 1t-350.5 1q39 96 76.5 157.5t58.5 61.5q14 0 14 -38q0 -13 12 -13t19.5 8t7.5 19q0 17 -16.5 32t-44.5 15q-36 0 -92 -67.5t-113 -174.5h-66q-41 0 -41 -22q0 -16 18 -31.5t50 -21.5q-123 -264 -123 -461q0 -250 221 -250q180 0 387 207
q16 -46 28.5 -75t33 -60.5t48 -46.5t62.5 -15z" />
    <glyph glyph-name="currency" unicode="&#xa4;" 
d="M1675 391q44 0 87 40t64 80l21 40q-3 -9 -8.5 -24t-26 -54t-45.5 -70t-67 -58.5t-90 -33.5q-114 -112 -265 -174.5t-317 -62.5q-169 0 -322.5 65.5t-264.5 176t-176.5 264t-65.5 321.5q0 70 14 156q-64 -47 -127 -109q12 21 27.5 46t56 80.5t84 104.5t109 106.5t133 98
t154.5 68t175 27.5q113 0 113 -66q0 -44 -51 -126t-123.5 -176.5t-145 -195t-123.5 -207.5t-51 -188q0 -59 35.5 -98t91.5 -39q49 0 89 37.5t40 79.5q0 10 -10 10q-6 -2 -22 -2q-60 0 -60 74q0 59 43 149.5t104.5 183.5t123 184.5t104.5 174.5t43 131q0 56 -42 95.5
t-122 39.5q-171 0 -322 -82.5t-270 -216.5q100 220 304 355t454 135q135 0 261 -42t228 -118.5t178.5 -178.5t118 -229t41.5 -262q0 -221 -110 -414q-27 -10 -43 -10q-62 0 -98.5 41.5t-57.5 114.5q127 139 215 295q6 12 6 18t-4 6q-8 0 -16 -16q-80 -147 -211 -266
q-6 26 -15.5 71t-15.5 72.5t-17.5 62t-24 54t-33.5 33.5t-48 14t-50 -11t-37.5 -29.5t-23 -33.5t-14.5 -31q0 -8 7 -8q40 0 72.5 -14t54 -33.5t41.5 -54t31 -61.5t26 -70q-183 -142 -336 -142q-135 0 -135 199q0 162 86 402q64 4 319.5 30.5t345.5 26.5q23 0 23 10
q0 8 -20 8q-101 0 -286.5 1t-350.5 1q39 96 76.5 157.5t58.5 61.5q14 0 14 -38q0 -13 12 -13t19.5 8t7.5 19q0 17 -16.5 32t-44.5 15q-36 0 -92 -67.5t-113 -174.5h-66q-41 0 -41 -22q0 -16 18 -31.5t50 -21.5q-123 -264 -123 -461q0 -250 221 -250q180 0 387 207
q16 -46 28.5 -75t33 -60.5t48 -46.5t62.5 -15z" />
    <glyph glyph-name="yen" unicode="&#xa5;" 
d="M1675 391q44 0 87 40t64 80l21 40q-3 -9 -8.5 -24t-26 -54t-45.5 -70t-67 -58.5t-90 -33.5q-114 -112 -265 -174.5t-317 -62.5q-169 0 -322.5 65.5t-264.5 176t-176.5 264t-65.5 321.5q0 70 14 156q-64 -47 -127 -109q12 21 27.5 46t56 80.5t84 104.5t109 106.5t133 98
t154.5 68t175 27.5q113 0 113 -66q0 -44 -51 -126t-123.5 -176.5t-145 -195t-123.5 -207.5t-51 -188q0 -59 35.5 -98t91.5 -39q49 0 89 37.5t40 79.5q0 10 -10 10q-6 -2 -22 -2q-60 0 -60 74q0 59 43 149.5t104.5 183.5t123 184.5t104.5 174.5t43 131q0 56 -42 95.5
t-122 39.5q-171 0 -322 -82.5t-270 -216.5q100 220 304 355t454 135q135 0 261 -42t228 -118.5t178.5 -178.5t118 -229t41.5 -262q0 -221 -110 -414q-27 -10 -43 -10q-62 0 -98.5 41.5t-57.5 114.5q127 139 215 295q6 12 6 18t-4 6q-8 0 -16 -16q-80 -147 -211 -266
q-6 26 -15.5 71t-15.5 72.5t-17.5 62t-24 54t-33.5 33.5t-48 14t-50 -11t-37.5 -29.5t-23 -33.5t-14.5 -31q0 -8 7 -8q40 0 72.5 -14t54 -33.5t41.5 -54t31 -61.5t26 -70q-183 -142 -336 -142q-135 0 -135 199q0 162 86 402q64 4 319.5 30.5t345.5 26.5q23 0 23 10
q0 8 -20 8q-101 0 -286.5 1t-350.5 1q39 96 76.5 157.5t58.5 61.5q14 0 14 -38q0 -13 12 -13t19.5 8t7.5 19q0 17 -16.5 32t-44.5 15q-36 0 -92 -67.5t-113 -174.5h-66q-41 0 -41 -22q0 -16 18 -31.5t50 -21.5q-123 -264 -123 -461q0 -250 221 -250q180 0 387 207
q16 -46 28.5 -75t33 -60.5t48 -46.5t62.5 -15z" />
    <glyph glyph-name="brokenbar" unicode="&#xa6;" 
d="M1675 391q44 0 87 40t64 80l21 40q-3 -9 -8.5 -24t-26 -54t-45.5 -70t-67 -58.5t-90 -33.5q-114 -112 -265 -174.5t-317 -62.5q-169 0 -322.5 65.5t-264.5 176t-176.5 264t-65.5 321.5q0 70 14 156q-64 -47 -127 -109q12 21 27.5 46t56 80.5t84 104.5t109 106.5t133 98
t154.5 68t175 27.5q113 0 113 -66q0 -44 -51 -126t-123.5 -176.5t-145 -195t-123.5 -207.5t-51 -188q0 -59 35.5 -98t91.5 -39q49 0 89 37.5t40 79.5q0 10 -10 10q-6 -2 -22 -2q-60 0 -60 74q0 59 43 149.5t104.5 183.5t123 184.5t104.5 174.5t43 131q0 56 -42 95.5
t-122 39.5q-171 0 -322 -82.5t-270 -216.5q100 220 304 355t454 135q135 0 261 -42t228 -118.5t178.5 -178.5t118 -229t41.5 -262q0 -221 -110 -414q-27 -10 -43 -10q-62 0 -98.5 41.5t-57.5 114.5q127 139 215 295q6 12 6 18t-4 6q-8 0 -16 -16q-80 -147 -211 -266
q-6 26 -15.5 71t-15.5 72.5t-17.5 62t-24 54t-33.5 33.5t-48 14t-50 -11t-37.5 -29.5t-23 -33.5t-14.5 -31q0 -8 7 -8q40 0 72.5 -14t54 -33.5t41.5 -54t31 -61.5t26 -70q-183 -142 -336 -142q-135 0 -135 199q0 162 86 402q64 4 319.5 30.5t345.5 26.5q23 0 23 10
q0 8 -20 8q-101 0 -286.5 1t-350.5 1q39 96 76.5 157.5t58.5 61.5q14 0 14 -38q0 -13 12 -13t19.5 8t7.5 19q0 17 -16.5 32t-44.5 15q-36 0 -92 -67.5t-113 -174.5h-66q-41 0 -41 -22q0 -16 18 -31.5t50 -21.5q-123 -264 -123 -461q0 -250 221 -250q180 0 387 207
q16 -46 28.5 -75t33 -60.5t48 -46.5t62.5 -15z" />
    <glyph glyph-name="section" unicode="&#xa7;" 
d="M1675 391q44 0 87 40t64 80l21 40q-3 -9 -8.5 -24t-26 -54t-45.5 -70t-67 -58.5t-90 -33.5q-114 -112 -265 -174.5t-317 -62.5q-169 0 -322.5 65.5t-264.5 176t-176.5 264t-65.5 321.5q0 70 14 156q-64 -47 -127 -109q12 21 27.5 46t56 80.5t84 104.5t109 106.5t133 98
t154.5 68t175 27.5q113 0 113 -66q0 -44 -51 -126t-123.5 -176.5t-145 -195t-123.5 -207.5t-51 -188q0 -59 35.5 -98t91.5 -39q49 0 89 37.5t40 79.5q0 10 -10 10q-6 -2 -22 -2q-60 0 -60 74q0 59 43 149.5t104.5 183.5t123 184.5t104.5 174.5t43 131q0 56 -42 95.5
t-122 39.5q-171 0 -322 -82.5t-270 -216.5q100 220 304 355t454 135q135 0 261 -42t228 -118.5t178.5 -178.5t118 -229t41.5 -262q0 -221 -110 -414q-27 -10 -43 -10q-62 0 -98.5 41.5t-57.5 114.5q127 139 215 295q6 12 6 18t-4 6q-8 0 -16 -16q-80 -147 -211 -266
q-6 26 -15.5 71t-15.5 72.5t-17.5 62t-24 54t-33.5 33.5t-48 14t-50 -11t-37.5 -29.5t-23 -33.5t-14.5 -31q0 -8 7 -8q40 0 72.5 -14t54 -33.5t41.5 -54t31 -61.5t26 -70q-183 -142 -336 -142q-135 0 -135 199q0 162 86 402q64 4 319.5 30.5t345.5 26.5q23 0 23 10
q0 8 -20 8q-101 0 -286.5 1t-350.5 1q39 96 76.5 157.5t58.5 61.5q14 0 14 -38q0 -13 12 -13t19.5 8t7.5 19q0 17 -16.5 32t-44.5 15q-36 0 -92 -67.5t-113 -174.5h-66q-41 0 -41 -22q0 -16 18 -31.5t50 -21.5q-123 -264 -123 -461q0 -250 221 -250q180 0 387 207
q16 -46 28.5 -75t33 -60.5t48 -46.5t62.5 -15z" />
    <glyph glyph-name="dieresis" unicode="&#xa8;" 
d="M1675 391q44 0 87 40t64 80l21 40q-3 -9 -8.5 -24t-26 -54t-45.5 -70t-67 -58.5t-90 -33.5q-114 -112 -265 -174.5t-317 -62.5q-169 0 -322.5 65.5t-264.5 176t-176.5 264t-65.5 321.5q0 70 14 156q-64 -47 -127 -109q12 21 27.5 46t56 80.5t84 104.5t109 106.5t133 98
t154.5 68t175 27.5q113 0 113 -66q0 -44 -51 -126t-123.5 -176.5t-145 -195t-123.5 -207.5t-51 -188q0 -59 35.5 -98t91.5 -39q49 0 89 37.5t40 79.5q0 10 -10 10q-6 -2 -22 -2q-60 0 -60 74q0 59 43 149.5t104.5 183.5t123 184.5t104.5 174.5t43 131q0 56 -42 95.5
t-122 39.5q-171 0 -322 -82.5t-270 -216.5q100 220 304 355t454 135q135 0 261 -42t228 -118.5t178.5 -178.5t118 -229t41.5 -262q0 -221 -110 -414q-27 -10 -43 -10q-62 0 -98.5 41.5t-57.5 114.5q127 139 215 295q6 12 6 18t-4 6q-8 0 -16 -16q-80 -147 -211 -266
q-6 26 -15.5 71t-15.5 72.5t-17.5 62t-24 54t-33.5 33.5t-48 14t-50 -11t-37.5 -29.5t-23 -33.5t-14.5 -31q0 -8 7 -8q40 0 72.5 -14t54 -33.5t41.5 -54t31 -61.5t26 -70q-183 -142 -336 -142q-135 0 -135 199q0 162 86 402q64 4 319.5 30.5t345.5 26.5q23 0 23 10
q0 8 -20 8q-101 0 -286.5 1t-350.5 1q39 96 76.5 157.5t58.5 61.5q14 0 14 -38q0 -13 12 -13t19.5 8t7.5 19q0 17 -16.5 32t-44.5 15q-36 0 -92 -67.5t-113 -174.5h-66q-41 0 -41 -22q0 -16 18 -31.5t50 -21.5q-123 -264 -123 -461q0 -250 221 -250q180 0 387 207
q16 -46 28.5 -75t33 -60.5t48 -46.5t62.5 -15z" />
    <glyph glyph-name="copyright" unicode="&#xa9;" 
d="M1675 391q44 0 87 40t64 80l21 40q-3 -9 -8.5 -24t-26 -54t-45.5 -70t-67 -58.5t-90 -33.5q-114 -112 -265 -174.5t-317 -62.5q-169 0 -322.5 65.5t-264.5 176t-176.5 264t-65.5 321.5q0 70 14 156q-64 -47 -127 -109q12 21 27.5 46t56 80.5t84 104.5t109 106.5t133 98
t154.5 68t175 27.5q113 0 113 -66q0 -44 -51 -126t-123.5 -176.5t-145 -195t-123.5 -207.5t-51 -188q0 -59 35.5 -98t91.5 -39q49 0 89 37.5t40 79.5q0 10 -10 10q-6 -2 -22 -2q-60 0 -60 74q0 59 43 149.5t104.5 183.5t123 184.5t104.5 174.5t43 131q0 56 -42 95.5
t-122 39.5q-171 0 -322 -82.5t-270 -216.5q100 220 304 355t454 135q135 0 261 -42t228 -118.5t178.5 -178.5t118 -229t41.5 -262q0 -221 -110 -414q-27 -10 -43 -10q-62 0 -98.5 41.5t-57.5 114.5q127 139 215 295q6 12 6 18t-4 6q-8 0 -16 -16q-80 -147 -211 -266
q-6 26 -15.5 71t-15.5 72.5t-17.5 62t-24 54t-33.5 33.5t-48 14t-50 -11t-37.5 -29.5t-23 -33.5t-14.5 -31q0 -8 7 -8q40 0 72.5 -14t54 -33.5t41.5 -54t31 -61.5t26 -70q-183 -142 -336 -142q-135 0 -135 199q0 162 86 402q64 4 319.5 30.5t345.5 26.5q23 0 23 10
q0 8 -20 8q-101 0 -286.5 1t-350.5 1q39 96 76.5 157.5t58.5 61.5q14 0 14 -38q0 -13 12 -13t19.5 8t7.5 19q0 17 -16.5 32t-44.5 15q-36 0 -92 -67.5t-113 -174.5h-66q-41 0 -41 -22q0 -16 18 -31.5t50 -21.5q-123 -264 -123 -461q0 -250 221 -250q180 0 387 207
q16 -46 28.5 -75t33 -60.5t48 -46.5t62.5 -15z" />
    <glyph glyph-name="ordfeminine" unicode="&#xaa;" 
d="M1675 391q44 0 87 40t64 80l21 40q-3 -9 -8.5 -24t-26 -54t-45.5 -70t-67 -58.5t-90 -33.5q-114 -112 -265 -174.5t-317 -62.5q-169 0 -322.5 65.5t-264.5 176t-176.5 264t-65.5 321.5q0 70 14 156q-64 -47 -127 -109q12 21 27.5 46t56 80.5t84 104.5t109 106.5t133 98
t154.5 68t175 27.5q113 0 113 -66q0 -44 -51 -126t-123.5 -176.5t-145 -195t-123.5 -207.5t-51 -188q0 -59 35.5 -98t91.5 -39q49 0 89 37.5t40 79.5q0 10 -10 10q-6 -2 -22 -2q-60 0 -60 74q0 59 43 149.5t104.5 183.5t123 184.5t104.5 174.5t43 131q0 56 -42 95.5
t-122 39.5q-171 0 -322 -82.5t-270 -216.5q100 220 304 355t454 135q135 0 261 -42t228 -118.5t178.5 -178.5t118 -229t41.5 -262q0 -221 -110 -414q-27 -10 -43 -10q-62 0 -98.5 41.5t-57.5 114.5q127 139 215 295q6 12 6 18t-4 6q-8 0 -16 -16q-80 -147 -211 -266
q-6 26 -15.5 71t-15.5 72.5t-17.5 62t-24 54t-33.5 33.5t-48 14t-50 -11t-37.5 -29.5t-23 -33.5t-14.5 -31q0 -8 7 -8q40 0 72.5 -14t54 -33.5t41.5 -54t31 -61.5t26 -70q-183 -142 -336 -142q-135 0 -135 199q0 162 86 402q64 4 319.5 30.5t345.5 26.5q23 0 23 10
q0 8 -20 8q-101 0 -286.5 1t-350.5 1q39 96 76.5 157.5t58.5 61.5q14 0 14 -38q0 -13 12 -13t19.5 8t7.5 19q0 17 -16.5 32t-44.5 15q-36 0 -92 -67.5t-113 -174.5h-66q-41 0 -41 -22q0 -16 18 -31.5t50 -21.5q-123 -264 -123 -461q0 -250 221 -250q180 0 387 207
q16 -46 28.5 -75t33 -60.5t48 -46.5t62.5 -15z" />
    <glyph glyph-name="guillemotleft" unicode="&#xab;" 
d="M1675 391q44 0 87 40t64 80l21 40q-3 -9 -8.5 -24t-26 -54t-45.5 -70t-67 -58.5t-90 -33.5q-114 -112 -265 -174.5t-317 -62.5q-169 0 -322.5 65.5t-264.5 176t-176.5 264t-65.5 321.5q0 70 14 156q-64 -47 -127 -109q12 21 27.5 46t56 80.5t84 104.5t109 106.5t133 98
t154.5 68t175 27.5q113 0 113 -66q0 -44 -51 -126t-123.5 -176.5t-145 -195t-123.5 -207.5t-51 -188q0 -59 35.5 -98t91.5 -39q49 0 89 37.5t40 79.5q0 10 -10 10q-6 -2 -22 -2q-60 0 -60 74q0 59 43 149.5t104.5 183.5t123 184.5t104.5 174.5t43 131q0 56 -42 95.5
t-122 39.5q-171 0 -322 -82.5t-270 -216.5q100 220 304 355t454 135q135 0 261 -42t228 -118.5t178.5 -178.5t118 -229t41.5 -262q0 -221 -110 -414q-27 -10 -43 -10q-62 0 -98.5 41.5t-57.5 114.5q127 139 215 295q6 12 6 18t-4 6q-8 0 -16 -16q-80 -147 -211 -266
q-6 26 -15.5 71t-15.5 72.5t-17.5 62t-24 54t-33.5 33.5t-48 14t-50 -11t-37.5 -29.5t-23 -33.5t-14.5 -31q0 -8 7 -8q40 0 72.5 -14t54 -33.5t41.5 -54t31 -61.5t26 -70q-183 -142 -336 -142q-135 0 -135 199q0 162 86 402q64 4 319.5 30.5t345.5 26.5q23 0 23 10
q0 8 -20 8q-101 0 -286.5 1t-350.5 1q39 96 76.5 157.5t58.5 61.5q14 0 14 -38q0 -13 12 -13t19.5 8t7.5 19q0 17 -16.5 32t-44.5 15q-36 0 -92 -67.5t-113 -174.5h-66q-41 0 -41 -22q0 -16 18 -31.5t50 -21.5q-123 -264 -123 -461q0 -250 221 -250q180 0 387 207
q16 -46 28.5 -75t33 -60.5t48 -46.5t62.5 -15z" />
    <glyph glyph-name="registered" unicode="&#xae;" 
d="M1675 391q44 0 87 40t64 80l21 40q-3 -9 -8.5 -24t-26 -54t-45.5 -70t-67 -58.5t-90 -33.5q-114 -112 -265 -174.5t-317 -62.5q-169 0 -322.5 65.5t-264.5 176t-176.5 264t-65.5 321.5q0 70 14 156q-64 -47 -127 -109q12 21 27.5 46t56 80.5t84 104.5t109 106.5t133 98
t154.5 68t175 27.5q113 0 113 -66q0 -44 -51 -126t-123.5 -176.5t-145 -195t-123.5 -207.5t-51 -188q0 -59 35.5 -98t91.5 -39q49 0 89 37.5t40 79.5q0 10 -10 10q-6 -2 -22 -2q-60 0 -60 74q0 59 43 149.5t104.5 183.5t123 184.5t104.5 174.5t43 131q0 56 -42 95.5
t-122 39.5q-171 0 -322 -82.5t-270 -216.5q100 220 304 355t454 135q135 0 261 -42t228 -118.5t178.5 -178.5t118 -229t41.5 -262q0 -221 -110 -414q-27 -10 -43 -10q-62 0 -98.5 41.5t-57.5 114.5q127 139 215 295q6 12 6 18t-4 6q-8 0 -16 -16q-80 -147 -211 -266
q-6 26 -15.5 71t-15.5 72.5t-17.5 62t-24 54t-33.5 33.5t-48 14t-50 -11t-37.5 -29.5t-23 -33.5t-14.5 -31q0 -8 7 -8q40 0 72.5 -14t54 -33.5t41.5 -54t31 -61.5t26 -70q-183 -142 -336 -142q-135 0 -135 199q0 162 86 402q64 4 319.5 30.5t345.5 26.5q23 0 23 10
q0 8 -20 8q-101 0 -286.5 1t-350.5 1q39 96 76.5 157.5t58.5 61.5q14 0 14 -38q0 -13 12 -13t19.5 8t7.5 19q0 17 -16.5 32t-44.5 15q-36 0 -92 -67.5t-113 -174.5h-66q-41 0 -41 -22q0 -16 18 -31.5t50 -21.5q-123 -264 -123 -461q0 -250 221 -250q180 0 387 207
q16 -46 28.5 -75t33 -60.5t48 -46.5t62.5 -15z" />
    <glyph glyph-name="degree" unicode="&#xb0;" 
d="M1675 391q44 0 87 40t64 80l21 40q-3 -9 -8.5 -24t-26 -54t-45.5 -70t-67 -58.5t-90 -33.5q-114 -112 -265 -174.5t-317 -62.5q-169 0 -322.5 65.5t-264.5 176t-176.5 264t-65.5 321.5q0 70 14 156q-64 -47 -127 -109q12 21 27.5 46t56 80.5t84 104.5t109 106.5t133 98
t154.5 68t175 27.5q113 0 113 -66q0 -44 -51 -126t-123.5 -176.5t-145 -195t-123.5 -207.5t-51 -188q0 -59 35.5 -98t91.5 -39q49 0 89 37.5t40 79.5q0 10 -10 10q-6 -2 -22 -2q-60 0 -60 74q0 59 43 149.5t104.5 183.5t123 184.5t104.5 174.5t43 131q0 56 -42 95.5
t-122 39.5q-171 0 -322 -82.5t-270 -216.5q100 220 304 355t454 135q135 0 261 -42t228 -118.5t178.5 -178.5t118 -229t41.5 -262q0 -221 -110 -414q-27 -10 -43 -10q-62 0 -98.5 41.5t-57.5 114.5q127 139 215 295q6 12 6 18t-4 6q-8 0 -16 -16q-80 -147 -211 -266
q-6 26 -15.5 71t-15.5 72.5t-17.5 62t-24 54t-33.5 33.5t-48 14t-50 -11t-37.5 -29.5t-23 -33.5t-14.5 -31q0 -8 7 -8q40 0 72.5 -14t54 -33.5t41.5 -54t31 -61.5t26 -70q-183 -142 -336 -142q-135 0 -135 199q0 162 86 402q64 4 319.5 30.5t345.5 26.5q23 0 23 10
q0 8 -20 8q-101 0 -286.5 1t-350.5 1q39 96 76.5 157.5t58.5 61.5q14 0 14 -38q0 -13 12 -13t19.5 8t7.5 19q0 17 -16.5 32t-44.5 15q-36 0 -92 -67.5t-113 -174.5h-66q-41 0 -41 -22q0 -16 18 -31.5t50 -21.5q-123 -264 -123 -461q0 -250 221 -250q180 0 387 207
q16 -46 28.5 -75t33 -60.5t48 -46.5t62.5 -15z" />
    <glyph glyph-name="plusminus" unicode="&#xb1;" 
d="M1675 391q44 0 87 40t64 80l21 40q-3 -9 -8.5 -24t-26 -54t-45.5 -70t-67 -58.5t-90 -33.5q-114 -112 -265 -174.5t-317 -62.5q-169 0 -322.5 65.5t-264.5 176t-176.5 264t-65.5 321.5q0 70 14 156q-64 -47 -127 -109q12 21 27.5 46t56 80.5t84 104.5t109 106.5t133 98
t154.5 68t175 27.5q113 0 113 -66q0 -44 -51 -126t-123.5 -176.5t-145 -195t-123.5 -207.5t-51 -188q0 -59 35.5 -98t91.5 -39q49 0 89 37.5t40 79.5q0 10 -10 10q-6 -2 -22 -2q-60 0 -60 74q0 59 43 149.5t104.5 183.5t123 184.5t104.5 174.5t43 131q0 56 -42 95.5
t-122 39.5q-171 0 -322 -82.5t-270 -216.5q100 220 304 355t454 135q135 0 261 -42t228 -118.5t178.5 -178.5t118 -229t41.5 -262q0 -221 -110 -414q-27 -10 -43 -10q-62 0 -98.5 41.5t-57.5 114.5q127 139 215 295q6 12 6 18t-4 6q-8 0 -16 -16q-80 -147 -211 -266
q-6 26 -15.5 71t-15.5 72.5t-17.5 62t-24 54t-33.5 33.5t-48 14t-50 -11t-37.5 -29.5t-23 -33.5t-14.5 -31q0 -8 7 -8q40 0 72.5 -14t54 -33.5t41.5 -54t31 -61.5t26 -70q-183 -142 -336 -142q-135 0 -135 199q0 162 86 402q64 4 319.5 30.5t345.5 26.5q23 0 23 10
q0 8 -20 8q-101 0 -286.5 1t-350.5 1q39 96 76.5 157.5t58.5 61.5q14 0 14 -38q0 -13 12 -13t19.5 8t7.5 19q0 17 -16.5 32t-44.5 15q-36 0 -92 -67.5t-113 -174.5h-66q-41 0 -41 -22q0 -16 18 -31.5t50 -21.5q-123 -264 -123 -461q0 -250 221 -250q180 0 387 207
q16 -46 28.5 -75t33 -60.5t48 -46.5t62.5 -15z" />
    <glyph glyph-name="twosuperior" unicode="&#xb2;" 
d="M1675 391q44 0 87 40t64 80l21 40q-3 -9 -8.5 -24t-26 -54t-45.5 -70t-67 -58.5t-90 -33.5q-114 -112 -265 -174.5t-317 -62.5q-169 0 -322.5 65.5t-264.5 176t-176.5 264t-65.5 321.5q0 70 14 156q-64 -47 -127 -109q12 21 27.5 46t56 80.5t84 104.5t109 106.5t133 98
t154.5 68t175 27.5q113 0 113 -66q0 -44 -51 -126t-123.5 -176.5t-145 -195t-123.5 -207.5t-51 -188q0 -59 35.5 -98t91.5 -39q49 0 89 37.5t40 79.5q0 10 -10 10q-6 -2 -22 -2q-60 0 -60 74q0 59 43 149.5t104.5 183.5t123 184.5t104.5 174.5t43 131q0 56 -42 95.5
t-122 39.5q-171 0 -322 -82.5t-270 -216.5q100 220 304 355t454 135q135 0 261 -42t228 -118.5t178.5 -178.5t118 -229t41.5 -262q0 -221 -110 -414q-27 -10 -43 -10q-62 0 -98.5 41.5t-57.5 114.5q127 139 215 295q6 12 6 18t-4 6q-8 0 -16 -16q-80 -147 -211 -266
q-6 26 -15.5 71t-15.5 72.5t-17.5 62t-24 54t-33.5 33.5t-48 14t-50 -11t-37.5 -29.5t-23 -33.5t-14.5 -31q0 -8 7 -8q40 0 72.5 -14t54 -33.5t41.5 -54t31 -61.5t26 -70q-183 -142 -336 -142q-135 0 -135 199q0 162 86 402q64 4 319.5 30.5t345.5 26.5q23 0 23 10
q0 8 -20 8q-101 0 -286.5 1t-350.5 1q39 96 76.5 157.5t58.5 61.5q14 0 14 -38q0 -13 12 -13t19.5 8t7.5 19q0 17 -16.5 32t-44.5 15q-36 0 -92 -67.5t-113 -174.5h-66q-41 0 -41 -22q0 -16 18 -31.5t50 -21.5q-123 -264 -123 -461q0 -250 221 -250q180 0 387 207
q16 -46 28.5 -75t33 -60.5t48 -46.5t62.5 -15z" />
    <glyph glyph-name="threesuperior" unicode="&#xb3;" 
d="M1675 391q44 0 87 40t64 80l21 40q-3 -9 -8.5 -24t-26 -54t-45.5 -70t-67 -58.5t-90 -33.5q-114 -112 -265 -174.5t-317 -62.5q-169 0 -322.5 65.5t-264.5 176t-176.5 264t-65.5 321.5q0 70 14 156q-64 -47 -127 -109q12 21 27.5 46t56 80.5t84 104.5t109 106.5t133 98
t154.5 68t175 27.5q113 0 113 -66q0 -44 -51 -126t-123.5 -176.5t-145 -195t-123.5 -207.5t-51 -188q0 -59 35.5 -98t91.5 -39q49 0 89 37.5t40 79.5q0 10 -10 10q-6 -2 -22 -2q-60 0 -60 74q0 59 43 149.5t104.5 183.5t123 184.5t104.5 174.5t43 131q0 56 -42 95.5
t-122 39.5q-171 0 -322 -82.5t-270 -216.5q100 220 304 355t454 135q135 0 261 -42t228 -118.5t178.5 -178.5t118 -229t41.5 -262q0 -221 -110 -414q-27 -10 -43 -10q-62 0 -98.5 41.5t-57.5 114.5q127 139 215 295q6 12 6 18t-4 6q-8 0 -16 -16q-80 -147 -211 -266
q-6 26 -15.5 71t-15.5 72.5t-17.5 62t-24 54t-33.5 33.5t-48 14t-50 -11t-37.5 -29.5t-23 -33.5t-14.5 -31q0 -8 7 -8q40 0 72.5 -14t54 -33.5t41.5 -54t31 -61.5t26 -70q-183 -142 -336 -142q-135 0 -135 199q0 162 86 402q64 4 319.5 30.5t345.5 26.5q23 0 23 10
q0 8 -20 8q-101 0 -286.5 1t-350.5 1q39 96 76.5 157.5t58.5 61.5q14 0 14 -38q0 -13 12 -13t19.5 8t7.5 19q0 17 -16.5 32t-44.5 15q-36 0 -92 -67.5t-113 -174.5h-66q-41 0 -41 -22q0 -16 18 -31.5t50 -21.5q-123 -264 -123 -461q0 -250 221 -250q180 0 387 207
q16 -46 28.5 -75t33 -60.5t48 -46.5t62.5 -15z" />
    <glyph glyph-name="acute" unicode="&#xb4;" 
d="M1675 391q44 0 87 40t64 80l21 40q-3 -9 -8.5 -24t-26 -54t-45.5 -70t-67 -58.5t-90 -33.5q-114 -112 -265 -174.5t-317 -62.5q-169 0 -322.5 65.5t-264.5 176t-176.5 264t-65.5 321.5q0 70 14 156q-64 -47 -127 -109q12 21 27.5 46t56 80.5t84 104.5t109 106.5t133 98
t154.5 68t175 27.5q113 0 113 -66q0 -44 -51 -126t-123.5 -176.5t-145 -195t-123.5 -207.5t-51 -188q0 -59 35.5 -98t91.5 -39q49 0 89 37.5t40 79.5q0 10 -10 10q-6 -2 -22 -2q-60 0 -60 74q0 59 43 149.5t104.5 183.5t123 184.5t104.5 174.5t43 131q0 56 -42 95.5
t-122 39.5q-171 0 -322 -82.5t-270 -216.5q100 220 304 355t454 135q135 0 261 -42t228 -118.5t178.5 -178.5t118 -229t41.5 -262q0 -221 -110 -414q-27 -10 -43 -10q-62 0 -98.5 41.5t-57.5 114.5q127 139 215 295q6 12 6 18t-4 6q-8 0 -16 -16q-80 -147 -211 -266
q-6 26 -15.5 71t-15.5 72.5t-17.5 62t-24 54t-33.5 33.5t-48 14t-50 -11t-37.5 -29.5t-23 -33.5t-14.5 -31q0 -8 7 -8q40 0 72.5 -14t54 -33.5t41.5 -54t31 -61.5t26 -70q-183 -142 -336 -142q-135 0 -135 199q0 162 86 402q64 4 319.5 30.5t345.5 26.5q23 0 23 10
q0 8 -20 8q-101 0 -286.5 1t-350.5 1q39 96 76.5 157.5t58.5 61.5q14 0 14 -38q0 -13 12 -13t19.5 8t7.5 19q0 17 -16.5 32t-44.5 15q-36 0 -92 -67.5t-113 -174.5h-66q-41 0 -41 -22q0 -16 18 -31.5t50 -21.5q-123 -264 -123 -461q0 -250 221 -250q180 0 387 207
q16 -46 28.5 -75t33 -60.5t48 -46.5t62.5 -15z" />
    <glyph glyph-name="mu" unicode="&#xb5;" 
d="M1675 391q44 0 87 40t64 80l21 40q-3 -9 -8.5 -24t-26 -54t-45.5 -70t-67 -58.5t-90 -33.5q-114 -112 -265 -174.5t-317 -62.5q-169 0 -322.5 65.5t-264.5 176t-176.5 264t-65.5 321.5q0 70 14 156q-64 -47 -127 -109q12 21 27.5 46t56 80.5t84 104.5t109 106.5t133 98
t154.5 68t175 27.5q113 0 113 -66q0 -44 -51 -126t-123.5 -176.5t-145 -195t-123.5 -207.5t-51 -188q0 -59 35.5 -98t91.5 -39q49 0 89 37.5t40 79.5q0 10 -10 10q-6 -2 -22 -2q-60 0 -60 74q0 59 43 149.5t104.5 183.5t123 184.5t104.5 174.5t43 131q0 56 -42 95.5
t-122 39.5q-171 0 -322 -82.5t-270 -216.5q100 220 304 355t454 135q135 0 261 -42t228 -118.5t178.5 -178.5t118 -229t41.5 -262q0 -221 -110 -414q-27 -10 -43 -10q-62 0 -98.5 41.5t-57.5 114.5q127 139 215 295q6 12 6 18t-4 6q-8 0 -16 -16q-80 -147 -211 -266
q-6 26 -15.5 71t-15.5 72.5t-17.5 62t-24 54t-33.5 33.5t-48 14t-50 -11t-37.5 -29.5t-23 -33.5t-14.5 -31q0 -8 7 -8q40 0 72.5 -14t54 -33.5t41.5 -54t31 -61.5t26 -70q-183 -142 -336 -142q-135 0 -135 199q0 162 86 402q64 4 319.5 30.5t345.5 26.5q23 0 23 10
q0 8 -20 8q-101 0 -286.5 1t-350.5 1q39 96 76.5 157.5t58.5 61.5q14 0 14 -38q0 -13 12 -13t19.5 8t7.5 19q0 17 -16.5 32t-44.5 15q-36 0 -92 -67.5t-113 -174.5h-66q-41 0 -41 -22q0 -16 18 -31.5t50 -21.5q-123 -264 -123 -461q0 -250 221 -250q180 0 387 207
q16 -46 28.5 -75t33 -60.5t48 -46.5t62.5 -15z" />
    <glyph glyph-name="paragraph" unicode="&#xb6;" 
d="M1675 391q44 0 87 40t64 80l21 40q-3 -9 -8.5 -24t-26 -54t-45.5 -70t-67 -58.5t-90 -33.5q-114 -112 -265 -174.5t-317 -62.5q-169 0 -322.5 65.5t-264.5 176t-176.5 264t-65.5 321.5q0 70 14 156q-64 -47 -127 -109q12 21 27.5 46t56 80.5t84 104.5t109 106.5t133 98
t154.5 68t175 27.5q113 0 113 -66q0 -44 -51 -126t-123.5 -176.5t-145 -195t-123.5 -207.5t-51 -188q0 -59 35.5 -98t91.5 -39q49 0 89 37.5t40 79.5q0 10 -10 10q-6 -2 -22 -2q-60 0 -60 74q0 59 43 149.5t104.5 183.5t123 184.5t104.5 174.5t43 131q0 56 -42 95.5
t-122 39.5q-171 0 -322 -82.5t-270 -216.5q100 220 304 355t454 135q135 0 261 -42t228 -118.5t178.5 -178.5t118 -229t41.5 -262q0 -221 -110 -414q-27 -10 -43 -10q-62 0 -98.5 41.5t-57.5 114.5q127 139 215 295q6 12 6 18t-4 6q-8 0 -16 -16q-80 -147 -211 -266
q-6 26 -15.5 71t-15.5 72.5t-17.5 62t-24 54t-33.5 33.5t-48 14t-50 -11t-37.5 -29.5t-23 -33.5t-14.5 -31q0 -8 7 -8q40 0 72.5 -14t54 -33.5t41.5 -54t31 -61.5t26 -70q-183 -142 -336 -142q-135 0 -135 199q0 162 86 402q64 4 319.5 30.5t345.5 26.5q23 0 23 10
q0 8 -20 8q-101 0 -286.5 1t-350.5 1q39 96 76.5 157.5t58.5 61.5q14 0 14 -38q0 -13 12 -13t19.5 8t7.5 19q0 17 -16.5 32t-44.5 15q-36 0 -92 -67.5t-113 -174.5h-66q-41 0 -41 -22q0 -16 18 -31.5t50 -21.5q-123 -264 -123 -461q0 -250 221 -250q180 0 387 207
q16 -46 28.5 -75t33 -60.5t48 -46.5t62.5 -15z" />
    <glyph glyph-name="periodcentered" unicode="&#xb7;" 
d="M1675 391q44 0 87 40t64 80l21 40q-3 -9 -8.5 -24t-26 -54t-45.5 -70t-67 -58.5t-90 -33.5q-114 -112 -265 -174.5t-317 -62.5q-169 0 -322.5 65.5t-264.5 176t-176.5 264t-65.5 321.5q0 70 14 156q-64 -47 -127 -109q12 21 27.5 46t56 80.5t84 104.5t109 106.5t133 98
t154.5 68t175 27.5q113 0 113 -66q0 -44 -51 -126t-123.5 -176.5t-145 -195t-123.5 -207.5t-51 -188q0 -59 35.5 -98t91.5 -39q49 0 89 37.5t40 79.5q0 10 -10 10q-6 -2 -22 -2q-60 0 -60 74q0 59 43 149.5t104.5 183.5t123 184.5t104.5 174.5t43 131q0 56 -42 95.5
t-122 39.5q-171 0 -322 -82.5t-270 -216.5q100 220 304 355t454 135q135 0 261 -42t228 -118.5t178.5 -178.5t118 -229t41.5 -262q0 -221 -110 -414q-27 -10 -43 -10q-62 0 -98.5 41.5t-57.5 114.5q127 139 215 295q6 12 6 18t-4 6q-8 0 -16 -16q-80 -147 -211 -266
q-6 26 -15.5 71t-15.5 72.5t-17.5 62t-24 54t-33.5 33.5t-48 14t-50 -11t-37.5 -29.5t-23 -33.5t-14.5 -31q0 -8 7 -8q40 0 72.5 -14t54 -33.5t41.5 -54t31 -61.5t26 -70q-183 -142 -336 -142q-135 0 -135 199q0 162 86 402q64 4 319.5 30.5t345.5 26.5q23 0 23 10
q0 8 -20 8q-101 0 -286.5 1t-350.5 1q39 96 76.5 157.5t58.5 61.5q14 0 14 -38q0 -13 12 -13t19.5 8t7.5 19q0 17 -16.5 32t-44.5 15q-36 0 -92 -67.5t-113 -174.5h-66q-41 0 -41 -22q0 -16 18 -31.5t50 -21.5q-123 -264 -123 -461q0 -250 221 -250q180 0 387 207
q16 -46 28.5 -75t33 -60.5t48 -46.5t62.5 -15z" />
    <glyph glyph-name="cedilla" unicode="&#xb8;" 
d="M1675 391q44 0 87 40t64 80l21 40q-3 -9 -8.5 -24t-26 -54t-45.5 -70t-67 -58.5t-90 -33.5q-114 -112 -265 -174.5t-317 -62.5q-169 0 -322.5 65.5t-264.5 176t-176.5 264t-65.5 321.5q0 70 14 156q-64 -47 -127 -109q12 21 27.5 46t56 80.5t84 104.5t109 106.5t133 98
t154.5 68t175 27.5q113 0 113 -66q0 -44 -51 -126t-123.5 -176.5t-145 -195t-123.5 -207.5t-51 -188q0 -59 35.5 -98t91.5 -39q49 0 89 37.5t40 79.5q0 10 -10 10q-6 -2 -22 -2q-60 0 -60 74q0 59 43 149.5t104.5 183.5t123 184.5t104.5 174.5t43 131q0 56 -42 95.5
t-122 39.5q-171 0 -322 -82.5t-270 -216.5q100 220 304 355t454 135q135 0 261 -42t228 -118.5t178.5 -178.5t118 -229t41.5 -262q0 -221 -110 -414q-27 -10 -43 -10q-62 0 -98.5 41.5t-57.5 114.5q127 139 215 295q6 12 6 18t-4 6q-8 0 -16 -16q-80 -147 -211 -266
q-6 26 -15.5 71t-15.5 72.5t-17.5 62t-24 54t-33.5 33.5t-48 14t-50 -11t-37.5 -29.5t-23 -33.5t-14.5 -31q0 -8 7 -8q40 0 72.5 -14t54 -33.5t41.5 -54t31 -61.5t26 -70q-183 -142 -336 -142q-135 0 -135 199q0 162 86 402q64 4 319.5 30.5t345.5 26.5q23 0 23 10
q0 8 -20 8q-101 0 -286.5 1t-350.5 1q39 96 76.5 157.5t58.5 61.5q14 0 14 -38q0 -13 12 -13t19.5 8t7.5 19q0 17 -16.5 32t-44.5 15q-36 0 -92 -67.5t-113 -174.5h-66q-41 0 -41 -22q0 -16 18 -31.5t50 -21.5q-123 -264 -123 -461q0 -250 221 -250q180 0 387 207
q16 -46 28.5 -75t33 -60.5t48 -46.5t62.5 -15z" />
    <glyph glyph-name="onesuperior" unicode="&#xb9;" 
d="M1675 391q44 0 87 40t64 80l21 40q-3 -9 -8.5 -24t-26 -54t-45.5 -70t-67 -58.5t-90 -33.5q-114 -112 -265 -174.5t-317 -62.5q-169 0 -322.5 65.5t-264.5 176t-176.5 264t-65.5 321.5q0 70 14 156q-64 -47 -127 -109q12 21 27.5 46t56 80.5t84 104.5t109 106.5t133 98
t154.5 68t175 27.5q113 0 113 -66q0 -44 -51 -126t-123.5 -176.5t-145 -195t-123.5 -207.5t-51 -188q0 -59 35.5 -98t91.5 -39q49 0 89 37.5t40 79.5q0 10 -10 10q-6 -2 -22 -2q-60 0 -60 74q0 59 43 149.5t104.5 183.5t123 184.5t104.5 174.5t43 131q0 56 -42 95.5
t-122 39.5q-171 0 -322 -82.5t-270 -216.5q100 220 304 355t454 135q135 0 261 -42t228 -118.5t178.5 -178.5t118 -229t41.5 -262q0 -221 -110 -414q-27 -10 -43 -10q-62 0 -98.5 41.5t-57.5 114.5q127 139 215 295q6 12 6 18t-4 6q-8 0 -16 -16q-80 -147 -211 -266
q-6 26 -15.5 71t-15.5 72.5t-17.5 62t-24 54t-33.5 33.5t-48 14t-50 -11t-37.5 -29.5t-23 -33.5t-14.5 -31q0 -8 7 -8q40 0 72.5 -14t54 -33.5t41.5 -54t31 -61.5t26 -70q-183 -142 -336 -142q-135 0 -135 199q0 162 86 402q64 4 319.5 30.5t345.5 26.5q23 0 23 10
q0 8 -20 8q-101 0 -286.5 1t-350.5 1q39 96 76.5 157.5t58.5 61.5q14 0 14 -38q0 -13 12 -13t19.5 8t7.5 19q0 17 -16.5 32t-44.5 15q-36 0 -92 -67.5t-113 -174.5h-66q-41 0 -41 -22q0 -16 18 -31.5t50 -21.5q-123 -264 -123 -461q0 -250 221 -250q180 0 387 207
q16 -46 28.5 -75t33 -60.5t48 -46.5t62.5 -15z" />
    <glyph glyph-name="ordmasculine" unicode="&#xba;" 
d="M1675 391q44 0 87 40t64 80l21 40q-3 -9 -8.5 -24t-26 -54t-45.5 -70t-67 -58.5t-90 -33.5q-114 -112 -265 -174.5t-317 -62.5q-169 0 -322.5 65.5t-264.5 176t-176.5 264t-65.5 321.5q0 70 14 156q-64 -47 -127 -109q12 21 27.5 46t56 80.5t84 104.5t109 106.5t133 98
t154.5 68t175 27.5q113 0 113 -66q0 -44 -51 -126t-123.5 -176.5t-145 -195t-123.5 -207.5t-51 -188q0 -59 35.5 -98t91.5 -39q49 0 89 37.5t40 79.5q0 10 -10 10q-6 -2 -22 -2q-60 0 -60 74q0 59 43 149.5t104.5 183.5t123 184.5t104.5 174.5t43 131q0 56 -42 95.5
t-122 39.5q-171 0 -322 -82.5t-270 -216.5q100 220 304 355t454 135q135 0 261 -42t228 -118.5t178.5 -178.5t118 -229t41.5 -262q0 -221 -110 -414q-27 -10 -43 -10q-62 0 -98.5 41.5t-57.5 114.5q127 139 215 295q6 12 6 18t-4 6q-8 0 -16 -16q-80 -147 -211 -266
q-6 26 -15.5 71t-15.5 72.5t-17.5 62t-24 54t-33.5 33.5t-48 14t-50 -11t-37.5 -29.5t-23 -33.5t-14.5 -31q0 -8 7 -8q40 0 72.5 -14t54 -33.5t41.5 -54t31 -61.5t26 -70q-183 -142 -336 -142q-135 0 -135 199q0 162 86 402q64 4 319.5 30.5t345.5 26.5q23 0 23 10
q0 8 -20 8q-101 0 -286.5 1t-350.5 1q39 96 76.5 157.5t58.5 61.5q14 0 14 -38q0 -13 12 -13t19.5 8t7.5 19q0 17 -16.5 32t-44.5 15q-36 0 -92 -67.5t-113 -174.5h-66q-41 0 -41 -22q0 -16 18 -31.5t50 -21.5q-123 -264 -123 -461q0 -250 221 -250q180 0 387 207
q16 -46 28.5 -75t33 -60.5t48 -46.5t62.5 -15z" />
    <glyph glyph-name="guillemotright" unicode="&#xbb;" 
d="M1675 391q44 0 87 40t64 80l21 40q-3 -9 -8.5 -24t-26 -54t-45.5 -70t-67 -58.5t-90 -33.5q-114 -112 -265 -174.5t-317 -62.5q-169 0 -322.5 65.5t-264.5 176t-176.5 264t-65.5 321.5q0 70 14 156q-64 -47 -127 -109q12 21 27.5 46t56 80.5t84 104.5t109 106.5t133 98
t154.5 68t175 27.5q113 0 113 -66q0 -44 -51 -126t-123.5 -176.5t-145 -195t-123.5 -207.5t-51 -188q0 -59 35.5 -98t91.5 -39q49 0 89 37.5t40 79.5q0 10 -10 10q-6 -2 -22 -2q-60 0 -60 74q0 59 43 149.5t104.5 183.5t123 184.5t104.5 174.5t43 131q0 56 -42 95.5
t-122 39.5q-171 0 -322 -82.5t-270 -216.5q100 220 304 355t454 135q135 0 261 -42t228 -118.5t178.5 -178.5t118 -229t41.5 -262q0 -221 -110 -414q-27 -10 -43 -10q-62 0 -98.5 41.5t-57.5 114.5q127 139 215 295q6 12 6 18t-4 6q-8 0 -16 -16q-80 -147 -211 -266
q-6 26 -15.5 71t-15.5 72.5t-17.5 62t-24 54t-33.5 33.5t-48 14t-50 -11t-37.5 -29.5t-23 -33.5t-14.5 -31q0 -8 7 -8q40 0 72.5 -14t54 -33.5t41.5 -54t31 -61.5t26 -70q-183 -142 -336 -142q-135 0 -135 199q0 162 86 402q64 4 319.5 30.5t345.5 26.5q23 0 23 10
q0 8 -20 8q-101 0 -286.5 1t-350.5 1q39 96 76.5 157.5t58.5 61.5q14 0 14 -38q0 -13 12 -13t19.5 8t7.5 19q0 17 -16.5 32t-44.5 15q-36 0 -92 -67.5t-113 -174.5h-66q-41 0 -41 -22q0 -16 18 -31.5t50 -21.5q-123 -264 -123 -461q0 -250 221 -250q180 0 387 207
q16 -46 28.5 -75t33 -60.5t48 -46.5t62.5 -15z" />
    <glyph glyph-name="onequarter" unicode="&#xbc;" 
d="M1675 391q44 0 87 40t64 80l21 40q-3 -9 -8.5 -24t-26 -54t-45.5 -70t-67 -58.5t-90 -33.5q-114 -112 -265 -174.5t-317 -62.5q-169 0 -322.5 65.5t-264.5 176t-176.5 264t-65.5 321.5q0 70 14 156q-64 -47 -127 -109q12 21 27.5 46t56 80.5t84 104.5t109 106.5t133 98
t154.5 68t175 27.5q113 0 113 -66q0 -44 -51 -126t-123.5 -176.5t-145 -195t-123.5 -207.5t-51 -188q0 -59 35.5 -98t91.5 -39q49 0 89 37.5t40 79.5q0 10 -10 10q-6 -2 -22 -2q-60 0 -60 74q0 59 43 149.5t104.5 183.5t123 184.5t104.5 174.5t43 131q0 56 -42 95.5
t-122 39.5q-171 0 -322 -82.5t-270 -216.5q100 220 304 355t454 135q135 0 261 -42t228 -118.5t178.5 -178.5t118 -229t41.5 -262q0 -221 -110 -414q-27 -10 -43 -10q-62 0 -98.5 41.5t-57.5 114.5q127 139 215 295q6 12 6 18t-4 6q-8 0 -16 -16q-80 -147 -211 -266
q-6 26 -15.5 71t-15.5 72.5t-17.5 62t-24 54t-33.5 33.5t-48 14t-50 -11t-37.5 -29.5t-23 -33.5t-14.5 -31q0 -8 7 -8q40 0 72.5 -14t54 -33.5t41.5 -54t31 -61.5t26 -70q-183 -142 -336 -142q-135 0 -135 199q0 162 86 402q64 4 319.5 30.5t345.5 26.5q23 0 23 10
q0 8 -20 8q-101 0 -286.5 1t-350.5 1q39 96 76.5 157.5t58.5 61.5q14 0 14 -38q0 -13 12 -13t19.5 8t7.5 19q0 17 -16.5 32t-44.5 15q-36 0 -92 -67.5t-113 -174.5h-66q-41 0 -41 -22q0 -16 18 -31.5t50 -21.5q-123 -264 -123 -461q0 -250 221 -250q180 0 387 207
q16 -46 28.5 -75t33 -60.5t48 -46.5t62.5 -15z" />
    <glyph glyph-name="onehalf" unicode="&#xbd;" 
d="M1675 391q44 0 87 40t64 80l21 40q-3 -9 -8.5 -24t-26 -54t-45.5 -70t-67 -58.5t-90 -33.5q-114 -112 -265 -174.5t-317 -62.5q-169 0 -322.5 65.5t-264.5 176t-176.5 264t-65.5 321.5q0 70 14 156q-64 -47 -127 -109q12 21 27.5 46t56 80.5t84 104.5t109 106.5t133 98
t154.5 68t175 27.5q113 0 113 -66q0 -44 -51 -126t-123.5 -176.5t-145 -195t-123.5 -207.5t-51 -188q0 -59 35.5 -98t91.5 -39q49 0 89 37.5t40 79.5q0 10 -10 10q-6 -2 -22 -2q-60 0 -60 74q0 59 43 149.5t104.5 183.5t123 184.5t104.5 174.5t43 131q0 56 -42 95.5
t-122 39.5q-171 0 -322 -82.5t-270 -216.5q100 220 304 355t454 135q135 0 261 -42t228 -118.5t178.5 -178.5t118 -229t41.5 -262q0 -221 -110 -414q-27 -10 -43 -10q-62 0 -98.5 41.5t-57.5 114.5q127 139 215 295q6 12 6 18t-4 6q-8 0 -16 -16q-80 -147 -211 -266
q-6 26 -15.5 71t-15.5 72.5t-17.5 62t-24 54t-33.5 33.5t-48 14t-50 -11t-37.5 -29.5t-23 -33.5t-14.5 -31q0 -8 7 -8q40 0 72.5 -14t54 -33.5t41.5 -54t31 -61.5t26 -70q-183 -142 -336 -142q-135 0 -135 199q0 162 86 402q64 4 319.5 30.5t345.5 26.5q23 0 23 10
q0 8 -20 8q-101 0 -286.5 1t-350.5 1q39 96 76.5 157.5t58.5 61.5q14 0 14 -38q0 -13 12 -13t19.5 8t7.5 19q0 17 -16.5 32t-44.5 15q-36 0 -92 -67.5t-113 -174.5h-66q-41 0 -41 -22q0 -16 18 -31.5t50 -21.5q-123 -264 -123 -461q0 -250 221 -250q180 0 387 207
q16 -46 28.5 -75t33 -60.5t48 -46.5t62.5 -15z" />
    <glyph glyph-name="threequarters" unicode="&#xbe;" 
d="M1675 391q44 0 87 40t64 80l21 40q-3 -9 -8.5 -24t-26 -54t-45.5 -70t-67 -58.5t-90 -33.5q-114 -112 -265 -174.5t-317 -62.5q-169 0 -322.5 65.5t-264.5 176t-176.5 264t-65.5 321.5q0 70 14 156q-64 -47 -127 -109q12 21 27.5 46t56 80.5t84 104.5t109 106.5t133 98
t154.5 68t175 27.5q113 0 113 -66q0 -44 -51 -126t-123.5 -176.5t-145 -195t-123.5 -207.5t-51 -188q0 -59 35.5 -98t91.5 -39q49 0 89 37.5t40 79.5q0 10 -10 10q-6 -2 -22 -2q-60 0 -60 74q0 59 43 149.5t104.5 183.5t123 184.5t104.5 174.5t43 131q0 56 -42 95.5
t-122 39.5q-171 0 -322 -82.5t-270 -216.5q100 220 304 355t454 135q135 0 261 -42t228 -118.5t178.5 -178.5t118 -229t41.5 -262q0 -221 -110 -414q-27 -10 -43 -10q-62 0 -98.5 41.5t-57.5 114.5q127 139 215 295q6 12 6 18t-4 6q-8 0 -16 -16q-80 -147 -211 -266
q-6 26 -15.5 71t-15.5 72.5t-17.5 62t-24 54t-33.5 33.5t-48 14t-50 -11t-37.5 -29.5t-23 -33.5t-14.5 -31q0 -8 7 -8q40 0 72.5 -14t54 -33.5t41.5 -54t31 -61.5t26 -70q-183 -142 -336 -142q-135 0 -135 199q0 162 86 402q64 4 319.5 30.5t345.5 26.5q23 0 23 10
q0 8 -20 8q-101 0 -286.5 1t-350.5 1q39 96 76.5 157.5t58.5 61.5q14 0 14 -38q0 -13 12 -13t19.5 8t7.5 19q0 17 -16.5 32t-44.5 15q-36 0 -92 -67.5t-113 -174.5h-66q-41 0 -41 -22q0 -16 18 -31.5t50 -21.5q-123 -264 -123 -461q0 -250 221 -250q180 0 387 207
q16 -46 28.5 -75t33 -60.5t48 -46.5t62.5 -15z" />
    <glyph glyph-name="questiondown" unicode="&#xbf;" 
d="M1675 391q44 0 87 40t64 80l21 40q-3 -9 -8.5 -24t-26 -54t-45.5 -70t-67 -58.5t-90 -33.5q-114 -112 -265 -174.5t-317 -62.5q-169 0 -322.5 65.5t-264.5 176t-176.5 264t-65.5 321.5q0 70 14 156q-64 -47 -127 -109q12 21 27.5 46t56 80.5t84 104.5t109 106.5t133 98
t154.5 68t175 27.5q113 0 113 -66q0 -44 -51 -126t-123.5 -176.5t-145 -195t-123.5 -207.5t-51 -188q0 -59 35.5 -98t91.5 -39q49 0 89 37.5t40 79.5q0 10 -10 10q-6 -2 -22 -2q-60 0 -60 74q0 59 43 149.5t104.5 183.5t123 184.5t104.5 174.5t43 131q0 56 -42 95.5
t-122 39.5q-171 0 -322 -82.5t-270 -216.5q100 220 304 355t454 135q135 0 261 -42t228 -118.5t178.5 -178.5t118 -229t41.5 -262q0 -221 -110 -414q-27 -10 -43 -10q-62 0 -98.5 41.5t-57.5 114.5q127 139 215 295q6 12 6 18t-4 6q-8 0 -16 -16q-80 -147 -211 -266
q-6 26 -15.5 71t-15.5 72.5t-17.5 62t-24 54t-33.5 33.5t-48 14t-50 -11t-37.5 -29.5t-23 -33.5t-14.5 -31q0 -8 7 -8q40 0 72.5 -14t54 -33.5t41.5 -54t31 -61.5t26 -70q-183 -142 -336 -142q-135 0 -135 199q0 162 86 402q64 4 319.5 30.5t345.5 26.5q23 0 23 10
q0 8 -20 8q-101 0 -286.5 1t-350.5 1q39 96 76.5 157.5t58.5 61.5q14 0 14 -38q0 -13 12 -13t19.5 8t7.5 19q0 17 -16.5 32t-44.5 15q-36 0 -92 -67.5t-113 -174.5h-66q-41 0 -41 -22q0 -16 18 -31.5t50 -21.5q-123 -264 -123 -461q0 -250 221 -250q180 0 387 207
q16 -46 28.5 -75t33 -60.5t48 -46.5t62.5 -15z" />
    <glyph glyph-name="Agrave" unicode="&#xc0;" 
d="M1675 391q44 0 87 40t64 80l21 40q-3 -9 -8.5 -24t-26 -54t-45.5 -70t-67 -58.5t-90 -33.5q-114 -112 -265 -174.5t-317 -62.5q-169 0 -322.5 65.5t-264.5 176t-176.5 264t-65.5 321.5q0 70 14 156q-64 -47 -127 -109q12 21 27.5 46t56 80.5t84 104.5t109 106.5t133 98
t154.5 68t175 27.5q113 0 113 -66q0 -44 -51 -126t-123.5 -176.5t-145 -195t-123.5 -207.5t-51 -188q0 -59 35.5 -98t91.5 -39q49 0 89 37.5t40 79.5q0 10 -10 10q-6 -2 -22 -2q-60 0 -60 74q0 59 43 149.5t104.5 183.5t123 184.5t104.5 174.5t43 131q0 56 -42 95.5
t-122 39.5q-171 0 -322 -82.5t-270 -216.5q100 220 304 355t454 135q135 0 261 -42t228 -118.5t178.5 -178.5t118 -229t41.5 -262q0 -221 -110 -414q-27 -10 -43 -10q-62 0 -98.5 41.5t-57.5 114.5q127 139 215 295q6 12 6 18t-4 6q-8 0 -16 -16q-80 -147 -211 -266
q-6 26 -15.5 71t-15.5 72.5t-17.5 62t-24 54t-33.5 33.5t-48 14t-50 -11t-37.5 -29.5t-23 -33.5t-14.5 -31q0 -8 7 -8q40 0 72.5 -14t54 -33.5t41.5 -54t31 -61.5t26 -70q-183 -142 -336 -142q-135 0 -135 199q0 162 86 402q64 4 319.5 30.5t345.5 26.5q23 0 23 10
q0 8 -20 8q-101 0 -286.5 1t-350.5 1q39 96 76.5 157.5t58.5 61.5q14 0 14 -38q0 -13 12 -13t19.5 8t7.5 19q0 17 -16.5 32t-44.5 15q-36 0 -92 -67.5t-113 -174.5h-66q-41 0 -41 -22q0 -16 18 -31.5t50 -21.5q-123 -264 -123 -461q0 -250 221 -250q180 0 387 207
q16 -46 28.5 -75t33 -60.5t48 -46.5t62.5 -15z" />
    <glyph glyph-name="Aacute" unicode="&#xc1;" 
d="M1675 391q44 0 87 40t64 80l21 40q-3 -9 -8.5 -24t-26 -54t-45.5 -70t-67 -58.5t-90 -33.5q-114 -112 -265 -174.5t-317 -62.5q-169 0 -322.5 65.5t-264.5 176t-176.5 264t-65.5 321.5q0 70 14 156q-64 -47 -127 -109q12 21 27.5 46t56 80.5t84 104.5t109 106.5t133 98
t154.5 68t175 27.5q113 0 113 -66q0 -44 -51 -126t-123.5 -176.5t-145 -195t-123.5 -207.5t-51 -188q0 -59 35.5 -98t91.5 -39q49 0 89 37.5t40 79.5q0 10 -10 10q-6 -2 -22 -2q-60 0 -60 74q0 59 43 149.5t104.5 183.5t123 184.5t104.5 174.5t43 131q0 56 -42 95.5
t-122 39.5q-171 0 -322 -82.5t-270 -216.5q100 220 304 355t454 135q135 0 261 -42t228 -118.5t178.5 -178.5t118 -229t41.5 -262q0 -221 -110 -414q-27 -10 -43 -10q-62 0 -98.5 41.5t-57.5 114.5q127 139 215 295q6 12 6 18t-4 6q-8 0 -16 -16q-80 -147 -211 -266
q-6 26 -15.5 71t-15.5 72.5t-17.5 62t-24 54t-33.5 33.5t-48 14t-50 -11t-37.5 -29.5t-23 -33.5t-14.5 -31q0 -8 7 -8q40 0 72.5 -14t54 -33.5t41.5 -54t31 -61.5t26 -70q-183 -142 -336 -142q-135 0 -135 199q0 162 86 402q64 4 319.5 30.5t345.5 26.5q23 0 23 10
q0 8 -20 8q-101 0 -286.5 1t-350.5 1q39 96 76.5 157.5t58.5 61.5q14 0 14 -38q0 -13 12 -13t19.5 8t7.5 19q0 17 -16.5 32t-44.5 15q-36 0 -92 -67.5t-113 -174.5h-66q-41 0 -41 -22q0 -16 18 -31.5t50 -21.5q-123 -264 -123 -461q0 -250 221 -250q180 0 387 207
q16 -46 28.5 -75t33 -60.5t48 -46.5t62.5 -15z" />
    <glyph glyph-name="Acircumflex" unicode="&#xc2;" 
d="M1675 391q44 0 87 40t64 80l21 40q-3 -9 -8.5 -24t-26 -54t-45.5 -70t-67 -58.5t-90 -33.5q-114 -112 -265 -174.5t-317 -62.5q-169 0 -322.5 65.5t-264.5 176t-176.5 264t-65.5 321.5q0 70 14 156q-64 -47 -127 -109q12 21 27.5 46t56 80.5t84 104.5t109 106.5t133 98
t154.5 68t175 27.5q113 0 113 -66q0 -44 -51 -126t-123.5 -176.5t-145 -195t-123.5 -207.5t-51 -188q0 -59 35.5 -98t91.5 -39q49 0 89 37.5t40 79.5q0 10 -10 10q-6 -2 -22 -2q-60 0 -60 74q0 59 43 149.5t104.5 183.5t123 184.5t104.5 174.5t43 131q0 56 -42 95.5
t-122 39.5q-171 0 -322 -82.5t-270 -216.5q100 220 304 355t454 135q135 0 261 -42t228 -118.5t178.5 -178.5t118 -229t41.5 -262q0 -221 -110 -414q-27 -10 -43 -10q-62 0 -98.5 41.5t-57.5 114.5q127 139 215 295q6 12 6 18t-4 6q-8 0 -16 -16q-80 -147 -211 -266
q-6 26 -15.5 71t-15.5 72.5t-17.5 62t-24 54t-33.5 33.5t-48 14t-50 -11t-37.5 -29.5t-23 -33.5t-14.5 -31q0 -8 7 -8q40 0 72.5 -14t54 -33.5t41.5 -54t31 -61.5t26 -70q-183 -142 -336 -142q-135 0 -135 199q0 162 86 402q64 4 319.5 30.5t345.5 26.5q23 0 23 10
q0 8 -20 8q-101 0 -286.5 1t-350.5 1q39 96 76.5 157.5t58.5 61.5q14 0 14 -38q0 -13 12 -13t19.5 8t7.5 19q0 17 -16.5 32t-44.5 15q-36 0 -92 -67.5t-113 -174.5h-66q-41 0 -41 -22q0 -16 18 -31.5t50 -21.5q-123 -264 -123 -461q0 -250 221 -250q180 0 387 207
q16 -46 28.5 -75t33 -60.5t48 -46.5t62.5 -15z" />
    <glyph glyph-name="Atilde" unicode="&#xc3;" 
d="M1675 391q44 0 87 40t64 80l21 40q-3 -9 -8.5 -24t-26 -54t-45.5 -70t-67 -58.5t-90 -33.5q-114 -112 -265 -174.5t-317 -62.5q-169 0 -322.5 65.5t-264.5 176t-176.5 264t-65.5 321.5q0 70 14 156q-64 -47 -127 -109q12 21 27.5 46t56 80.5t84 104.5t109 106.5t133 98
t154.5 68t175 27.5q113 0 113 -66q0 -44 -51 -126t-123.5 -176.5t-145 -195t-123.5 -207.5t-51 -188q0 -59 35.5 -98t91.5 -39q49 0 89 37.5t40 79.5q0 10 -10 10q-6 -2 -22 -2q-60 0 -60 74q0 59 43 149.5t104.5 183.5t123 184.5t104.5 174.5t43 131q0 56 -42 95.5
t-122 39.5q-171 0 -322 -82.5t-270 -216.5q100 220 304 355t454 135q135 0 261 -42t228 -118.5t178.5 -178.5t118 -229t41.5 -262q0 -221 -110 -414q-27 -10 -43 -10q-62 0 -98.5 41.5t-57.5 114.5q127 139 215 295q6 12 6 18t-4 6q-8 0 -16 -16q-80 -147 -211 -266
q-6 26 -15.5 71t-15.5 72.5t-17.5 62t-24 54t-33.5 33.5t-48 14t-50 -11t-37.5 -29.5t-23 -33.5t-14.5 -31q0 -8 7 -8q40 0 72.5 -14t54 -33.5t41.5 -54t31 -61.5t26 -70q-183 -142 -336 -142q-135 0 -135 199q0 162 86 402q64 4 319.5 30.5t345.5 26.5q23 0 23 10
q0 8 -20 8q-101 0 -286.5 1t-350.5 1q39 96 76.5 157.5t58.5 61.5q14 0 14 -38q0 -13 12 -13t19.5 8t7.5 19q0 17 -16.5 32t-44.5 15q-36 0 -92 -67.5t-113 -174.5h-66q-41 0 -41 -22q0 -16 18 -31.5t50 -21.5q-123 -264 -123 -461q0 -250 221 -250q180 0 387 207
q16 -46 28.5 -75t33 -60.5t48 -46.5t62.5 -15z" />
    <glyph glyph-name="Adieresis" unicode="&#xc4;" 
d="M1675 391q44 0 87 40t64 80l21 40q-3 -9 -8.5 -24t-26 -54t-45.5 -70t-67 -58.5t-90 -33.5q-114 -112 -265 -174.5t-317 -62.5q-169 0 -322.5 65.5t-264.5 176t-176.5 264t-65.5 321.5q0 70 14 156q-64 -47 -127 -109q12 21 27.5 46t56 80.5t84 104.5t109 106.5t133 98
t154.5 68t175 27.5q113 0 113 -66q0 -44 -51 -126t-123.5 -176.5t-145 -195t-123.5 -207.5t-51 -188q0 -59 35.5 -98t91.5 -39q49 0 89 37.5t40 79.5q0 10 -10 10q-6 -2 -22 -2q-60 0 -60 74q0 59 43 149.5t104.5 183.5t123 184.5t104.5 174.5t43 131q0 56 -42 95.5
t-122 39.5q-171 0 -322 -82.5t-270 -216.5q100 220 304 355t454 135q135 0 261 -42t228 -118.5t178.5 -178.5t118 -229t41.5 -262q0 -221 -110 -414q-27 -10 -43 -10q-62 0 -98.5 41.5t-57.5 114.5q127 139 215 295q6 12 6 18t-4 6q-8 0 -16 -16q-80 -147 -211 -266
q-6 26 -15.5 71t-15.5 72.5t-17.5 62t-24 54t-33.5 33.5t-48 14t-50 -11t-37.5 -29.5t-23 -33.5t-14.5 -31q0 -8 7 -8q40 0 72.5 -14t54 -33.5t41.5 -54t31 -61.5t26 -70q-183 -142 -336 -142q-135 0 -135 199q0 162 86 402q64 4 319.5 30.5t345.5 26.5q23 0 23 10
q0 8 -20 8q-101 0 -286.5 1t-350.5 1q39 96 76.5 157.5t58.5 61.5q14 0 14 -38q0 -13 12 -13t19.5 8t7.5 19q0 17 -16.5 32t-44.5 15q-36 0 -92 -67.5t-113 -174.5h-66q-41 0 -41 -22q0 -16 18 -31.5t50 -21.5q-123 -264 -123 -461q0 -250 221 -250q180 0 387 207
q16 -46 28.5 -75t33 -60.5t48 -46.5t62.5 -15z" />
    <glyph glyph-name="Aring" unicode="&#xc5;" 
d="M1675 391q44 0 87 40t64 80l21 40q-3 -9 -8.5 -24t-26 -54t-45.5 -70t-67 -58.5t-90 -33.5q-114 -112 -265 -174.5t-317 -62.5q-169 0 -322.5 65.5t-264.5 176t-176.5 264t-65.5 321.5q0 70 14 156q-64 -47 -127 -109q12 21 27.5 46t56 80.5t84 104.5t109 106.5t133 98
t154.5 68t175 27.5q113 0 113 -66q0 -44 -51 -126t-123.5 -176.5t-145 -195t-123.5 -207.5t-51 -188q0 -59 35.5 -98t91.5 -39q49 0 89 37.5t40 79.5q0 10 -10 10q-6 -2 -22 -2q-60 0 -60 74q0 59 43 149.5t104.5 183.5t123 184.5t104.5 174.5t43 131q0 56 -42 95.5
t-122 39.5q-171 0 -322 -82.5t-270 -216.5q100 220 304 355t454 135q135 0 261 -42t228 -118.5t178.5 -178.5t118 -229t41.5 -262q0 -221 -110 -414q-27 -10 -43 -10q-62 0 -98.5 41.5t-57.5 114.5q127 139 215 295q6 12 6 18t-4 6q-8 0 -16 -16q-80 -147 -211 -266
q-6 26 -15.5 71t-15.5 72.5t-17.5 62t-24 54t-33.5 33.5t-48 14t-50 -11t-37.5 -29.5t-23 -33.5t-14.5 -31q0 -8 7 -8q40 0 72.5 -14t54 -33.5t41.5 -54t31 -61.5t26 -70q-183 -142 -336 -142q-135 0 -135 199q0 162 86 402q64 4 319.5 30.5t345.5 26.5q23 0 23 10
q0 8 -20 8q-101 0 -286.5 1t-350.5 1q39 96 76.5 157.5t58.5 61.5q14 0 14 -38q0 -13 12 -13t19.5 8t7.5 19q0 17 -16.5 32t-44.5 15q-36 0 -92 -67.5t-113 -174.5h-66q-41 0 -41 -22q0 -16 18 -31.5t50 -21.5q-123 -264 -123 -461q0 -250 221 -250q180 0 387 207
q16 -46 28.5 -75t33 -60.5t48 -46.5t62.5 -15z" />
    <glyph glyph-name="AE" unicode="&#xc6;" 
d="M1675 391q44 0 87 40t64 80l21 40q-3 -9 -8.5 -24t-26 -54t-45.5 -70t-67 -58.5t-90 -33.5q-114 -112 -265 -174.5t-317 -62.5q-169 0 -322.5 65.5t-264.5 176t-176.5 264t-65.5 321.5q0 70 14 156q-64 -47 -127 -109q12 21 27.5 46t56 80.5t84 104.5t109 106.5t133 98
t154.5 68t175 27.5q113 0 113 -66q0 -44 -51 -126t-123.5 -176.5t-145 -195t-123.5 -207.5t-51 -188q0 -59 35.5 -98t91.5 -39q49 0 89 37.5t40 79.5q0 10 -10 10q-6 -2 -22 -2q-60 0 -60 74q0 59 43 149.5t104.5 183.5t123 184.5t104.5 174.5t43 131q0 56 -42 95.5
t-122 39.5q-171 0 -322 -82.5t-270 -216.5q100 220 304 355t454 135q135 0 261 -42t228 -118.5t178.5 -178.5t118 -229t41.5 -262q0 -221 -110 -414q-27 -10 -43 -10q-62 0 -98.5 41.5t-57.5 114.5q127 139 215 295q6 12 6 18t-4 6q-8 0 -16 -16q-80 -147 -211 -266
q-6 26 -15.5 71t-15.5 72.5t-17.5 62t-24 54t-33.5 33.5t-48 14t-50 -11t-37.5 -29.5t-23 -33.5t-14.5 -31q0 -8 7 -8q40 0 72.5 -14t54 -33.5t41.5 -54t31 -61.5t26 -70q-183 -142 -336 -142q-135 0 -135 199q0 162 86 402q64 4 319.5 30.5t345.5 26.5q23 0 23 10
q0 8 -20 8q-101 0 -286.5 1t-350.5 1q39 96 76.5 157.5t58.5 61.5q14 0 14 -38q0 -13 12 -13t19.5 8t7.5 19q0 17 -16.5 32t-44.5 15q-36 0 -92 -67.5t-113 -174.5h-66q-41 0 -41 -22q0 -16 18 -31.5t50 -21.5q-123 -264 -123 -461q0 -250 221 -250q180 0 387 207
q16 -46 28.5 -75t33 -60.5t48 -46.5t62.5 -15z" />
    <glyph glyph-name="Ccedilla" unicode="&#xc7;" 
d="M1675 391q44 0 87 40t64 80l21 40q-3 -9 -8.5 -24t-26 -54t-45.5 -70t-67 -58.5t-90 -33.5q-114 -112 -265 -174.5t-317 -62.5q-169 0 -322.5 65.5t-264.5 176t-176.5 264t-65.5 321.5q0 70 14 156q-64 -47 -127 -109q12 21 27.5 46t56 80.5t84 104.5t109 106.5t133 98
t154.5 68t175 27.5q113 0 113 -66q0 -44 -51 -126t-123.5 -176.5t-145 -195t-123.5 -207.5t-51 -188q0 -59 35.5 -98t91.5 -39q49 0 89 37.5t40 79.5q0 10 -10 10q-6 -2 -22 -2q-60 0 -60 74q0 59 43 149.5t104.5 183.5t123 184.5t104.5 174.5t43 131q0 56 -42 95.5
t-122 39.5q-171 0 -322 -82.5t-270 -216.5q100 220 304 355t454 135q135 0 261 -42t228 -118.5t178.5 -178.5t118 -229t41.5 -262q0 -221 -110 -414q-27 -10 -43 -10q-62 0 -98.5 41.5t-57.5 114.5q127 139 215 295q6 12 6 18t-4 6q-8 0 -16 -16q-80 -147 -211 -266
q-6 26 -15.5 71t-15.5 72.5t-17.5 62t-24 54t-33.5 33.5t-48 14t-50 -11t-37.5 -29.5t-23 -33.5t-14.5 -31q0 -8 7 -8q40 0 72.5 -14t54 -33.5t41.5 -54t31 -61.5t26 -70q-183 -142 -336 -142q-135 0 -135 199q0 162 86 402q64 4 319.5 30.5t345.5 26.5q23 0 23 10
q0 8 -20 8q-101 0 -286.5 1t-350.5 1q39 96 76.5 157.5t58.5 61.5q14 0 14 -38q0 -13 12 -13t19.5 8t7.5 19q0 17 -16.5 32t-44.5 15q-36 0 -92 -67.5t-113 -174.5h-66q-41 0 -41 -22q0 -16 18 -31.5t50 -21.5q-123 -264 -123 -461q0 -250 221 -250q180 0 387 207
q16 -46 28.5 -75t33 -60.5t48 -46.5t62.5 -15z" />
    <glyph glyph-name="Egrave" unicode="&#xc8;" 
d="M1675 391q44 0 87 40t64 80l21 40q-3 -9 -8.5 -24t-26 -54t-45.5 -70t-67 -58.5t-90 -33.5q-114 -112 -265 -174.5t-317 -62.5q-169 0 -322.5 65.5t-264.5 176t-176.5 264t-65.5 321.5q0 70 14 156q-64 -47 -127 -109q12 21 27.5 46t56 80.5t84 104.5t109 106.5t133 98
t154.5 68t175 27.5q113 0 113 -66q0 -44 -51 -126t-123.5 -176.5t-145 -195t-123.5 -207.5t-51 -188q0 -59 35.5 -98t91.5 -39q49 0 89 37.5t40 79.5q0 10 -10 10q-6 -2 -22 -2q-60 0 -60 74q0 59 43 149.5t104.5 183.5t123 184.5t104.5 174.5t43 131q0 56 -42 95.5
t-122 39.5q-171 0 -322 -82.5t-270 -216.5q100 220 304 355t454 135q135 0 261 -42t228 -118.5t178.5 -178.5t118 -229t41.5 -262q0 -221 -110 -414q-27 -10 -43 -10q-62 0 -98.5 41.5t-57.5 114.5q127 139 215 295q6 12 6 18t-4 6q-8 0 -16 -16q-80 -147 -211 -266
q-6 26 -15.5 71t-15.5 72.5t-17.5 62t-24 54t-33.5 33.5t-48 14t-50 -11t-37.5 -29.5t-23 -33.5t-14.5 -31q0 -8 7 -8q40 0 72.5 -14t54 -33.5t41.5 -54t31 -61.5t26 -70q-183 -142 -336 -142q-135 0 -135 199q0 162 86 402q64 4 319.5 30.5t345.5 26.5q23 0 23 10
q0 8 -20 8q-101 0 -286.5 1t-350.5 1q39 96 76.5 157.5t58.5 61.5q14 0 14 -38q0 -13 12 -13t19.5 8t7.5 19q0 17 -16.5 32t-44.5 15q-36 0 -92 -67.5t-113 -174.5h-66q-41 0 -41 -22q0 -16 18 -31.5t50 -21.5q-123 -264 -123 -461q0 -250 221 -250q180 0 387 207
q16 -46 28.5 -75t33 -60.5t48 -46.5t62.5 -15z" />
    <glyph glyph-name="Eacute" unicode="&#xc9;" 
d="M1675 391q44 0 87 40t64 80l21 40q-3 -9 -8.5 -24t-26 -54t-45.5 -70t-67 -58.5t-90 -33.5q-114 -112 -265 -174.5t-317 -62.5q-169 0 -322.5 65.5t-264.5 176t-176.5 264t-65.5 321.5q0 70 14 156q-64 -47 -127 -109q12 21 27.5 46t56 80.5t84 104.5t109 106.5t133 98
t154.5 68t175 27.5q113 0 113 -66q0 -44 -51 -126t-123.5 -176.5t-145 -195t-123.5 -207.5t-51 -188q0 -59 35.5 -98t91.5 -39q49 0 89 37.5t40 79.5q0 10 -10 10q-6 -2 -22 -2q-60 0 -60 74q0 59 43 149.5t104.5 183.5t123 184.5t104.5 174.5t43 131q0 56 -42 95.5
t-122 39.5q-171 0 -322 -82.5t-270 -216.5q100 220 304 355t454 135q135 0 261 -42t228 -118.5t178.5 -178.5t118 -229t41.5 -262q0 -221 -110 -414q-27 -10 -43 -10q-62 0 -98.5 41.5t-57.5 114.5q127 139 215 295q6 12 6 18t-4 6q-8 0 -16 -16q-80 -147 -211 -266
q-6 26 -15.5 71t-15.5 72.5t-17.5 62t-24 54t-33.5 33.5t-48 14t-50 -11t-37.5 -29.5t-23 -33.5t-14.5 -31q0 -8 7 -8q40 0 72.5 -14t54 -33.5t41.5 -54t31 -61.5t26 -70q-183 -142 -336 -142q-135 0 -135 199q0 162 86 402q64 4 319.5 30.5t345.5 26.5q23 0 23 10
q0 8 -20 8q-101 0 -286.5 1t-350.5 1q39 96 76.5 157.5t58.5 61.5q14 0 14 -38q0 -13 12 -13t19.5 8t7.5 19q0 17 -16.5 32t-44.5 15q-36 0 -92 -67.5t-113 -174.5h-66q-41 0 -41 -22q0 -16 18 -31.5t50 -21.5q-123 -264 -123 -461q0 -250 221 -250q180 0 387 207
q16 -46 28.5 -75t33 -60.5t48 -46.5t62.5 -15z" />
    <glyph glyph-name="Ecircumflex" unicode="&#xca;" 
d="M1675 391q44 0 87 40t64 80l21 40q-3 -9 -8.5 -24t-26 -54t-45.5 -70t-67 -58.5t-90 -33.5q-114 -112 -265 -174.5t-317 -62.5q-169 0 -322.5 65.5t-264.5 176t-176.5 264t-65.5 321.5q0 70 14 156q-64 -47 -127 -109q12 21 27.5 46t56 80.5t84 104.5t109 106.5t133 98
t154.5 68t175 27.5q113 0 113 -66q0 -44 -51 -126t-123.5 -176.5t-145 -195t-123.5 -207.5t-51 -188q0 -59 35.5 -98t91.5 -39q49 0 89 37.5t40 79.5q0 10 -10 10q-6 -2 -22 -2q-60 0 -60 74q0 59 43 149.5t104.5 183.5t123 184.5t104.5 174.5t43 131q0 56 -42 95.5
t-122 39.5q-171 0 -322 -82.5t-270 -216.5q100 220 304 355t454 135q135 0 261 -42t228 -118.5t178.5 -178.5t118 -229t41.5 -262q0 -221 -110 -414q-27 -10 -43 -10q-62 0 -98.5 41.5t-57.5 114.5q127 139 215 295q6 12 6 18t-4 6q-8 0 -16 -16q-80 -147 -211 -266
q-6 26 -15.5 71t-15.5 72.5t-17.5 62t-24 54t-33.5 33.5t-48 14t-50 -11t-37.5 -29.5t-23 -33.5t-14.5 -31q0 -8 7 -8q40 0 72.5 -14t54 -33.5t41.5 -54t31 -61.5t26 -70q-183 -142 -336 -142q-135 0 -135 199q0 162 86 402q64 4 319.5 30.5t345.5 26.5q23 0 23 10
q0 8 -20 8q-101 0 -286.5 1t-350.5 1q39 96 76.5 157.5t58.5 61.5q14 0 14 -38q0 -13 12 -13t19.5 8t7.5 19q0 17 -16.5 32t-44.5 15q-36 0 -92 -67.5t-113 -174.5h-66q-41 0 -41 -22q0 -16 18 -31.5t50 -21.5q-123 -264 -123 -461q0 -250 221 -250q180 0 387 207
q16 -46 28.5 -75t33 -60.5t48 -46.5t62.5 -15z" />
    <glyph glyph-name="Edieresis" unicode="&#xcb;" 
d="M1675 391q44 0 87 40t64 80l21 40q-3 -9 -8.5 -24t-26 -54t-45.5 -70t-67 -58.5t-90 -33.5q-114 -112 -265 -174.5t-317 -62.5q-169 0 -322.5 65.5t-264.5 176t-176.5 264t-65.5 321.5q0 70 14 156q-64 -47 -127 -109q12 21 27.5 46t56 80.5t84 104.5t109 106.5t133 98
t154.5 68t175 27.5q113 0 113 -66q0 -44 -51 -126t-123.5 -176.5t-145 -195t-123.5 -207.5t-51 -188q0 -59 35.5 -98t91.5 -39q49 0 89 37.5t40 79.5q0 10 -10 10q-6 -2 -22 -2q-60 0 -60 74q0 59 43 149.5t104.5 183.5t123 184.5t104.5 174.5t43 131q0 56 -42 95.5
t-122 39.5q-171 0 -322 -82.5t-270 -216.5q100 220 304 355t454 135q135 0 261 -42t228 -118.5t178.5 -178.5t118 -229t41.5 -262q0 -221 -110 -414q-27 -10 -43 -10q-62 0 -98.5 41.5t-57.5 114.5q127 139 215 295q6 12 6 18t-4 6q-8 0 -16 -16q-80 -147 -211 -266
q-6 26 -15.5 71t-15.5 72.5t-17.5 62t-24 54t-33.5 33.5t-48 14t-50 -11t-37.5 -29.5t-23 -33.5t-14.5 -31q0 -8 7 -8q40 0 72.5 -14t54 -33.5t41.5 -54t31 -61.5t26 -70q-183 -142 -336 -142q-135 0 -135 199q0 162 86 402q64 4 319.5 30.5t345.5 26.5q23 0 23 10
q0 8 -20 8q-101 0 -286.5 1t-350.5 1q39 96 76.5 157.5t58.5 61.5q14 0 14 -38q0 -13 12 -13t19.5 8t7.5 19q0 17 -16.5 32t-44.5 15q-36 0 -92 -67.5t-113 -174.5h-66q-41 0 -41 -22q0 -16 18 -31.5t50 -21.5q-123 -264 -123 -461q0 -250 221 -250q180 0 387 207
q16 -46 28.5 -75t33 -60.5t48 -46.5t62.5 -15z" />
    <glyph glyph-name="Igrave" unicode="&#xcc;" 
d="M1675 391q44 0 87 40t64 80l21 40q-3 -9 -8.5 -24t-26 -54t-45.5 -70t-67 -58.5t-90 -33.5q-114 -112 -265 -174.5t-317 -62.5q-169 0 -322.5 65.5t-264.5 176t-176.5 264t-65.5 321.5q0 70 14 156q-64 -47 -127 -109q12 21 27.5 46t56 80.5t84 104.5t109 106.5t133 98
t154.5 68t175 27.5q113 0 113 -66q0 -44 -51 -126t-123.5 -176.5t-145 -195t-123.5 -207.5t-51 -188q0 -59 35.5 -98t91.5 -39q49 0 89 37.5t40 79.5q0 10 -10 10q-6 -2 -22 -2q-60 0 -60 74q0 59 43 149.5t104.5 183.5t123 184.5t104.5 174.5t43 131q0 56 -42 95.5
t-122 39.5q-171 0 -322 -82.5t-270 -216.5q100 220 304 355t454 135q135 0 261 -42t228 -118.5t178.5 -178.5t118 -229t41.5 -262q0 -221 -110 -414q-27 -10 -43 -10q-62 0 -98.5 41.5t-57.5 114.5q127 139 215 295q6 12 6 18t-4 6q-8 0 -16 -16q-80 -147 -211 -266
q-6 26 -15.5 71t-15.5 72.5t-17.5 62t-24 54t-33.5 33.5t-48 14t-50 -11t-37.5 -29.5t-23 -33.5t-14.5 -31q0 -8 7 -8q40 0 72.5 -14t54 -33.5t41.5 -54t31 -61.5t26 -70q-183 -142 -336 -142q-135 0 -135 199q0 162 86 402q64 4 319.5 30.5t345.5 26.5q23 0 23 10
q0 8 -20 8q-101 0 -286.5 1t-350.5 1q39 96 76.5 157.5t58.5 61.5q14 0 14 -38q0 -13 12 -13t19.5 8t7.5 19q0 17 -16.5 32t-44.5 15q-36 0 -92 -67.5t-113 -174.5h-66q-41 0 -41 -22q0 -16 18 -31.5t50 -21.5q-123 -264 -123 -461q0 -250 221 -250q180 0 387 207
q16 -46 28.5 -75t33 -60.5t48 -46.5t62.5 -15z" />
    <glyph glyph-name="Iacute" unicode="&#xcd;" 
d="M1675 391q44 0 87 40t64 80l21 40q-3 -9 -8.5 -24t-26 -54t-45.5 -70t-67 -58.5t-90 -33.5q-114 -112 -265 -174.5t-317 -62.5q-169 0 -322.5 65.5t-264.5 176t-176.5 264t-65.5 321.5q0 70 14 156q-64 -47 -127 -109q12 21 27.5 46t56 80.5t84 104.5t109 106.5t133 98
t154.5 68t175 27.5q113 0 113 -66q0 -44 -51 -126t-123.5 -176.5t-145 -195t-123.5 -207.5t-51 -188q0 -59 35.5 -98t91.5 -39q49 0 89 37.5t40 79.5q0 10 -10 10q-6 -2 -22 -2q-60 0 -60 74q0 59 43 149.5t104.5 183.5t123 184.5t104.5 174.5t43 131q0 56 -42 95.5
t-122 39.5q-171 0 -322 -82.5t-270 -216.5q100 220 304 355t454 135q135 0 261 -42t228 -118.5t178.5 -178.5t118 -229t41.5 -262q0 -221 -110 -414q-27 -10 -43 -10q-62 0 -98.5 41.5t-57.5 114.5q127 139 215 295q6 12 6 18t-4 6q-8 0 -16 -16q-80 -147 -211 -266
q-6 26 -15.5 71t-15.5 72.5t-17.5 62t-24 54t-33.5 33.5t-48 14t-50 -11t-37.5 -29.5t-23 -33.5t-14.5 -31q0 -8 7 -8q40 0 72.5 -14t54 -33.5t41.5 -54t31 -61.5t26 -70q-183 -142 -336 -142q-135 0 -135 199q0 162 86 402q64 4 319.5 30.5t345.5 26.5q23 0 23 10
q0 8 -20 8q-101 0 -286.5 1t-350.5 1q39 96 76.5 157.5t58.5 61.5q14 0 14 -38q0 -13 12 -13t19.5 8t7.5 19q0 17 -16.5 32t-44.5 15q-36 0 -92 -67.5t-113 -174.5h-66q-41 0 -41 -22q0 -16 18 -31.5t50 -21.5q-123 -264 -123 -461q0 -250 221 -250q180 0 387 207
q16 -46 28.5 -75t33 -60.5t48 -46.5t62.5 -15z" />
    <glyph glyph-name="Icircumflex" unicode="&#xce;" 
d="M1675 391q44 0 87 40t64 80l21 40q-3 -9 -8.5 -24t-26 -54t-45.5 -70t-67 -58.5t-90 -33.5q-114 -112 -265 -174.5t-317 -62.5q-169 0 -322.5 65.5t-264.5 176t-176.5 264t-65.5 321.5q0 70 14 156q-64 -47 -127 -109q12 21 27.5 46t56 80.5t84 104.5t109 106.5t133 98
t154.5 68t175 27.5q113 0 113 -66q0 -44 -51 -126t-123.5 -176.5t-145 -195t-123.5 -207.5t-51 -188q0 -59 35.5 -98t91.5 -39q49 0 89 37.5t40 79.5q0 10 -10 10q-6 -2 -22 -2q-60 0 -60 74q0 59 43 149.5t104.5 183.5t123 184.5t104.5 174.5t43 131q0 56 -42 95.5
t-122 39.5q-171 0 -322 -82.5t-270 -216.5q100 220 304 355t454 135q135 0 261 -42t228 -118.5t178.5 -178.5t118 -229t41.5 -262q0 -221 -110 -414q-27 -10 -43 -10q-62 0 -98.5 41.5t-57.5 114.5q127 139 215 295q6 12 6 18t-4 6q-8 0 -16 -16q-80 -147 -211 -266
q-6 26 -15.5 71t-15.5 72.5t-17.5 62t-24 54t-33.5 33.5t-48 14t-50 -11t-37.5 -29.5t-23 -33.5t-14.5 -31q0 -8 7 -8q40 0 72.5 -14t54 -33.5t41.5 -54t31 -61.5t26 -70q-183 -142 -336 -142q-135 0 -135 199q0 162 86 402q64 4 319.5 30.5t345.5 26.5q23 0 23 10
q0 8 -20 8q-101 0 -286.5 1t-350.5 1q39 96 76.5 157.5t58.5 61.5q14 0 14 -38q0 -13 12 -13t19.5 8t7.5 19q0 17 -16.5 32t-44.5 15q-36 0 -92 -67.5t-113 -174.5h-66q-41 0 -41 -22q0 -16 18 -31.5t50 -21.5q-123 -264 -123 -461q0 -250 221 -250q180 0 387 207
q16 -46 28.5 -75t33 -60.5t48 -46.5t62.5 -15z" />
    <glyph glyph-name="Idieresis" unicode="&#xcf;" 
d="M1675 391q44 0 87 40t64 80l21 40q-3 -9 -8.5 -24t-26 -54t-45.5 -70t-67 -58.5t-90 -33.5q-114 -112 -265 -174.5t-317 -62.5q-169 0 -322.5 65.5t-264.5 176t-176.5 264t-65.5 321.5q0 70 14 156q-64 -47 -127 -109q12 21 27.5 46t56 80.5t84 104.5t109 106.5t133 98
t154.5 68t175 27.5q113 0 113 -66q0 -44 -51 -126t-123.5 -176.5t-145 -195t-123.5 -207.5t-51 -188q0 -59 35.5 -98t91.5 -39q49 0 89 37.5t40 79.5q0 10 -10 10q-6 -2 -22 -2q-60 0 -60 74q0 59 43 149.5t104.5 183.5t123 184.5t104.5 174.5t43 131q0 56 -42 95.5
t-122 39.5q-171 0 -322 -82.5t-270 -216.5q100 220 304 355t454 135q135 0 261 -42t228 -118.5t178.5 -178.5t118 -229t41.5 -262q0 -221 -110 -414q-27 -10 -43 -10q-62 0 -98.5 41.5t-57.5 114.5q127 139 215 295q6 12 6 18t-4 6q-8 0 -16 -16q-80 -147 -211 -266
q-6 26 -15.5 71t-15.5 72.5t-17.5 62t-24 54t-33.5 33.5t-48 14t-50 -11t-37.5 -29.5t-23 -33.5t-14.5 -31q0 -8 7 -8q40 0 72.5 -14t54 -33.5t41.5 -54t31 -61.5t26 -70q-183 -142 -336 -142q-135 0 -135 199q0 162 86 402q64 4 319.5 30.5t345.5 26.5q23 0 23 10
q0 8 -20 8q-101 0 -286.5 1t-350.5 1q39 96 76.5 157.5t58.5 61.5q14 0 14 -38q0 -13 12 -13t19.5 8t7.5 19q0 17 -16.5 32t-44.5 15q-36 0 -92 -67.5t-113 -174.5h-66q-41 0 -41 -22q0 -16 18 -31.5t50 -21.5q-123 -264 -123 -461q0 -250 221 -250q180 0 387 207
q16 -46 28.5 -75t33 -60.5t48 -46.5t62.5 -15z" />
    <glyph glyph-name="Eth" unicode="&#xd0;" 
d="M1675 391q44 0 87 40t64 80l21 40q-3 -9 -8.5 -24t-26 -54t-45.5 -70t-67 -58.5t-90 -33.5q-114 -112 -265 -174.5t-317 -62.5q-169 0 -322.5 65.5t-264.5 176t-176.5 264t-65.5 321.5q0 70 14 156q-64 -47 -127 -109q12 21 27.5 46t56 80.5t84 104.5t109 106.5t133 98
t154.5 68t175 27.5q113 0 113 -66q0 -44 -51 -126t-123.5 -176.5t-145 -195t-123.5 -207.5t-51 -188q0 -59 35.5 -98t91.5 -39q49 0 89 37.5t40 79.5q0 10 -10 10q-6 -2 -22 -2q-60 0 -60 74q0 59 43 149.5t104.5 183.5t123 184.5t104.5 174.5t43 131q0 56 -42 95.5
t-122 39.5q-171 0 -322 -82.5t-270 -216.5q100 220 304 355t454 135q135 0 261 -42t228 -118.5t178.5 -178.5t118 -229t41.5 -262q0 -221 -110 -414q-27 -10 -43 -10q-62 0 -98.5 41.5t-57.5 114.5q127 139 215 295q6 12 6 18t-4 6q-8 0 -16 -16q-80 -147 -211 -266
q-6 26 -15.5 71t-15.5 72.5t-17.5 62t-24 54t-33.5 33.5t-48 14t-50 -11t-37.5 -29.5t-23 -33.5t-14.5 -31q0 -8 7 -8q40 0 72.5 -14t54 -33.5t41.5 -54t31 -61.5t26 -70q-183 -142 -336 -142q-135 0 -135 199q0 162 86 402q64 4 319.5 30.5t345.5 26.5q23 0 23 10
q0 8 -20 8q-101 0 -286.5 1t-350.5 1q39 96 76.5 157.5t58.5 61.5q14 0 14 -38q0 -13 12 -13t19.5 8t7.5 19q0 17 -16.5 32t-44.5 15q-36 0 -92 -67.5t-113 -174.5h-66q-41 0 -41 -22q0 -16 18 -31.5t50 -21.5q-123 -264 -123 -461q0 -250 221 -250q180 0 387 207
q16 -46 28.5 -75t33 -60.5t48 -46.5t62.5 -15z" />
    <glyph glyph-name="Ntilde" unicode="&#xd1;" 
d="M1675 391q44 0 87 40t64 80l21 40q-3 -9 -8.5 -24t-26 -54t-45.5 -70t-67 -58.5t-90 -33.5q-114 -112 -265 -174.5t-317 -62.5q-169 0 -322.5 65.5t-264.5 176t-176.5 264t-65.5 321.5q0 70 14 156q-64 -47 -127 -109q12 21 27.5 46t56 80.5t84 104.5t109 106.5t133 98
t154.5 68t175 27.5q113 0 113 -66q0 -44 -51 -126t-123.5 -176.5t-145 -195t-123.5 -207.5t-51 -188q0 -59 35.5 -98t91.5 -39q49 0 89 37.5t40 79.5q0 10 -10 10q-6 -2 -22 -2q-60 0 -60 74q0 59 43 149.5t104.5 183.5t123 184.5t104.5 174.5t43 131q0 56 -42 95.5
t-122 39.5q-171 0 -322 -82.5t-270 -216.5q100 220 304 355t454 135q135 0 261 -42t228 -118.5t178.5 -178.5t118 -229t41.5 -262q0 -221 -110 -414q-27 -10 -43 -10q-62 0 -98.5 41.5t-57.5 114.5q127 139 215 295q6 12 6 18t-4 6q-8 0 -16 -16q-80 -147 -211 -266
q-6 26 -15.5 71t-15.5 72.5t-17.5 62t-24 54t-33.5 33.5t-48 14t-50 -11t-37.5 -29.5t-23 -33.5t-14.5 -31q0 -8 7 -8q40 0 72.5 -14t54 -33.5t41.5 -54t31 -61.5t26 -70q-183 -142 -336 -142q-135 0 -135 199q0 162 86 402q64 4 319.5 30.5t345.5 26.5q23 0 23 10
q0 8 -20 8q-101 0 -286.5 1t-350.5 1q39 96 76.5 157.5t58.5 61.5q14 0 14 -38q0 -13 12 -13t19.5 8t7.5 19q0 17 -16.5 32t-44.5 15q-36 0 -92 -67.5t-113 -174.5h-66q-41 0 -41 -22q0 -16 18 -31.5t50 -21.5q-123 -264 -123 -461q0 -250 221 -250q180 0 387 207
q16 -46 28.5 -75t33 -60.5t48 -46.5t62.5 -15z" />
    <glyph glyph-name="Ograve" unicode="&#xd2;" 
d="M1675 391q44 0 87 40t64 80l21 40q-3 -9 -8.5 -24t-26 -54t-45.5 -70t-67 -58.5t-90 -33.5q-114 -112 -265 -174.5t-317 -62.5q-169 0 -322.5 65.5t-264.5 176t-176.5 264t-65.5 321.5q0 70 14 156q-64 -47 -127 -109q12 21 27.5 46t56 80.5t84 104.5t109 106.5t133 98
t154.5 68t175 27.5q113 0 113 -66q0 -44 -51 -126t-123.5 -176.5t-145 -195t-123.5 -207.5t-51 -188q0 -59 35.5 -98t91.5 -39q49 0 89 37.5t40 79.5q0 10 -10 10q-6 -2 -22 -2q-60 0 -60 74q0 59 43 149.5t104.5 183.5t123 184.5t104.5 174.5t43 131q0 56 -42 95.5
t-122 39.5q-171 0 -322 -82.5t-270 -216.5q100 220 304 355t454 135q135 0 261 -42t228 -118.5t178.5 -178.5t118 -229t41.5 -262q0 -221 -110 -414q-27 -10 -43 -10q-62 0 -98.5 41.5t-57.5 114.5q127 139 215 295q6 12 6 18t-4 6q-8 0 -16 -16q-80 -147 -211 -266
q-6 26 -15.5 71t-15.5 72.5t-17.5 62t-24 54t-33.5 33.5t-48 14t-50 -11t-37.5 -29.5t-23 -33.5t-14.5 -31q0 -8 7 -8q40 0 72.5 -14t54 -33.5t41.5 -54t31 -61.5t26 -70q-183 -142 -336 -142q-135 0 -135 199q0 162 86 402q64 4 319.5 30.5t345.5 26.5q23 0 23 10
q0 8 -20 8q-101 0 -286.5 1t-350.5 1q39 96 76.5 157.5t58.5 61.5q14 0 14 -38q0 -13 12 -13t19.5 8t7.5 19q0 17 -16.5 32t-44.5 15q-36 0 -92 -67.5t-113 -174.5h-66q-41 0 -41 -22q0 -16 18 -31.5t50 -21.5q-123 -264 -123 -461q0 -250 221 -250q180 0 387 207
q16 -46 28.5 -75t33 -60.5t48 -46.5t62.5 -15z" />
    <glyph glyph-name="Oacute" unicode="&#xd3;" 
d="M1675 391q44 0 87 40t64 80l21 40q-3 -9 -8.5 -24t-26 -54t-45.5 -70t-67 -58.5t-90 -33.5q-114 -112 -265 -174.5t-317 -62.5q-169 0 -322.5 65.5t-264.5 176t-176.5 264t-65.5 321.5q0 70 14 156q-64 -47 -127 -109q12 21 27.5 46t56 80.5t84 104.5t109 106.5t133 98
t154.5 68t175 27.5q113 0 113 -66q0 -44 -51 -126t-123.5 -176.5t-145 -195t-123.5 -207.5t-51 -188q0 -59 35.5 -98t91.5 -39q49 0 89 37.5t40 79.5q0 10 -10 10q-6 -2 -22 -2q-60 0 -60 74q0 59 43 149.5t104.5 183.5t123 184.5t104.5 174.5t43 131q0 56 -42 95.5
t-122 39.5q-171 0 -322 -82.5t-270 -216.5q100 220 304 355t454 135q135 0 261 -42t228 -118.5t178.5 -178.5t118 -229t41.5 -262q0 -221 -110 -414q-27 -10 -43 -10q-62 0 -98.5 41.5t-57.5 114.5q127 139 215 295q6 12 6 18t-4 6q-8 0 -16 -16q-80 -147 -211 -266
q-6 26 -15.5 71t-15.5 72.5t-17.5 62t-24 54t-33.5 33.5t-48 14t-50 -11t-37.5 -29.5t-23 -33.5t-14.5 -31q0 -8 7 -8q40 0 72.5 -14t54 -33.5t41.5 -54t31 -61.5t26 -70q-183 -142 -336 -142q-135 0 -135 199q0 162 86 402q64 4 319.5 30.5t345.5 26.5q23 0 23 10
q0 8 -20 8q-101 0 -286.5 1t-350.5 1q39 96 76.5 157.5t58.5 61.5q14 0 14 -38q0 -13 12 -13t19.5 8t7.5 19q0 17 -16.5 32t-44.5 15q-36 0 -92 -67.5t-113 -174.5h-66q-41 0 -41 -22q0 -16 18 -31.5t50 -21.5q-123 -264 -123 -461q0 -250 221 -250q180 0 387 207
q16 -46 28.5 -75t33 -60.5t48 -46.5t62.5 -15z" />
    <glyph glyph-name="Ocircumflex" unicode="&#xd4;" 
d="M1675 391q44 0 87 40t64 80l21 40q-3 -9 -8.5 -24t-26 -54t-45.5 -70t-67 -58.5t-90 -33.5q-114 -112 -265 -174.5t-317 -62.5q-169 0 -322.5 65.5t-264.5 176t-176.5 264t-65.5 321.5q0 70 14 156q-64 -47 -127 -109q12 21 27.5 46t56 80.5t84 104.5t109 106.5t133 98
t154.5 68t175 27.5q113 0 113 -66q0 -44 -51 -126t-123.5 -176.5t-145 -195t-123.5 -207.5t-51 -188q0 -59 35.5 -98t91.5 -39q49 0 89 37.5t40 79.5q0 10 -10 10q-6 -2 -22 -2q-60 0 -60 74q0 59 43 149.5t104.5 183.5t123 184.5t104.5 174.5t43 131q0 56 -42 95.5
t-122 39.5q-171 0 -322 -82.5t-270 -216.5q100 220 304 355t454 135q135 0 261 -42t228 -118.5t178.5 -178.5t118 -229t41.5 -262q0 -221 -110 -414q-27 -10 -43 -10q-62 0 -98.5 41.5t-57.5 114.5q127 139 215 295q6 12 6 18t-4 6q-8 0 -16 -16q-80 -147 -211 -266
q-6 26 -15.5 71t-15.5 72.5t-17.5 62t-24 54t-33.5 33.5t-48 14t-50 -11t-37.5 -29.5t-23 -33.5t-14.5 -31q0 -8 7 -8q40 0 72.5 -14t54 -33.5t41.5 -54t31 -61.5t26 -70q-183 -142 -336 -142q-135 0 -135 199q0 162 86 402q64 4 319.5 30.5t345.5 26.5q23 0 23 10
q0 8 -20 8q-101 0 -286.5 1t-350.5 1q39 96 76.5 157.5t58.5 61.5q14 0 14 -38q0 -13 12 -13t19.5 8t7.5 19q0 17 -16.5 32t-44.5 15q-36 0 -92 -67.5t-113 -174.5h-66q-41 0 -41 -22q0 -16 18 -31.5t50 -21.5q-123 -264 -123 -461q0 -250 221 -250q180 0 387 207
q16 -46 28.5 -75t33 -60.5t48 -46.5t62.5 -15z" />
    <glyph glyph-name="Otilde" unicode="&#xd5;" 
d="M1675 391q44 0 87 40t64 80l21 40q-3 -9 -8.5 -24t-26 -54t-45.5 -70t-67 -58.5t-90 -33.5q-114 -112 -265 -174.5t-317 -62.5q-169 0 -322.5 65.5t-264.5 176t-176.5 264t-65.5 321.5q0 70 14 156q-64 -47 -127 -109q12 21 27.5 46t56 80.5t84 104.5t109 106.5t133 98
t154.5 68t175 27.5q113 0 113 -66q0 -44 -51 -126t-123.5 -176.5t-145 -195t-123.5 -207.5t-51 -188q0 -59 35.5 -98t91.5 -39q49 0 89 37.5t40 79.5q0 10 -10 10q-6 -2 -22 -2q-60 0 -60 74q0 59 43 149.5t104.5 183.5t123 184.5t104.5 174.5t43 131q0 56 -42 95.5
t-122 39.5q-171 0 -322 -82.5t-270 -216.5q100 220 304 355t454 135q135 0 261 -42t228 -118.5t178.5 -178.5t118 -229t41.5 -262q0 -221 -110 -414q-27 -10 -43 -10q-62 0 -98.5 41.5t-57.5 114.5q127 139 215 295q6 12 6 18t-4 6q-8 0 -16 -16q-80 -147 -211 -266
q-6 26 -15.5 71t-15.5 72.5t-17.5 62t-24 54t-33.5 33.5t-48 14t-50 -11t-37.5 -29.5t-23 -33.5t-14.5 -31q0 -8 7 -8q40 0 72.5 -14t54 -33.5t41.5 -54t31 -61.5t26 -70q-183 -142 -336 -142q-135 0 -135 199q0 162 86 402q64 4 319.5 30.5t345.5 26.5q23 0 23 10
q0 8 -20 8q-101 0 -286.5 1t-350.5 1q39 96 76.5 157.5t58.5 61.5q14 0 14 -38q0 -13 12 -13t19.5 8t7.5 19q0 17 -16.5 32t-44.5 15q-36 0 -92 -67.5t-113 -174.5h-66q-41 0 -41 -22q0 -16 18 -31.5t50 -21.5q-123 -264 -123 -461q0 -250 221 -250q180 0 387 207
q16 -46 28.5 -75t33 -60.5t48 -46.5t62.5 -15z" />
    <glyph glyph-name="Odieresis" unicode="&#xd6;" 
d="M1675 391q44 0 87 40t64 80l21 40q-3 -9 -8.5 -24t-26 -54t-45.5 -70t-67 -58.5t-90 -33.5q-114 -112 -265 -174.5t-317 -62.5q-169 0 -322.5 65.5t-264.5 176t-176.5 264t-65.5 321.5q0 70 14 156q-64 -47 -127 -109q12 21 27.5 46t56 80.5t84 104.5t109 106.5t133 98
t154.5 68t175 27.5q113 0 113 -66q0 -44 -51 -126t-123.5 -176.5t-145 -195t-123.5 -207.5t-51 -188q0 -59 35.5 -98t91.5 -39q49 0 89 37.5t40 79.5q0 10 -10 10q-6 -2 -22 -2q-60 0 -60 74q0 59 43 149.5t104.5 183.5t123 184.5t104.5 174.5t43 131q0 56 -42 95.5
t-122 39.5q-171 0 -322 -82.5t-270 -216.5q100 220 304 355t454 135q135 0 261 -42t228 -118.5t178.5 -178.5t118 -229t41.5 -262q0 -221 -110 -414q-27 -10 -43 -10q-62 0 -98.5 41.5t-57.5 114.5q127 139 215 295q6 12 6 18t-4 6q-8 0 -16 -16q-80 -147 -211 -266
q-6 26 -15.5 71t-15.5 72.5t-17.5 62t-24 54t-33.5 33.5t-48 14t-50 -11t-37.5 -29.5t-23 -33.5t-14.5 -31q0 -8 7 -8q40 0 72.5 -14t54 -33.5t41.5 -54t31 -61.5t26 -70q-183 -142 -336 -142q-135 0 -135 199q0 162 86 402q64 4 319.5 30.5t345.5 26.5q23 0 23 10
q0 8 -20 8q-101 0 -286.5 1t-350.5 1q39 96 76.5 157.5t58.5 61.5q14 0 14 -38q0 -13 12 -13t19.5 8t7.5 19q0 17 -16.5 32t-44.5 15q-36 0 -92 -67.5t-113 -174.5h-66q-41 0 -41 -22q0 -16 18 -31.5t50 -21.5q-123 -264 -123 -461q0 -250 221 -250q180 0 387 207
q16 -46 28.5 -75t33 -60.5t48 -46.5t62.5 -15z" />
    <glyph glyph-name="multiply" unicode="&#xd7;" 
d="M1675 391q44 0 87 40t64 80l21 40q-3 -9 -8.5 -24t-26 -54t-45.5 -70t-67 -58.5t-90 -33.5q-114 -112 -265 -174.5t-317 -62.5q-169 0 -322.5 65.5t-264.5 176t-176.5 264t-65.5 321.5q0 70 14 156q-64 -47 -127 -109q12 21 27.5 46t56 80.5t84 104.5t109 106.5t133 98
t154.5 68t175 27.5q113 0 113 -66q0 -44 -51 -126t-123.5 -176.5t-145 -195t-123.5 -207.5t-51 -188q0 -59 35.5 -98t91.5 -39q49 0 89 37.5t40 79.5q0 10 -10 10q-6 -2 -22 -2q-60 0 -60 74q0 59 43 149.5t104.5 183.5t123 184.5t104.5 174.5t43 131q0 56 -42 95.5
t-122 39.5q-171 0 -322 -82.5t-270 -216.5q100 220 304 355t454 135q135 0 261 -42t228 -118.5t178.5 -178.5t118 -229t41.5 -262q0 -221 -110 -414q-27 -10 -43 -10q-62 0 -98.5 41.5t-57.5 114.5q127 139 215 295q6 12 6 18t-4 6q-8 0 -16 -16q-80 -147 -211 -266
q-6 26 -15.5 71t-15.5 72.5t-17.5 62t-24 54t-33.5 33.5t-48 14t-50 -11t-37.5 -29.5t-23 -33.5t-14.5 -31q0 -8 7 -8q40 0 72.5 -14t54 -33.5t41.5 -54t31 -61.5t26 -70q-183 -142 -336 -142q-135 0 -135 199q0 162 86 402q64 4 319.5 30.5t345.5 26.5q23 0 23 10
q0 8 -20 8q-101 0 -286.5 1t-350.5 1q39 96 76.5 157.5t58.5 61.5q14 0 14 -38q0 -13 12 -13t19.5 8t7.5 19q0 17 -16.5 32t-44.5 15q-36 0 -92 -67.5t-113 -174.5h-66q-41 0 -41 -22q0 -16 18 -31.5t50 -21.5q-123 -264 -123 -461q0 -250 221 -250q180 0 387 207
q16 -46 28.5 -75t33 -60.5t48 -46.5t62.5 -15z" />
    <glyph glyph-name="Oslash" unicode="&#xd8;" 
d="M1675 391q44 0 87 40t64 80l21 40q-3 -9 -8.5 -24t-26 -54t-45.5 -70t-67 -58.5t-90 -33.5q-114 -112 -265 -174.5t-317 -62.5q-169 0 -322.5 65.5t-264.5 176t-176.5 264t-65.5 321.5q0 70 14 156q-64 -47 -127 -109q12 21 27.5 46t56 80.5t84 104.5t109 106.5t133 98
t154.5 68t175 27.5q113 0 113 -66q0 -44 -51 -126t-123.5 -176.5t-145 -195t-123.5 -207.5t-51 -188q0 -59 35.5 -98t91.5 -39q49 0 89 37.5t40 79.5q0 10 -10 10q-6 -2 -22 -2q-60 0 -60 74q0 59 43 149.5t104.5 183.5t123 184.5t104.5 174.5t43 131q0 56 -42 95.5
t-122 39.5q-171 0 -322 -82.5t-270 -216.5q100 220 304 355t454 135q135 0 261 -42t228 -118.5t178.5 -178.5t118 -229t41.5 -262q0 -221 -110 -414q-27 -10 -43 -10q-62 0 -98.5 41.5t-57.5 114.5q127 139 215 295q6 12 6 18t-4 6q-8 0 -16 -16q-80 -147 -211 -266
q-6 26 -15.5 71t-15.5 72.5t-17.5 62t-24 54t-33.5 33.5t-48 14t-50 -11t-37.5 -29.5t-23 -33.5t-14.5 -31q0 -8 7 -8q40 0 72.5 -14t54 -33.5t41.5 -54t31 -61.5t26 -70q-183 -142 -336 -142q-135 0 -135 199q0 162 86 402q64 4 319.5 30.5t345.5 26.5q23 0 23 10
q0 8 -20 8q-101 0 -286.5 1t-350.5 1q39 96 76.5 157.5t58.5 61.5q14 0 14 -38q0 -13 12 -13t19.5 8t7.5 19q0 17 -16.5 32t-44.5 15q-36 0 -92 -67.5t-113 -174.5h-66q-41 0 -41 -22q0 -16 18 -31.5t50 -21.5q-123 -264 -123 -461q0 -250 221 -250q180 0 387 207
q16 -46 28.5 -75t33 -60.5t48 -46.5t62.5 -15z" />
    <glyph glyph-name="Ugrave" unicode="&#xd9;" 
d="M1675 391q44 0 87 40t64 80l21 40q-3 -9 -8.5 -24t-26 -54t-45.5 -70t-67 -58.5t-90 -33.5q-114 -112 -265 -174.5t-317 -62.5q-169 0 -322.5 65.5t-264.5 176t-176.5 264t-65.5 321.5q0 70 14 156q-64 -47 -127 -109q12 21 27.5 46t56 80.5t84 104.5t109 106.5t133 98
t154.5 68t175 27.5q113 0 113 -66q0 -44 -51 -126t-123.5 -176.5t-145 -195t-123.5 -207.5t-51 -188q0 -59 35.5 -98t91.5 -39q49 0 89 37.5t40 79.5q0 10 -10 10q-6 -2 -22 -2q-60 0 -60 74q0 59 43 149.5t104.5 183.5t123 184.5t104.5 174.5t43 131q0 56 -42 95.5
t-122 39.5q-171 0 -322 -82.5t-270 -216.5q100 220 304 355t454 135q135 0 261 -42t228 -118.5t178.5 -178.5t118 -229t41.5 -262q0 -221 -110 -414q-27 -10 -43 -10q-62 0 -98.5 41.5t-57.5 114.5q127 139 215 295q6 12 6 18t-4 6q-8 0 -16 -16q-80 -147 -211 -266
q-6 26 -15.5 71t-15.5 72.5t-17.5 62t-24 54t-33.5 33.5t-48 14t-50 -11t-37.5 -29.5t-23 -33.5t-14.5 -31q0 -8 7 -8q40 0 72.5 -14t54 -33.5t41.5 -54t31 -61.5t26 -70q-183 -142 -336 -142q-135 0 -135 199q0 162 86 402q64 4 319.5 30.5t345.5 26.5q23 0 23 10
q0 8 -20 8q-101 0 -286.5 1t-350.5 1q39 96 76.5 157.5t58.5 61.5q14 0 14 -38q0 -13 12 -13t19.5 8t7.5 19q0 17 -16.5 32t-44.5 15q-36 0 -92 -67.5t-113 -174.5h-66q-41 0 -41 -22q0 -16 18 -31.5t50 -21.5q-123 -264 -123 -461q0 -250 221 -250q180 0 387 207
q16 -46 28.5 -75t33 -60.5t48 -46.5t62.5 -15z" />
    <glyph glyph-name="Uacute" unicode="&#xda;" 
d="M1675 391q44 0 87 40t64 80l21 40q-3 -9 -8.5 -24t-26 -54t-45.5 -70t-67 -58.5t-90 -33.5q-114 -112 -265 -174.5t-317 -62.5q-169 0 -322.5 65.5t-264.5 176t-176.5 264t-65.5 321.5q0 70 14 156q-64 -47 -127 -109q12 21 27.5 46t56 80.5t84 104.5t109 106.5t133 98
t154.5 68t175 27.5q113 0 113 -66q0 -44 -51 -126t-123.5 -176.5t-145 -195t-123.5 -207.5t-51 -188q0 -59 35.5 -98t91.5 -39q49 0 89 37.5t40 79.5q0 10 -10 10q-6 -2 -22 -2q-60 0 -60 74q0 59 43 149.5t104.5 183.5t123 184.5t104.5 174.5t43 131q0 56 -42 95.5
t-122 39.5q-171 0 -322 -82.5t-270 -216.5q100 220 304 355t454 135q135 0 261 -42t228 -118.5t178.5 -178.5t118 -229t41.5 -262q0 -221 -110 -414q-27 -10 -43 -10q-62 0 -98.5 41.5t-57.5 114.5q127 139 215 295q6 12 6 18t-4 6q-8 0 -16 -16q-80 -147 -211 -266
q-6 26 -15.5 71t-15.5 72.5t-17.5 62t-24 54t-33.5 33.5t-48 14t-50 -11t-37.5 -29.5t-23 -33.5t-14.5 -31q0 -8 7 -8q40 0 72.5 -14t54 -33.5t41.5 -54t31 -61.5t26 -70q-183 -142 -336 -142q-135 0 -135 199q0 162 86 402q64 4 319.5 30.5t345.5 26.5q23 0 23 10
q0 8 -20 8q-101 0 -286.5 1t-350.5 1q39 96 76.5 157.5t58.5 61.5q14 0 14 -38q0 -13 12 -13t19.5 8t7.5 19q0 17 -16.5 32t-44.5 15q-36 0 -92 -67.5t-113 -174.5h-66q-41 0 -41 -22q0 -16 18 -31.5t50 -21.5q-123 -264 -123 -461q0 -250 221 -250q180 0 387 207
q16 -46 28.5 -75t33 -60.5t48 -46.5t62.5 -15z" />
    <glyph glyph-name="Ucircumflex" unicode="&#xdb;" 
d="M1675 391q44 0 87 40t64 80l21 40q-3 -9 -8.5 -24t-26 -54t-45.5 -70t-67 -58.5t-90 -33.5q-114 -112 -265 -174.5t-317 -62.5q-169 0 -322.5 65.5t-264.5 176t-176.5 264t-65.5 321.5q0 70 14 156q-64 -47 -127 -109q12 21 27.5 46t56 80.5t84 104.5t109 106.5t133 98
t154.5 68t175 27.5q113 0 113 -66q0 -44 -51 -126t-123.5 -176.5t-145 -195t-123.5 -207.5t-51 -188q0 -59 35.5 -98t91.5 -39q49 0 89 37.5t40 79.5q0 10 -10 10q-6 -2 -22 -2q-60 0 -60 74q0 59 43 149.5t104.5 183.5t123 184.5t104.5 174.5t43 131q0 56 -42 95.5
t-122 39.5q-171 0 -322 -82.5t-270 -216.5q100 220 304 355t454 135q135 0 261 -42t228 -118.5t178.5 -178.5t118 -229t41.5 -262q0 -221 -110 -414q-27 -10 -43 -10q-62 0 -98.5 41.5t-57.5 114.5q127 139 215 295q6 12 6 18t-4 6q-8 0 -16 -16q-80 -147 -211 -266
q-6 26 -15.5 71t-15.5 72.5t-17.5 62t-24 54t-33.5 33.5t-48 14t-50 -11t-37.5 -29.5t-23 -33.5t-14.5 -31q0 -8 7 -8q40 0 72.5 -14t54 -33.5t41.5 -54t31 -61.5t26 -70q-183 -142 -336 -142q-135 0 -135 199q0 162 86 402q64 4 319.5 30.5t345.5 26.5q23 0 23 10
q0 8 -20 8q-101 0 -286.5 1t-350.5 1q39 96 76.5 157.5t58.5 61.5q14 0 14 -38q0 -13 12 -13t19.5 8t7.5 19q0 17 -16.5 32t-44.5 15q-36 0 -92 -67.5t-113 -174.5h-66q-41 0 -41 -22q0 -16 18 -31.5t50 -21.5q-123 -264 -123 -461q0 -250 221 -250q180 0 387 207
q16 -46 28.5 -75t33 -60.5t48 -46.5t62.5 -15z" />
    <glyph glyph-name="Udieresis" unicode="&#xdc;" 
d="M1675 391q44 0 87 40t64 80l21 40q-3 -9 -8.5 -24t-26 -54t-45.5 -70t-67 -58.5t-90 -33.5q-114 -112 -265 -174.5t-317 -62.5q-169 0 -322.5 65.5t-264.5 176t-176.5 264t-65.5 321.5q0 70 14 156q-64 -47 -127 -109q12 21 27.5 46t56 80.5t84 104.5t109 106.5t133 98
t154.5 68t175 27.5q113 0 113 -66q0 -44 -51 -126t-123.5 -176.5t-145 -195t-123.5 -207.5t-51 -188q0 -59 35.5 -98t91.5 -39q49 0 89 37.5t40 79.5q0 10 -10 10q-6 -2 -22 -2q-60 0 -60 74q0 59 43 149.5t104.5 183.5t123 184.5t104.5 174.5t43 131q0 56 -42 95.5
t-122 39.5q-171 0 -322 -82.5t-270 -216.5q100 220 304 355t454 135q135 0 261 -42t228 -118.5t178.5 -178.5t118 -229t41.5 -262q0 -221 -110 -414q-27 -10 -43 -10q-62 0 -98.5 41.5t-57.5 114.5q127 139 215 295q6 12 6 18t-4 6q-8 0 -16 -16q-80 -147 -211 -266
q-6 26 -15.5 71t-15.5 72.5t-17.5 62t-24 54t-33.5 33.5t-48 14t-50 -11t-37.5 -29.5t-23 -33.5t-14.5 -31q0 -8 7 -8q40 0 72.5 -14t54 -33.5t41.5 -54t31 -61.5t26 -70q-183 -142 -336 -142q-135 0 -135 199q0 162 86 402q64 4 319.5 30.5t345.5 26.5q23 0 23 10
q0 8 -20 8q-101 0 -286.5 1t-350.5 1q39 96 76.5 157.5t58.5 61.5q14 0 14 -38q0 -13 12 -13t19.5 8t7.5 19q0 17 -16.5 32t-44.5 15q-36 0 -92 -67.5t-113 -174.5h-66q-41 0 -41 -22q0 -16 18 -31.5t50 -21.5q-123 -264 -123 -461q0 -250 221 -250q180 0 387 207
q16 -46 28.5 -75t33 -60.5t48 -46.5t62.5 -15z" />
    <glyph glyph-name="Yacute" unicode="&#xdd;" 
d="M1675 391q44 0 87 40t64 80l21 40q-3 -9 -8.5 -24t-26 -54t-45.5 -70t-67 -58.5t-90 -33.5q-114 -112 -265 -174.5t-317 -62.5q-169 0 -322.5 65.5t-264.5 176t-176.5 264t-65.5 321.5q0 70 14 156q-64 -47 -127 -109q12 21 27.5 46t56 80.5t84 104.5t109 106.5t133 98
t154.5 68t175 27.5q113 0 113 -66q0 -44 -51 -126t-123.5 -176.5t-145 -195t-123.5 -207.5t-51 -188q0 -59 35.5 -98t91.5 -39q49 0 89 37.5t40 79.5q0 10 -10 10q-6 -2 -22 -2q-60 0 -60 74q0 59 43 149.5t104.5 183.5t123 184.5t104.5 174.5t43 131q0 56 -42 95.5
t-122 39.5q-171 0 -322 -82.5t-270 -216.5q100 220 304 355t454 135q135 0 261 -42t228 -118.5t178.5 -178.5t118 -229t41.5 -262q0 -221 -110 -414q-27 -10 -43 -10q-62 0 -98.5 41.5t-57.5 114.5q127 139 215 295q6 12 6 18t-4 6q-8 0 -16 -16q-80 -147 -211 -266
q-6 26 -15.5 71t-15.5 72.5t-17.5 62t-24 54t-33.5 33.5t-48 14t-50 -11t-37.5 -29.5t-23 -33.5t-14.5 -31q0 -8 7 -8q40 0 72.5 -14t54 -33.5t41.5 -54t31 -61.5t26 -70q-183 -142 -336 -142q-135 0 -135 199q0 162 86 402q64 4 319.5 30.5t345.5 26.5q23 0 23 10
q0 8 -20 8q-101 0 -286.5 1t-350.5 1q39 96 76.5 157.5t58.5 61.5q14 0 14 -38q0 -13 12 -13t19.5 8t7.5 19q0 17 -16.5 32t-44.5 15q-36 0 -92 -67.5t-113 -174.5h-66q-41 0 -41 -22q0 -16 18 -31.5t50 -21.5q-123 -264 -123 -461q0 -250 221 -250q180 0 387 207
q16 -46 28.5 -75t33 -60.5t48 -46.5t62.5 -15z" />
    <glyph glyph-name="Thorn" unicode="&#xde;" 
d="M1675 391q44 0 87 40t64 80l21 40q-3 -9 -8.5 -24t-26 -54t-45.5 -70t-67 -58.5t-90 -33.5q-114 -112 -265 -174.5t-317 -62.5q-169 0 -322.5 65.5t-264.5 176t-176.5 264t-65.5 321.5q0 70 14 156q-64 -47 -127 -109q12 21 27.5 46t56 80.5t84 104.5t109 106.5t133 98
t154.5 68t175 27.5q113 0 113 -66q0 -44 -51 -126t-123.5 -176.5t-145 -195t-123.5 -207.5t-51 -188q0 -59 35.5 -98t91.5 -39q49 0 89 37.5t40 79.5q0 10 -10 10q-6 -2 -22 -2q-60 0 -60 74q0 59 43 149.5t104.5 183.5t123 184.5t104.5 174.5t43 131q0 56 -42 95.5
t-122 39.5q-171 0 -322 -82.5t-270 -216.5q100 220 304 355t454 135q135 0 261 -42t228 -118.5t178.5 -178.5t118 -229t41.5 -262q0 -221 -110 -414q-27 -10 -43 -10q-62 0 -98.5 41.5t-57.5 114.5q127 139 215 295q6 12 6 18t-4 6q-8 0 -16 -16q-80 -147 -211 -266
q-6 26 -15.5 71t-15.5 72.5t-17.5 62t-24 54t-33.5 33.5t-48 14t-50 -11t-37.5 -29.5t-23 -33.5t-14.5 -31q0 -8 7 -8q40 0 72.5 -14t54 -33.5t41.5 -54t31 -61.5t26 -70q-183 -142 -336 -142q-135 0 -135 199q0 162 86 402q64 4 319.5 30.5t345.5 26.5q23 0 23 10
q0 8 -20 8q-101 0 -286.5 1t-350.5 1q39 96 76.5 157.5t58.5 61.5q14 0 14 -38q0 -13 12 -13t19.5 8t7.5 19q0 17 -16.5 32t-44.5 15q-36 0 -92 -67.5t-113 -174.5h-66q-41 0 -41 -22q0 -16 18 -31.5t50 -21.5q-123 -264 -123 -461q0 -250 221 -250q180 0 387 207
q16 -46 28.5 -75t33 -60.5t48 -46.5t62.5 -15z" />
    <glyph glyph-name="germandbls" unicode="&#xdf;" 
d="M1675 391q44 0 87 40t64 80l21 40q-3 -9 -8.5 -24t-26 -54t-45.5 -70t-67 -58.5t-90 -33.5q-114 -112 -265 -174.5t-317 -62.5q-169 0 -322.5 65.5t-264.5 176t-176.5 264t-65.5 321.5q0 70 14 156q-64 -47 -127 -109q12 21 27.5 46t56 80.5t84 104.5t109 106.5t133 98
t154.5 68t175 27.5q113 0 113 -66q0 -44 -51 -126t-123.5 -176.5t-145 -195t-123.5 -207.5t-51 -188q0 -59 35.5 -98t91.5 -39q49 0 89 37.5t40 79.5q0 10 -10 10q-6 -2 -22 -2q-60 0 -60 74q0 59 43 149.5t104.5 183.5t123 184.5t104.5 174.5t43 131q0 56 -42 95.5
t-122 39.5q-171 0 -322 -82.5t-270 -216.5q100 220 304 355t454 135q135 0 261 -42t228 -118.5t178.5 -178.5t118 -229t41.5 -262q0 -221 -110 -414q-27 -10 -43 -10q-62 0 -98.5 41.5t-57.5 114.5q127 139 215 295q6 12 6 18t-4 6q-8 0 -16 -16q-80 -147 -211 -266
q-6 26 -15.5 71t-15.5 72.5t-17.5 62t-24 54t-33.5 33.5t-48 14t-50 -11t-37.5 -29.5t-23 -33.5t-14.5 -31q0 -8 7 -8q40 0 72.5 -14t54 -33.5t41.5 -54t31 -61.5t26 -70q-183 -142 -336 -142q-135 0 -135 199q0 162 86 402q64 4 319.5 30.5t345.5 26.5q23 0 23 10
q0 8 -20 8q-101 0 -286.5 1t-350.5 1q39 96 76.5 157.5t58.5 61.5q14 0 14 -38q0 -13 12 -13t19.5 8t7.5 19q0 17 -16.5 32t-44.5 15q-36 0 -92 -67.5t-113 -174.5h-66q-41 0 -41 -22q0 -16 18 -31.5t50 -21.5q-123 -264 -123 -461q0 -250 221 -250q180 0 387 207
q16 -46 28.5 -75t33 -60.5t48 -46.5t62.5 -15z" />
    <glyph glyph-name="agrave" unicode="&#xe0;" 
d="M1675 391q44 0 87 40t64 80l21 40q-3 -9 -8.5 -24t-26 -54t-45.5 -70t-67 -58.5t-90 -33.5q-114 -112 -265 -174.5t-317 -62.5q-169 0 -322.5 65.5t-264.5 176t-176.5 264t-65.5 321.5q0 70 14 156q-64 -47 -127 -109q12 21 27.5 46t56 80.5t84 104.5t109 106.5t133 98
t154.5 68t175 27.5q113 0 113 -66q0 -44 -51 -126t-123.5 -176.5t-145 -195t-123.5 -207.5t-51 -188q0 -59 35.5 -98t91.5 -39q49 0 89 37.5t40 79.5q0 10 -10 10q-6 -2 -22 -2q-60 0 -60 74q0 59 43 149.5t104.5 183.5t123 184.5t104.5 174.5t43 131q0 56 -42 95.5
t-122 39.5q-171 0 -322 -82.5t-270 -216.5q100 220 304 355t454 135q135 0 261 -42t228 -118.5t178.5 -178.5t118 -229t41.5 -262q0 -221 -110 -414q-27 -10 -43 -10q-62 0 -98.5 41.5t-57.5 114.5q127 139 215 295q6 12 6 18t-4 6q-8 0 -16 -16q-80 -147 -211 -266
q-6 26 -15.5 71t-15.5 72.5t-17.5 62t-24 54t-33.5 33.5t-48 14t-50 -11t-37.5 -29.5t-23 -33.5t-14.5 -31q0 -8 7 -8q40 0 72.5 -14t54 -33.5t41.5 -54t31 -61.5t26 -70q-183 -142 -336 -142q-135 0 -135 199q0 162 86 402q64 4 319.5 30.5t345.5 26.5q23 0 23 10
q0 8 -20 8q-101 0 -286.5 1t-350.5 1q39 96 76.5 157.5t58.5 61.5q14 0 14 -38q0 -13 12 -13t19.5 8t7.5 19q0 17 -16.5 32t-44.5 15q-36 0 -92 -67.5t-113 -174.5h-66q-41 0 -41 -22q0 -16 18 -31.5t50 -21.5q-123 -264 -123 -461q0 -250 221 -250q180 0 387 207
q16 -46 28.5 -75t33 -60.5t48 -46.5t62.5 -15z" />
    <glyph glyph-name="aacute" unicode="&#xe1;" 
d="M1675 391q44 0 87 40t64 80l21 40q-3 -9 -8.5 -24t-26 -54t-45.5 -70t-67 -58.5t-90 -33.5q-114 -112 -265 -174.5t-317 -62.5q-169 0 -322.5 65.5t-264.5 176t-176.5 264t-65.5 321.5q0 70 14 156q-64 -47 -127 -109q12 21 27.5 46t56 80.5t84 104.5t109 106.5t133 98
t154.5 68t175 27.5q113 0 113 -66q0 -44 -51 -126t-123.5 -176.5t-145 -195t-123.5 -207.5t-51 -188q0 -59 35.5 -98t91.5 -39q49 0 89 37.5t40 79.5q0 10 -10 10q-6 -2 -22 -2q-60 0 -60 74q0 59 43 149.5t104.5 183.5t123 184.5t104.5 174.5t43 131q0 56 -42 95.5
t-122 39.5q-171 0 -322 -82.5t-270 -216.5q100 220 304 355t454 135q135 0 261 -42t228 -118.5t178.5 -178.5t118 -229t41.5 -262q0 -221 -110 -414q-27 -10 -43 -10q-62 0 -98.5 41.5t-57.5 114.5q127 139 215 295q6 12 6 18t-4 6q-8 0 -16 -16q-80 -147 -211 -266
q-6 26 -15.5 71t-15.5 72.5t-17.5 62t-24 54t-33.5 33.5t-48 14t-50 -11t-37.5 -29.5t-23 -33.5t-14.5 -31q0 -8 7 -8q40 0 72.5 -14t54 -33.5t41.5 -54t31 -61.5t26 -70q-183 -142 -336 -142q-135 0 -135 199q0 162 86 402q64 4 319.5 30.5t345.5 26.5q23 0 23 10
q0 8 -20 8q-101 0 -286.5 1t-350.5 1q39 96 76.5 157.5t58.5 61.5q14 0 14 -38q0 -13 12 -13t19.5 8t7.5 19q0 17 -16.5 32t-44.5 15q-36 0 -92 -67.5t-113 -174.5h-66q-41 0 -41 -22q0 -16 18 -31.5t50 -21.5q-123 -264 -123 -461q0 -250 221 -250q180 0 387 207
q16 -46 28.5 -75t33 -60.5t48 -46.5t62.5 -15z" />
    <glyph glyph-name="acircumflex" unicode="&#xe2;" 
d="M1675 391q44 0 87 40t64 80l21 40q-3 -9 -8.5 -24t-26 -54t-45.5 -70t-67 -58.5t-90 -33.5q-114 -112 -265 -174.5t-317 -62.5q-169 0 -322.5 65.5t-264.5 176t-176.5 264t-65.5 321.5q0 70 14 156q-64 -47 -127 -109q12 21 27.5 46t56 80.5t84 104.5t109 106.5t133 98
t154.5 68t175 27.5q113 0 113 -66q0 -44 -51 -126t-123.5 -176.5t-145 -195t-123.5 -207.5t-51 -188q0 -59 35.5 -98t91.5 -39q49 0 89 37.5t40 79.5q0 10 -10 10q-6 -2 -22 -2q-60 0 -60 74q0 59 43 149.5t104.5 183.5t123 184.5t104.5 174.5t43 131q0 56 -42 95.5
t-122 39.5q-171 0 -322 -82.5t-270 -216.5q100 220 304 355t454 135q135 0 261 -42t228 -118.5t178.5 -178.5t118 -229t41.5 -262q0 -221 -110 -414q-27 -10 -43 -10q-62 0 -98.5 41.5t-57.5 114.5q127 139 215 295q6 12 6 18t-4 6q-8 0 -16 -16q-80 -147 -211 -266
q-6 26 -15.5 71t-15.5 72.5t-17.5 62t-24 54t-33.5 33.5t-48 14t-50 -11t-37.5 -29.5t-23 -33.5t-14.5 -31q0 -8 7 -8q40 0 72.5 -14t54 -33.5t41.5 -54t31 -61.5t26 -70q-183 -142 -336 -142q-135 0 -135 199q0 162 86 402q64 4 319.5 30.5t345.5 26.5q23 0 23 10
q0 8 -20 8q-101 0 -286.5 1t-350.5 1q39 96 76.5 157.5t58.5 61.5q14 0 14 -38q0 -13 12 -13t19.5 8t7.5 19q0 17 -16.5 32t-44.5 15q-36 0 -92 -67.5t-113 -174.5h-66q-41 0 -41 -22q0 -16 18 -31.5t50 -21.5q-123 -264 -123 -461q0 -250 221 -250q180 0 387 207
q16 -46 28.5 -75t33 -60.5t48 -46.5t62.5 -15z" />
    <glyph glyph-name="atilde" unicode="&#xe3;" 
d="M1675 391q44 0 87 40t64 80l21 40q-3 -9 -8.5 -24t-26 -54t-45.5 -70t-67 -58.5t-90 -33.5q-114 -112 -265 -174.5t-317 -62.5q-169 0 -322.5 65.5t-264.5 176t-176.5 264t-65.5 321.5q0 70 14 156q-64 -47 -127 -109q12 21 27.5 46t56 80.5t84 104.5t109 106.5t133 98
t154.5 68t175 27.5q113 0 113 -66q0 -44 -51 -126t-123.5 -176.5t-145 -195t-123.5 -207.5t-51 -188q0 -59 35.5 -98t91.5 -39q49 0 89 37.5t40 79.5q0 10 -10 10q-6 -2 -22 -2q-60 0 -60 74q0 59 43 149.5t104.5 183.5t123 184.5t104.5 174.5t43 131q0 56 -42 95.5
t-122 39.5q-171 0 -322 -82.5t-270 -216.5q100 220 304 355t454 135q135 0 261 -42t228 -118.5t178.5 -178.5t118 -229t41.5 -262q0 -221 -110 -414q-27 -10 -43 -10q-62 0 -98.5 41.5t-57.5 114.5q127 139 215 295q6 12 6 18t-4 6q-8 0 -16 -16q-80 -147 -211 -266
q-6 26 -15.5 71t-15.5 72.5t-17.5 62t-24 54t-33.5 33.5t-48 14t-50 -11t-37.5 -29.5t-23 -33.5t-14.5 -31q0 -8 7 -8q40 0 72.5 -14t54 -33.5t41.5 -54t31 -61.5t26 -70q-183 -142 -336 -142q-135 0 -135 199q0 162 86 402q64 4 319.5 30.5t345.5 26.5q23 0 23 10
q0 8 -20 8q-101 0 -286.5 1t-350.5 1q39 96 76.5 157.5t58.5 61.5q14 0 14 -38q0 -13 12 -13t19.5 8t7.5 19q0 17 -16.5 32t-44.5 15q-36 0 -92 -67.5t-113 -174.5h-66q-41 0 -41 -22q0 -16 18 -31.5t50 -21.5q-123 -264 -123 -461q0 -250 221 -250q180 0 387 207
q16 -46 28.5 -75t33 -60.5t48 -46.5t62.5 -15z" />
    <glyph glyph-name="adieresis" unicode="&#xe4;" 
d="M1675 391q44 0 87 40t64 80l21 40q-3 -9 -8.5 -24t-26 -54t-45.5 -70t-67 -58.5t-90 -33.5q-114 -112 -265 -174.5t-317 -62.5q-169 0 -322.5 65.5t-264.5 176t-176.5 264t-65.5 321.5q0 70 14 156q-64 -47 -127 -109q12 21 27.5 46t56 80.5t84 104.5t109 106.5t133 98
t154.5 68t175 27.5q113 0 113 -66q0 -44 -51 -126t-123.5 -176.5t-145 -195t-123.5 -207.5t-51 -188q0 -59 35.5 -98t91.5 -39q49 0 89 37.5t40 79.5q0 10 -10 10q-6 -2 -22 -2q-60 0 -60 74q0 59 43 149.5t104.5 183.5t123 184.5t104.5 174.5t43 131q0 56 -42 95.5
t-122 39.5q-171 0 -322 -82.5t-270 -216.5q100 220 304 355t454 135q135 0 261 -42t228 -118.5t178.5 -178.5t118 -229t41.5 -262q0 -221 -110 -414q-27 -10 -43 -10q-62 0 -98.5 41.5t-57.5 114.5q127 139 215 295q6 12 6 18t-4 6q-8 0 -16 -16q-80 -147 -211 -266
q-6 26 -15.5 71t-15.5 72.5t-17.5 62t-24 54t-33.5 33.5t-48 14t-50 -11t-37.5 -29.5t-23 -33.5t-14.5 -31q0 -8 7 -8q40 0 72.5 -14t54 -33.5t41.5 -54t31 -61.5t26 -70q-183 -142 -336 -142q-135 0 -135 199q0 162 86 402q64 4 319.5 30.5t345.5 26.5q23 0 23 10
q0 8 -20 8q-101 0 -286.5 1t-350.5 1q39 96 76.5 157.5t58.5 61.5q14 0 14 -38q0 -13 12 -13t19.5 8t7.5 19q0 17 -16.5 32t-44.5 15q-36 0 -92 -67.5t-113 -174.5h-66q-41 0 -41 -22q0 -16 18 -31.5t50 -21.5q-123 -264 -123 -461q0 -250 221 -250q180 0 387 207
q16 -46 28.5 -75t33 -60.5t48 -46.5t62.5 -15z" />
    <glyph glyph-name="aring" unicode="&#xe5;" 
d="M1675 391q44 0 87 40t64 80l21 40q-3 -9 -8.5 -24t-26 -54t-45.5 -70t-67 -58.5t-90 -33.5q-114 -112 -265 -174.5t-317 -62.5q-169 0 -322.5 65.5t-264.5 176t-176.5 264t-65.5 321.5q0 70 14 156q-64 -47 -127 -109q12 21 27.5 46t56 80.5t84 104.5t109 106.5t133 98
t154.5 68t175 27.5q113 0 113 -66q0 -44 -51 -126t-123.5 -176.5t-145 -195t-123.5 -207.5t-51 -188q0 -59 35.5 -98t91.5 -39q49 0 89 37.5t40 79.5q0 10 -10 10q-6 -2 -22 -2q-60 0 -60 74q0 59 43 149.5t104.5 183.5t123 184.5t104.5 174.5t43 131q0 56 -42 95.5
t-122 39.5q-171 0 -322 -82.5t-270 -216.5q100 220 304 355t454 135q135 0 261 -42t228 -118.5t178.5 -178.5t118 -229t41.5 -262q0 -221 -110 -414q-27 -10 -43 -10q-62 0 -98.5 41.5t-57.5 114.5q127 139 215 295q6 12 6 18t-4 6q-8 0 -16 -16q-80 -147 -211 -266
q-6 26 -15.5 71t-15.5 72.5t-17.5 62t-24 54t-33.5 33.5t-48 14t-50 -11t-37.5 -29.5t-23 -33.5t-14.5 -31q0 -8 7 -8q40 0 72.5 -14t54 -33.5t41.5 -54t31 -61.5t26 -70q-183 -142 -336 -142q-135 0 -135 199q0 162 86 402q64 4 319.5 30.5t345.5 26.5q23 0 23 10
q0 8 -20 8q-101 0 -286.5 1t-350.5 1q39 96 76.5 157.5t58.5 61.5q14 0 14 -38q0 -13 12 -13t19.5 8t7.5 19q0 17 -16.5 32t-44.5 15q-36 0 -92 -67.5t-113 -174.5h-66q-41 0 -41 -22q0 -16 18 -31.5t50 -21.5q-123 -264 -123 -461q0 -250 221 -250q180 0 387 207
q16 -46 28.5 -75t33 -60.5t48 -46.5t62.5 -15z" />
    <glyph glyph-name="ae" unicode="&#xe6;" 
d="M1675 391q44 0 87 40t64 80l21 40q-3 -9 -8.5 -24t-26 -54t-45.5 -70t-67 -58.5t-90 -33.5q-114 -112 -265 -174.5t-317 -62.5q-169 0 -322.5 65.5t-264.5 176t-176.5 264t-65.5 321.5q0 70 14 156q-64 -47 -127 -109q12 21 27.5 46t56 80.5t84 104.5t109 106.5t133 98
t154.5 68t175 27.5q113 0 113 -66q0 -44 -51 -126t-123.5 -176.5t-145 -195t-123.5 -207.5t-51 -188q0 -59 35.5 -98t91.5 -39q49 0 89 37.5t40 79.5q0 10 -10 10q-6 -2 -22 -2q-60 0 -60 74q0 59 43 149.5t104.5 183.5t123 184.5t104.5 174.5t43 131q0 56 -42 95.5
t-122 39.5q-171 0 -322 -82.5t-270 -216.5q100 220 304 355t454 135q135 0 261 -42t228 -118.5t178.5 -178.5t118 -229t41.5 -262q0 -221 -110 -414q-27 -10 -43 -10q-62 0 -98.5 41.5t-57.5 114.5q127 139 215 295q6 12 6 18t-4 6q-8 0 -16 -16q-80 -147 -211 -266
q-6 26 -15.5 71t-15.5 72.5t-17.5 62t-24 54t-33.5 33.5t-48 14t-50 -11t-37.5 -29.5t-23 -33.5t-14.5 -31q0 -8 7 -8q40 0 72.5 -14t54 -33.5t41.5 -54t31 -61.5t26 -70q-183 -142 -336 -142q-135 0 -135 199q0 162 86 402q64 4 319.5 30.5t345.5 26.5q23 0 23 10
q0 8 -20 8q-101 0 -286.5 1t-350.5 1q39 96 76.5 157.5t58.5 61.5q14 0 14 -38q0 -13 12 -13t19.5 8t7.5 19q0 17 -16.5 32t-44.5 15q-36 0 -92 -67.5t-113 -174.5h-66q-41 0 -41 -22q0 -16 18 -31.5t50 -21.5q-123 -264 -123 -461q0 -250 221 -250q180 0 387 207
q16 -46 28.5 -75t33 -60.5t48 -46.5t62.5 -15z" />
    <glyph glyph-name="ccedilla" unicode="&#xe7;" 
d="M1675 391q44 0 87 40t64 80l21 40q-3 -9 -8.5 -24t-26 -54t-45.5 -70t-67 -58.5t-90 -33.5q-114 -112 -265 -174.5t-317 -62.5q-169 0 -322.5 65.5t-264.5 176t-176.5 264t-65.5 321.5q0 70 14 156q-64 -47 -127 -109q12 21 27.5 46t56 80.5t84 104.5t109 106.5t133 98
t154.5 68t175 27.5q113 0 113 -66q0 -44 -51 -126t-123.5 -176.5t-145 -195t-123.5 -207.5t-51 -188q0 -59 35.5 -98t91.5 -39q49 0 89 37.5t40 79.5q0 10 -10 10q-6 -2 -22 -2q-60 0 -60 74q0 59 43 149.5t104.5 183.5t123 184.5t104.5 174.5t43 131q0 56 -42 95.5
t-122 39.5q-171 0 -322 -82.5t-270 -216.5q100 220 304 355t454 135q135 0 261 -42t228 -118.5t178.5 -178.5t118 -229t41.5 -262q0 -221 -110 -414q-27 -10 -43 -10q-62 0 -98.5 41.5t-57.5 114.5q127 139 215 295q6 12 6 18t-4 6q-8 0 -16 -16q-80 -147 -211 -266
q-6 26 -15.5 71t-15.5 72.5t-17.5 62t-24 54t-33.5 33.5t-48 14t-50 -11t-37.5 -29.5t-23 -33.5t-14.5 -31q0 -8 7 -8q40 0 72.5 -14t54 -33.5t41.5 -54t31 -61.5t26 -70q-183 -142 -336 -142q-135 0 -135 199q0 162 86 402q64 4 319.5 30.5t345.5 26.5q23 0 23 10
q0 8 -20 8q-101 0 -286.5 1t-350.5 1q39 96 76.5 157.5t58.5 61.5q14 0 14 -38q0 -13 12 -13t19.5 8t7.5 19q0 17 -16.5 32t-44.5 15q-36 0 -92 -67.5t-113 -174.5h-66q-41 0 -41 -22q0 -16 18 -31.5t50 -21.5q-123 -264 -123 -461q0 -250 221 -250q180 0 387 207
q16 -46 28.5 -75t33 -60.5t48 -46.5t62.5 -15z" />
    <glyph glyph-name="egrave" unicode="&#xe8;" 
d="M1675 391q44 0 87 40t64 80l21 40q-3 -9 -8.5 -24t-26 -54t-45.5 -70t-67 -58.5t-90 -33.5q-114 -112 -265 -174.5t-317 -62.5q-169 0 -322.5 65.5t-264.5 176t-176.5 264t-65.5 321.5q0 70 14 156q-64 -47 -127 -109q12 21 27.5 46t56 80.5t84 104.5t109 106.5t133 98
t154.5 68t175 27.5q113 0 113 -66q0 -44 -51 -126t-123.5 -176.5t-145 -195t-123.5 -207.5t-51 -188q0 -59 35.5 -98t91.5 -39q49 0 89 37.5t40 79.5q0 10 -10 10q-6 -2 -22 -2q-60 0 -60 74q0 59 43 149.5t104.5 183.5t123 184.5t104.5 174.5t43 131q0 56 -42 95.5
t-122 39.5q-171 0 -322 -82.5t-270 -216.5q100 220 304 355t454 135q135 0 261 -42t228 -118.5t178.5 -178.5t118 -229t41.5 -262q0 -221 -110 -414q-27 -10 -43 -10q-62 0 -98.5 41.5t-57.5 114.5q127 139 215 295q6 12 6 18t-4 6q-8 0 -16 -16q-80 -147 -211 -266
q-6 26 -15.5 71t-15.5 72.5t-17.5 62t-24 54t-33.5 33.5t-48 14t-50 -11t-37.5 -29.5t-23 -33.5t-14.5 -31q0 -8 7 -8q40 0 72.5 -14t54 -33.5t41.5 -54t31 -61.5t26 -70q-183 -142 -336 -142q-135 0 -135 199q0 162 86 402q64 4 319.5 30.5t345.5 26.5q23 0 23 10
q0 8 -20 8q-101 0 -286.5 1t-350.5 1q39 96 76.5 157.5t58.5 61.5q14 0 14 -38q0 -13 12 -13t19.5 8t7.5 19q0 17 -16.5 32t-44.5 15q-36 0 -92 -67.5t-113 -174.5h-66q-41 0 -41 -22q0 -16 18 -31.5t50 -21.5q-123 -264 -123 -461q0 -250 221 -250q180 0 387 207
q16 -46 28.5 -75t33 -60.5t48 -46.5t62.5 -15z" />
    <glyph glyph-name="eacute" unicode="&#xe9;" 
d="M1675 391q44 0 87 40t64 80l21 40q-3 -9 -8.5 -24t-26 -54t-45.5 -70t-67 -58.5t-90 -33.5q-114 -112 -265 -174.5t-317 -62.5q-169 0 -322.5 65.5t-264.5 176t-176.5 264t-65.5 321.5q0 70 14 156q-64 -47 -127 -109q12 21 27.5 46t56 80.5t84 104.5t109 106.5t133 98
t154.5 68t175 27.5q113 0 113 -66q0 -44 -51 -126t-123.5 -176.5t-145 -195t-123.5 -207.5t-51 -188q0 -59 35.5 -98t91.5 -39q49 0 89 37.5t40 79.5q0 10 -10 10q-6 -2 -22 -2q-60 0 -60 74q0 59 43 149.5t104.5 183.5t123 184.5t104.5 174.5t43 131q0 56 -42 95.5
t-122 39.5q-171 0 -322 -82.5t-270 -216.5q100 220 304 355t454 135q135 0 261 -42t228 -118.5t178.5 -178.5t118 -229t41.5 -262q0 -221 -110 -414q-27 -10 -43 -10q-62 0 -98.5 41.5t-57.5 114.5q127 139 215 295q6 12 6 18t-4 6q-8 0 -16 -16q-80 -147 -211 -266
q-6 26 -15.5 71t-15.5 72.5t-17.5 62t-24 54t-33.5 33.5t-48 14t-50 -11t-37.5 -29.5t-23 -33.5t-14.5 -31q0 -8 7 -8q40 0 72.5 -14t54 -33.5t41.5 -54t31 -61.5t26 -70q-183 -142 -336 -142q-135 0 -135 199q0 162 86 402q64 4 319.5 30.5t345.5 26.5q23 0 23 10
q0 8 -20 8q-101 0 -286.5 1t-350.5 1q39 96 76.5 157.5t58.5 61.5q14 0 14 -38q0 -13 12 -13t19.5 8t7.5 19q0 17 -16.5 32t-44.5 15q-36 0 -92 -67.5t-113 -174.5h-66q-41 0 -41 -22q0 -16 18 -31.5t50 -21.5q-123 -264 -123 -461q0 -250 221 -250q180 0 387 207
q16 -46 28.5 -75t33 -60.5t48 -46.5t62.5 -15z" />
    <glyph glyph-name="ecircumflex" unicode="&#xea;" 
d="M1675 391q44 0 87 40t64 80l21 40q-3 -9 -8.5 -24t-26 -54t-45.5 -70t-67 -58.5t-90 -33.5q-114 -112 -265 -174.5t-317 -62.5q-169 0 -322.5 65.5t-264.5 176t-176.5 264t-65.5 321.5q0 70 14 156q-64 -47 -127 -109q12 21 27.5 46t56 80.5t84 104.5t109 106.5t133 98
t154.5 68t175 27.5q113 0 113 -66q0 -44 -51 -126t-123.5 -176.5t-145 -195t-123.5 -207.5t-51 -188q0 -59 35.5 -98t91.5 -39q49 0 89 37.5t40 79.5q0 10 -10 10q-6 -2 -22 -2q-60 0 -60 74q0 59 43 149.5t104.5 183.5t123 184.5t104.5 174.5t43 131q0 56 -42 95.5
t-122 39.5q-171 0 -322 -82.5t-270 -216.5q100 220 304 355t454 135q135 0 261 -42t228 -118.5t178.5 -178.5t118 -229t41.5 -262q0 -221 -110 -414q-27 -10 -43 -10q-62 0 -98.5 41.5t-57.5 114.5q127 139 215 295q6 12 6 18t-4 6q-8 0 -16 -16q-80 -147 -211 -266
q-6 26 -15.5 71t-15.5 72.5t-17.5 62t-24 54t-33.5 33.5t-48 14t-50 -11t-37.5 -29.5t-23 -33.5t-14.5 -31q0 -8 7 -8q40 0 72.5 -14t54 -33.5t41.5 -54t31 -61.5t26 -70q-183 -142 -336 -142q-135 0 -135 199q0 162 86 402q64 4 319.5 30.5t345.5 26.5q23 0 23 10
q0 8 -20 8q-101 0 -286.5 1t-350.5 1q39 96 76.5 157.5t58.5 61.5q14 0 14 -38q0 -13 12 -13t19.5 8t7.5 19q0 17 -16.5 32t-44.5 15q-36 0 -92 -67.5t-113 -174.5h-66q-41 0 -41 -22q0 -16 18 -31.5t50 -21.5q-123 -264 -123 -461q0 -250 221 -250q180 0 387 207
q16 -46 28.5 -75t33 -60.5t48 -46.5t62.5 -15z" />
    <glyph glyph-name="edieresis" unicode="&#xeb;" 
d="M1675 391q44 0 87 40t64 80l21 40q-3 -9 -8.5 -24t-26 -54t-45.5 -70t-67 -58.5t-90 -33.5q-114 -112 -265 -174.5t-317 -62.5q-169 0 -322.5 65.5t-264.5 176t-176.5 264t-65.5 321.5q0 70 14 156q-64 -47 -127 -109q12 21 27.5 46t56 80.5t84 104.5t109 106.5t133 98
t154.5 68t175 27.5q113 0 113 -66q0 -44 -51 -126t-123.5 -176.5t-145 -195t-123.5 -207.5t-51 -188q0 -59 35.5 -98t91.5 -39q49 0 89 37.5t40 79.5q0 10 -10 10q-6 -2 -22 -2q-60 0 -60 74q0 59 43 149.5t104.5 183.5t123 184.5t104.5 174.5t43 131q0 56 -42 95.5
t-122 39.5q-171 0 -322 -82.5t-270 -216.5q100 220 304 355t454 135q135 0 261 -42t228 -118.5t178.5 -178.5t118 -229t41.5 -262q0 -221 -110 -414q-27 -10 -43 -10q-62 0 -98.5 41.5t-57.5 114.5q127 139 215 295q6 12 6 18t-4 6q-8 0 -16 -16q-80 -147 -211 -266
q-6 26 -15.5 71t-15.5 72.5t-17.5 62t-24 54t-33.5 33.5t-48 14t-50 -11t-37.5 -29.5t-23 -33.5t-14.5 -31q0 -8 7 -8q40 0 72.5 -14t54 -33.5t41.5 -54t31 -61.5t26 -70q-183 -142 -336 -142q-135 0 -135 199q0 162 86 402q64 4 319.5 30.5t345.5 26.5q23 0 23 10
q0 8 -20 8q-101 0 -286.5 1t-350.5 1q39 96 76.5 157.5t58.5 61.5q14 0 14 -38q0 -13 12 -13t19.5 8t7.5 19q0 17 -16.5 32t-44.5 15q-36 0 -92 -67.5t-113 -174.5h-66q-41 0 -41 -22q0 -16 18 -31.5t50 -21.5q-123 -264 -123 -461q0 -250 221 -250q180 0 387 207
q16 -46 28.5 -75t33 -60.5t48 -46.5t62.5 -15z" />
    <glyph glyph-name="igrave" unicode="&#xec;" 
d="M1675 391q44 0 87 40t64 80l21 40q-3 -9 -8.5 -24t-26 -54t-45.5 -70t-67 -58.5t-90 -33.5q-114 -112 -265 -174.5t-317 -62.5q-169 0 -322.5 65.5t-264.5 176t-176.5 264t-65.5 321.5q0 70 14 156q-64 -47 -127 -109q12 21 27.5 46t56 80.5t84 104.5t109 106.5t133 98
t154.5 68t175 27.5q113 0 113 -66q0 -44 -51 -126t-123.5 -176.5t-145 -195t-123.5 -207.5t-51 -188q0 -59 35.5 -98t91.5 -39q49 0 89 37.5t40 79.5q0 10 -10 10q-6 -2 -22 -2q-60 0 -60 74q0 59 43 149.5t104.5 183.5t123 184.5t104.5 174.5t43 131q0 56 -42 95.5
t-122 39.5q-171 0 -322 -82.5t-270 -216.5q100 220 304 355t454 135q135 0 261 -42t228 -118.5t178.5 -178.5t118 -229t41.5 -262q0 -221 -110 -414q-27 -10 -43 -10q-62 0 -98.5 41.5t-57.5 114.5q127 139 215 295q6 12 6 18t-4 6q-8 0 -16 -16q-80 -147 -211 -266
q-6 26 -15.5 71t-15.5 72.5t-17.5 62t-24 54t-33.5 33.5t-48 14t-50 -11t-37.5 -29.5t-23 -33.5t-14.5 -31q0 -8 7 -8q40 0 72.5 -14t54 -33.5t41.5 -54t31 -61.5t26 -70q-183 -142 -336 -142q-135 0 -135 199q0 162 86 402q64 4 319.5 30.5t345.5 26.5q23 0 23 10
q0 8 -20 8q-101 0 -286.5 1t-350.5 1q39 96 76.5 157.5t58.5 61.5q14 0 14 -38q0 -13 12 -13t19.5 8t7.5 19q0 17 -16.5 32t-44.5 15q-36 0 -92 -67.5t-113 -174.5h-66q-41 0 -41 -22q0 -16 18 -31.5t50 -21.5q-123 -264 -123 -461q0 -250 221 -250q180 0 387 207
q16 -46 28.5 -75t33 -60.5t48 -46.5t62.5 -15z" />
    <glyph glyph-name="iacute" unicode="&#xed;" 
d="M1675 391q44 0 87 40t64 80l21 40q-3 -9 -8.5 -24t-26 -54t-45.5 -70t-67 -58.5t-90 -33.5q-114 -112 -265 -174.5t-317 -62.5q-169 0 -322.5 65.5t-264.5 176t-176.5 264t-65.5 321.5q0 70 14 156q-64 -47 -127 -109q12 21 27.5 46t56 80.5t84 104.5t109 106.5t133 98
t154.5 68t175 27.5q113 0 113 -66q0 -44 -51 -126t-123.5 -176.5t-145 -195t-123.5 -207.5t-51 -188q0 -59 35.5 -98t91.5 -39q49 0 89 37.5t40 79.5q0 10 -10 10q-6 -2 -22 -2q-60 0 -60 74q0 59 43 149.5t104.5 183.5t123 184.5t104.5 174.5t43 131q0 56 -42 95.5
t-122 39.5q-171 0 -322 -82.5t-270 -216.5q100 220 304 355t454 135q135 0 261 -42t228 -118.5t178.5 -178.5t118 -229t41.5 -262q0 -221 -110 -414q-27 -10 -43 -10q-62 0 -98.5 41.5t-57.5 114.5q127 139 215 295q6 12 6 18t-4 6q-8 0 -16 -16q-80 -147 -211 -266
q-6 26 -15.5 71t-15.5 72.5t-17.5 62t-24 54t-33.5 33.5t-48 14t-50 -11t-37.5 -29.5t-23 -33.5t-14.5 -31q0 -8 7 -8q40 0 72.5 -14t54 -33.5t41.5 -54t31 -61.5t26 -70q-183 -142 -336 -142q-135 0 -135 199q0 162 86 402q64 4 319.5 30.5t345.5 26.5q23 0 23 10
q0 8 -20 8q-101 0 -286.5 1t-350.5 1q39 96 76.5 157.5t58.5 61.5q14 0 14 -38q0 -13 12 -13t19.5 8t7.5 19q0 17 -16.5 32t-44.5 15q-36 0 -92 -67.5t-113 -174.5h-66q-41 0 -41 -22q0 -16 18 -31.5t50 -21.5q-123 -264 -123 -461q0 -250 221 -250q180 0 387 207
q16 -46 28.5 -75t33 -60.5t48 -46.5t62.5 -15z" />
    <glyph glyph-name="icircumflex" unicode="&#xee;" 
d="M1675 391q44 0 87 40t64 80l21 40q-3 -9 -8.5 -24t-26 -54t-45.5 -70t-67 -58.5t-90 -33.5q-114 -112 -265 -174.5t-317 -62.5q-169 0 -322.5 65.5t-264.5 176t-176.5 264t-65.5 321.5q0 70 14 156q-64 -47 -127 -109q12 21 27.5 46t56 80.5t84 104.5t109 106.5t133 98
t154.5 68t175 27.5q113 0 113 -66q0 -44 -51 -126t-123.5 -176.5t-145 -195t-123.5 -207.5t-51 -188q0 -59 35.5 -98t91.5 -39q49 0 89 37.5t40 79.5q0 10 -10 10q-6 -2 -22 -2q-60 0 -60 74q0 59 43 149.5t104.5 183.5t123 184.5t104.5 174.5t43 131q0 56 -42 95.5
t-122 39.5q-171 0 -322 -82.5t-270 -216.5q100 220 304 355t454 135q135 0 261 -42t228 -118.5t178.5 -178.5t118 -229t41.5 -262q0 -221 -110 -414q-27 -10 -43 -10q-62 0 -98.5 41.5t-57.5 114.5q127 139 215 295q6 12 6 18t-4 6q-8 0 -16 -16q-80 -147 -211 -266
q-6 26 -15.5 71t-15.5 72.5t-17.5 62t-24 54t-33.5 33.5t-48 14t-50 -11t-37.5 -29.5t-23 -33.5t-14.5 -31q0 -8 7 -8q40 0 72.5 -14t54 -33.5t41.5 -54t31 -61.5t26 -70q-183 -142 -336 -142q-135 0 -135 199q0 162 86 402q64 4 319.5 30.5t345.5 26.5q23 0 23 10
q0 8 -20 8q-101 0 -286.5 1t-350.5 1q39 96 76.5 157.5t58.5 61.5q14 0 14 -38q0 -13 12 -13t19.5 8t7.5 19q0 17 -16.5 32t-44.5 15q-36 0 -92 -67.5t-113 -174.5h-66q-41 0 -41 -22q0 -16 18 -31.5t50 -21.5q-123 -264 -123 -461q0 -250 221 -250q180 0 387 207
q16 -46 28.5 -75t33 -60.5t48 -46.5t62.5 -15z" />
    <glyph glyph-name="idieresis" unicode="&#xef;" 
d="M1675 391q44 0 87 40t64 80l21 40q-3 -9 -8.5 -24t-26 -54t-45.5 -70t-67 -58.5t-90 -33.5q-114 -112 -265 -174.5t-317 -62.5q-169 0 -322.5 65.5t-264.5 176t-176.5 264t-65.5 321.5q0 70 14 156q-64 -47 -127 -109q12 21 27.5 46t56 80.5t84 104.5t109 106.5t133 98
t154.5 68t175 27.5q113 0 113 -66q0 -44 -51 -126t-123.5 -176.5t-145 -195t-123.5 -207.5t-51 -188q0 -59 35.5 -98t91.5 -39q49 0 89 37.5t40 79.5q0 10 -10 10q-6 -2 -22 -2q-60 0 -60 74q0 59 43 149.5t104.5 183.5t123 184.5t104.5 174.5t43 131q0 56 -42 95.5
t-122 39.5q-171 0 -322 -82.5t-270 -216.5q100 220 304 355t454 135q135 0 261 -42t228 -118.5t178.5 -178.5t118 -229t41.5 -262q0 -221 -110 -414q-27 -10 -43 -10q-62 0 -98.5 41.5t-57.5 114.5q127 139 215 295q6 12 6 18t-4 6q-8 0 -16 -16q-80 -147 -211 -266
q-6 26 -15.5 71t-15.5 72.5t-17.5 62t-24 54t-33.5 33.5t-48 14t-50 -11t-37.5 -29.5t-23 -33.5t-14.5 -31q0 -8 7 -8q40 0 72.5 -14t54 -33.5t41.5 -54t31 -61.5t26 -70q-183 -142 -336 -142q-135 0 -135 199q0 162 86 402q64 4 319.5 30.5t345.5 26.5q23 0 23 10
q0 8 -20 8q-101 0 -286.5 1t-350.5 1q39 96 76.5 157.5t58.5 61.5q14 0 14 -38q0 -13 12 -13t19.5 8t7.5 19q0 17 -16.5 32t-44.5 15q-36 0 -92 -67.5t-113 -174.5h-66q-41 0 -41 -22q0 -16 18 -31.5t50 -21.5q-123 -264 -123 -461q0 -250 221 -250q180 0 387 207
q16 -46 28.5 -75t33 -60.5t48 -46.5t62.5 -15z" />
    <glyph glyph-name="eth" unicode="&#xf0;" 
d="M1675 391q44 0 87 40t64 80l21 40q-3 -9 -8.5 -24t-26 -54t-45.5 -70t-67 -58.5t-90 -33.5q-114 -112 -265 -174.5t-317 -62.5q-169 0 -322.5 65.5t-264.5 176t-176.5 264t-65.5 321.5q0 70 14 156q-64 -47 -127 -109q12 21 27.5 46t56 80.5t84 104.5t109 106.5t133 98
t154.5 68t175 27.5q113 0 113 -66q0 -44 -51 -126t-123.5 -176.5t-145 -195t-123.5 -207.5t-51 -188q0 -59 35.5 -98t91.5 -39q49 0 89 37.5t40 79.5q0 10 -10 10q-6 -2 -22 -2q-60 0 -60 74q0 59 43 149.5t104.5 183.5t123 184.5t104.5 174.5t43 131q0 56 -42 95.5
t-122 39.5q-171 0 -322 -82.5t-270 -216.5q100 220 304 355t454 135q135 0 261 -42t228 -118.5t178.5 -178.5t118 -229t41.5 -262q0 -221 -110 -414q-27 -10 -43 -10q-62 0 -98.5 41.5t-57.5 114.5q127 139 215 295q6 12 6 18t-4 6q-8 0 -16 -16q-80 -147 -211 -266
q-6 26 -15.5 71t-15.5 72.5t-17.5 62t-24 54t-33.5 33.5t-48 14t-50 -11t-37.5 -29.5t-23 -33.5t-14.5 -31q0 -8 7 -8q40 0 72.5 -14t54 -33.5t41.5 -54t31 -61.5t26 -70q-183 -142 -336 -142q-135 0 -135 199q0 162 86 402q64 4 319.5 30.5t345.5 26.5q23 0 23 10
q0 8 -20 8q-101 0 -286.5 1t-350.5 1q39 96 76.5 157.5t58.5 61.5q14 0 14 -38q0 -13 12 -13t19.5 8t7.5 19q0 17 -16.5 32t-44.5 15q-36 0 -92 -67.5t-113 -174.5h-66q-41 0 -41 -22q0 -16 18 -31.5t50 -21.5q-123 -264 -123 -461q0 -250 221 -250q180 0 387 207
q16 -46 28.5 -75t33 -60.5t48 -46.5t62.5 -15z" />
    <glyph glyph-name="ntilde" unicode="&#xf1;" 
d="M1675 391q44 0 87 40t64 80l21 40q-3 -9 -8.5 -24t-26 -54t-45.5 -70t-67 -58.5t-90 -33.5q-114 -112 -265 -174.5t-317 -62.5q-169 0 -322.5 65.5t-264.5 176t-176.5 264t-65.5 321.5q0 70 14 156q-64 -47 -127 -109q12 21 27.5 46t56 80.5t84 104.5t109 106.5t133 98
t154.5 68t175 27.5q113 0 113 -66q0 -44 -51 -126t-123.5 -176.5t-145 -195t-123.5 -207.5t-51 -188q0 -59 35.5 -98t91.5 -39q49 0 89 37.5t40 79.5q0 10 -10 10q-6 -2 -22 -2q-60 0 -60 74q0 59 43 149.5t104.5 183.5t123 184.5t104.5 174.5t43 131q0 56 -42 95.5
t-122 39.5q-171 0 -322 -82.5t-270 -216.5q100 220 304 355t454 135q135 0 261 -42t228 -118.5t178.5 -178.5t118 -229t41.5 -262q0 -221 -110 -414q-27 -10 -43 -10q-62 0 -98.5 41.5t-57.5 114.5q127 139 215 295q6 12 6 18t-4 6q-8 0 -16 -16q-80 -147 -211 -266
q-6 26 -15.5 71t-15.5 72.5t-17.5 62t-24 54t-33.5 33.5t-48 14t-50 -11t-37.5 -29.5t-23 -33.5t-14.5 -31q0 -8 7 -8q40 0 72.5 -14t54 -33.5t41.5 -54t31 -61.5t26 -70q-183 -142 -336 -142q-135 0 -135 199q0 162 86 402q64 4 319.5 30.5t345.5 26.5q23 0 23 10
q0 8 -20 8q-101 0 -286.5 1t-350.5 1q39 96 76.5 157.5t58.5 61.5q14 0 14 -38q0 -13 12 -13t19.5 8t7.5 19q0 17 -16.5 32t-44.5 15q-36 0 -92 -67.5t-113 -174.5h-66q-41 0 -41 -22q0 -16 18 -31.5t50 -21.5q-123 -264 -123 -461q0 -250 221 -250q180 0 387 207
q16 -46 28.5 -75t33 -60.5t48 -46.5t62.5 -15z" />
    <glyph glyph-name="ograve" unicode="&#xf2;" 
d="M1675 391q44 0 87 40t64 80l21 40q-3 -9 -8.5 -24t-26 -54t-45.5 -70t-67 -58.5t-90 -33.5q-114 -112 -265 -174.5t-317 -62.5q-169 0 -322.5 65.5t-264.5 176t-176.5 264t-65.5 321.5q0 70 14 156q-64 -47 -127 -109q12 21 27.5 46t56 80.5t84 104.5t109 106.5t133 98
t154.5 68t175 27.5q113 0 113 -66q0 -44 -51 -126t-123.5 -176.5t-145 -195t-123.5 -207.5t-51 -188q0 -59 35.5 -98t91.5 -39q49 0 89 37.5t40 79.5q0 10 -10 10q-6 -2 -22 -2q-60 0 -60 74q0 59 43 149.5t104.5 183.5t123 184.5t104.5 174.5t43 131q0 56 -42 95.5
t-122 39.5q-171 0 -322 -82.5t-270 -216.5q100 220 304 355t454 135q135 0 261 -42t228 -118.5t178.5 -178.5t118 -229t41.5 -262q0 -221 -110 -414q-27 -10 -43 -10q-62 0 -98.5 41.5t-57.5 114.5q127 139 215 295q6 12 6 18t-4 6q-8 0 -16 -16q-80 -147 -211 -266
q-6 26 -15.5 71t-15.5 72.5t-17.5 62t-24 54t-33.5 33.5t-48 14t-50 -11t-37.5 -29.5t-23 -33.5t-14.5 -31q0 -8 7 -8q40 0 72.5 -14t54 -33.5t41.5 -54t31 -61.5t26 -70q-183 -142 -336 -142q-135 0 -135 199q0 162 86 402q64 4 319.5 30.5t345.5 26.5q23 0 23 10
q0 8 -20 8q-101 0 -286.5 1t-350.5 1q39 96 76.5 157.5t58.5 61.5q14 0 14 -38q0 -13 12 -13t19.5 8t7.5 19q0 17 -16.5 32t-44.5 15q-36 0 -92 -67.5t-113 -174.5h-66q-41 0 -41 -22q0 -16 18 -31.5t50 -21.5q-123 -264 -123 -461q0 -250 221 -250q180 0 387 207
q16 -46 28.5 -75t33 -60.5t48 -46.5t62.5 -15z" />
    <glyph glyph-name="oacute" unicode="&#xf3;" 
d="M1675 391q44 0 87 40t64 80l21 40q-3 -9 -8.5 -24t-26 -54t-45.5 -70t-67 -58.5t-90 -33.5q-114 -112 -265 -174.5t-317 -62.5q-169 0 -322.5 65.5t-264.5 176t-176.5 264t-65.5 321.5q0 70 14 156q-64 -47 -127 -109q12 21 27.5 46t56 80.5t84 104.5t109 106.5t133 98
t154.5 68t175 27.5q113 0 113 -66q0 -44 -51 -126t-123.5 -176.5t-145 -195t-123.5 -207.5t-51 -188q0 -59 35.5 -98t91.5 -39q49 0 89 37.5t40 79.5q0 10 -10 10q-6 -2 -22 -2q-60 0 -60 74q0 59 43 149.5t104.5 183.5t123 184.5t104.5 174.5t43 131q0 56 -42 95.5
t-122 39.5q-171 0 -322 -82.5t-270 -216.5q100 220 304 355t454 135q135 0 261 -42t228 -118.5t178.5 -178.5t118 -229t41.5 -262q0 -221 -110 -414q-27 -10 -43 -10q-62 0 -98.5 41.5t-57.5 114.5q127 139 215 295q6 12 6 18t-4 6q-8 0 -16 -16q-80 -147 -211 -266
q-6 26 -15.5 71t-15.5 72.5t-17.5 62t-24 54t-33.5 33.5t-48 14t-50 -11t-37.5 -29.5t-23 -33.5t-14.5 -31q0 -8 7 -8q40 0 72.5 -14t54 -33.5t41.5 -54t31 -61.5t26 -70q-183 -142 -336 -142q-135 0 -135 199q0 162 86 402q64 4 319.5 30.5t345.5 26.5q23 0 23 10
q0 8 -20 8q-101 0 -286.5 1t-350.5 1q39 96 76.5 157.5t58.5 61.5q14 0 14 -38q0 -13 12 -13t19.5 8t7.5 19q0 17 -16.5 32t-44.5 15q-36 0 -92 -67.5t-113 -174.5h-66q-41 0 -41 -22q0 -16 18 -31.5t50 -21.5q-123 -264 -123 -461q0 -250 221 -250q180 0 387 207
q16 -46 28.5 -75t33 -60.5t48 -46.5t62.5 -15z" />
    <glyph glyph-name="ocircumflex" unicode="&#xf4;" 
d="M1675 391q44 0 87 40t64 80l21 40q-3 -9 -8.5 -24t-26 -54t-45.5 -70t-67 -58.5t-90 -33.5q-114 -112 -265 -174.5t-317 -62.5q-169 0 -322.5 65.5t-264.5 176t-176.5 264t-65.5 321.5q0 70 14 156q-64 -47 -127 -109q12 21 27.5 46t56 80.5t84 104.5t109 106.5t133 98
t154.5 68t175 27.5q113 0 113 -66q0 -44 -51 -126t-123.5 -176.5t-145 -195t-123.5 -207.5t-51 -188q0 -59 35.5 -98t91.5 -39q49 0 89 37.5t40 79.5q0 10 -10 10q-6 -2 -22 -2q-60 0 -60 74q0 59 43 149.5t104.5 183.5t123 184.5t104.5 174.5t43 131q0 56 -42 95.5
t-122 39.5q-171 0 -322 -82.5t-270 -216.5q100 220 304 355t454 135q135 0 261 -42t228 -118.5t178.5 -178.5t118 -229t41.5 -262q0 -221 -110 -414q-27 -10 -43 -10q-62 0 -98.5 41.5t-57.5 114.5q127 139 215 295q6 12 6 18t-4 6q-8 0 -16 -16q-80 -147 -211 -266
q-6 26 -15.5 71t-15.5 72.5t-17.5 62t-24 54t-33.5 33.5t-48 14t-50 -11t-37.5 -29.5t-23 -33.5t-14.5 -31q0 -8 7 -8q40 0 72.5 -14t54 -33.5t41.5 -54t31 -61.5t26 -70q-183 -142 -336 -142q-135 0 -135 199q0 162 86 402q64 4 319.5 30.5t345.5 26.5q23 0 23 10
q0 8 -20 8q-101 0 -286.5 1t-350.5 1q39 96 76.5 157.5t58.5 61.5q14 0 14 -38q0 -13 12 -13t19.5 8t7.5 19q0 17 -16.5 32t-44.5 15q-36 0 -92 -67.5t-113 -174.5h-66q-41 0 -41 -22q0 -16 18 -31.5t50 -21.5q-123 -264 -123 -461q0 -250 221 -250q180 0 387 207
q16 -46 28.5 -75t33 -60.5t48 -46.5t62.5 -15z" />
    <glyph glyph-name="otilde" unicode="&#xf5;" 
d="M1675 391q44 0 87 40t64 80l21 40q-3 -9 -8.5 -24t-26 -54t-45.5 -70t-67 -58.5t-90 -33.5q-114 -112 -265 -174.5t-317 -62.5q-169 0 -322.5 65.5t-264.5 176t-176.5 264t-65.5 321.5q0 70 14 156q-64 -47 -127 -109q12 21 27.5 46t56 80.5t84 104.5t109 106.5t133 98
t154.5 68t175 27.5q113 0 113 -66q0 -44 -51 -126t-123.5 -176.5t-145 -195t-123.5 -207.5t-51 -188q0 -59 35.5 -98t91.5 -39q49 0 89 37.5t40 79.5q0 10 -10 10q-6 -2 -22 -2q-60 0 -60 74q0 59 43 149.5t104.5 183.5t123 184.5t104.5 174.5t43 131q0 56 -42 95.5
t-122 39.5q-171 0 -322 -82.5t-270 -216.5q100 220 304 355t454 135q135 0 261 -42t228 -118.5t178.5 -178.5t118 -229t41.5 -262q0 -221 -110 -414q-27 -10 -43 -10q-62 0 -98.5 41.5t-57.5 114.5q127 139 215 295q6 12 6 18t-4 6q-8 0 -16 -16q-80 -147 -211 -266
q-6 26 -15.5 71t-15.5 72.5t-17.5 62t-24 54t-33.5 33.5t-48 14t-50 -11t-37.5 -29.5t-23 -33.5t-14.5 -31q0 -8 7 -8q40 0 72.5 -14t54 -33.5t41.5 -54t31 -61.5t26 -70q-183 -142 -336 -142q-135 0 -135 199q0 162 86 402q64 4 319.5 30.5t345.5 26.5q23 0 23 10
q0 8 -20 8q-101 0 -286.5 1t-350.5 1q39 96 76.5 157.5t58.5 61.5q14 0 14 -38q0 -13 12 -13t19.5 8t7.5 19q0 17 -16.5 32t-44.5 15q-36 0 -92 -67.5t-113 -174.5h-66q-41 0 -41 -22q0 -16 18 -31.5t50 -21.5q-123 -264 -123 -461q0 -250 221 -250q180 0 387 207
q16 -46 28.5 -75t33 -60.5t48 -46.5t62.5 -15z" />
    <glyph glyph-name="odieresis" unicode="&#xf6;" 
d="M1675 391q44 0 87 40t64 80l21 40q-3 -9 -8.5 -24t-26 -54t-45.5 -70t-67 -58.5t-90 -33.5q-114 -112 -265 -174.5t-317 -62.5q-169 0 -322.5 65.5t-264.5 176t-176.5 264t-65.5 321.5q0 70 14 156q-64 -47 -127 -109q12 21 27.5 46t56 80.5t84 104.5t109 106.5t133 98
t154.5 68t175 27.5q113 0 113 -66q0 -44 -51 -126t-123.5 -176.5t-145 -195t-123.5 -207.5t-51 -188q0 -59 35.5 -98t91.5 -39q49 0 89 37.5t40 79.5q0 10 -10 10q-6 -2 -22 -2q-60 0 -60 74q0 59 43 149.5t104.5 183.5t123 184.5t104.5 174.5t43 131q0 56 -42 95.5
t-122 39.5q-171 0 -322 -82.5t-270 -216.5q100 220 304 355t454 135q135 0 261 -42t228 -118.5t178.5 -178.5t118 -229t41.5 -262q0 -221 -110 -414q-27 -10 -43 -10q-62 0 -98.5 41.5t-57.5 114.5q127 139 215 295q6 12 6 18t-4 6q-8 0 -16 -16q-80 -147 -211 -266
q-6 26 -15.5 71t-15.5 72.5t-17.5 62t-24 54t-33.5 33.5t-48 14t-50 -11t-37.5 -29.5t-23 -33.5t-14.5 -31q0 -8 7 -8q40 0 72.5 -14t54 -33.5t41.5 -54t31 -61.5t26 -70q-183 -142 -336 -142q-135 0 -135 199q0 162 86 402q64 4 319.5 30.5t345.5 26.5q23 0 23 10
q0 8 -20 8q-101 0 -286.5 1t-350.5 1q39 96 76.5 157.5t58.5 61.5q14 0 14 -38q0 -13 12 -13t19.5 8t7.5 19q0 17 -16.5 32t-44.5 15q-36 0 -92 -67.5t-113 -174.5h-66q-41 0 -41 -22q0 -16 18 -31.5t50 -21.5q-123 -264 -123 -461q0 -250 221 -250q180 0 387 207
q16 -46 28.5 -75t33 -60.5t48 -46.5t62.5 -15z" />
    <glyph glyph-name="divide" unicode="&#xf7;" 
d="M1675 391q44 0 87 40t64 80l21 40q-3 -9 -8.5 -24t-26 -54t-45.5 -70t-67 -58.5t-90 -33.5q-114 -112 -265 -174.5t-317 -62.5q-169 0 -322.5 65.5t-264.5 176t-176.5 264t-65.5 321.5q0 70 14 156q-64 -47 -127 -109q12 21 27.5 46t56 80.5t84 104.5t109 106.5t133 98
t154.5 68t175 27.5q113 0 113 -66q0 -44 -51 -126t-123.5 -176.5t-145 -195t-123.5 -207.5t-51 -188q0 -59 35.5 -98t91.5 -39q49 0 89 37.5t40 79.5q0 10 -10 10q-6 -2 -22 -2q-60 0 -60 74q0 59 43 149.5t104.5 183.5t123 184.5t104.5 174.5t43 131q0 56 -42 95.5
t-122 39.5q-171 0 -322 -82.5t-270 -216.5q100 220 304 355t454 135q135 0 261 -42t228 -118.5t178.5 -178.5t118 -229t41.5 -262q0 -221 -110 -414q-27 -10 -43 -10q-62 0 -98.5 41.5t-57.5 114.5q127 139 215 295q6 12 6 18t-4 6q-8 0 -16 -16q-80 -147 -211 -266
q-6 26 -15.5 71t-15.5 72.5t-17.5 62t-24 54t-33.5 33.5t-48 14t-50 -11t-37.5 -29.5t-23 -33.5t-14.5 -31q0 -8 7 -8q40 0 72.5 -14t54 -33.5t41.5 -54t31 -61.5t26 -70q-183 -142 -336 -142q-135 0 -135 199q0 162 86 402q64 4 319.5 30.5t345.5 26.5q23 0 23 10
q0 8 -20 8q-101 0 -286.5 1t-350.5 1q39 96 76.5 157.5t58.5 61.5q14 0 14 -38q0 -13 12 -13t19.5 8t7.5 19q0 17 -16.5 32t-44.5 15q-36 0 -92 -67.5t-113 -174.5h-66q-41 0 -41 -22q0 -16 18 -31.5t50 -21.5q-123 -264 -123 -461q0 -250 221 -250q180 0 387 207
q16 -46 28.5 -75t33 -60.5t48 -46.5t62.5 -15z" />
    <glyph glyph-name="oslash" unicode="&#xf8;" 
d="M1675 391q44 0 87 40t64 80l21 40q-3 -9 -8.5 -24t-26 -54t-45.5 -70t-67 -58.5t-90 -33.5q-114 -112 -265 -174.5t-317 -62.5q-169 0 -322.5 65.5t-264.5 176t-176.5 264t-65.5 321.5q0 70 14 156q-64 -47 -127 -109q12 21 27.5 46t56 80.5t84 104.5t109 106.5t133 98
t154.5 68t175 27.5q113 0 113 -66q0 -44 -51 -126t-123.5 -176.5t-145 -195t-123.5 -207.5t-51 -188q0 -59 35.5 -98t91.5 -39q49 0 89 37.5t40 79.5q0 10 -10 10q-6 -2 -22 -2q-60 0 -60 74q0 59 43 149.5t104.5 183.5t123 184.5t104.5 174.5t43 131q0 56 -42 95.5
t-122 39.5q-171 0 -322 -82.5t-270 -216.5q100 220 304 355t454 135q135 0 261 -42t228 -118.5t178.5 -178.5t118 -229t41.5 -262q0 -221 -110 -414q-27 -10 -43 -10q-62 0 -98.5 41.5t-57.5 114.5q127 139 215 295q6 12 6 18t-4 6q-8 0 -16 -16q-80 -147 -211 -266
q-6 26 -15.5 71t-15.5 72.5t-17.5 62t-24 54t-33.5 33.5t-48 14t-50 -11t-37.5 -29.5t-23 -33.5t-14.5 -31q0 -8 7 -8q40 0 72.5 -14t54 -33.5t41.5 -54t31 -61.5t26 -70q-183 -142 -336 -142q-135 0 -135 199q0 162 86 402q64 4 319.5 30.5t345.5 26.5q23 0 23 10
q0 8 -20 8q-101 0 -286.5 1t-350.5 1q39 96 76.5 157.5t58.5 61.5q14 0 14 -38q0 -13 12 -13t19.5 8t7.5 19q0 17 -16.5 32t-44.5 15q-36 0 -92 -67.5t-113 -174.5h-66q-41 0 -41 -22q0 -16 18 -31.5t50 -21.5q-123 -264 -123 -461q0 -250 221 -250q180 0 387 207
q16 -46 28.5 -75t33 -60.5t48 -46.5t62.5 -15z" />
    <glyph glyph-name="ugrave" unicode="&#xf9;" 
d="M1675 391q44 0 87 40t64 80l21 40q-3 -9 -8.5 -24t-26 -54t-45.5 -70t-67 -58.5t-90 -33.5q-114 -112 -265 -174.5t-317 -62.5q-169 0 -322.5 65.5t-264.5 176t-176.5 264t-65.5 321.5q0 70 14 156q-64 -47 -127 -109q12 21 27.5 46t56 80.5t84 104.5t109 106.5t133 98
t154.5 68t175 27.5q113 0 113 -66q0 -44 -51 -126t-123.5 -176.5t-145 -195t-123.5 -207.5t-51 -188q0 -59 35.5 -98t91.5 -39q49 0 89 37.5t40 79.5q0 10 -10 10q-6 -2 -22 -2q-60 0 -60 74q0 59 43 149.5t104.5 183.5t123 184.5t104.5 174.5t43 131q0 56 -42 95.5
t-122 39.5q-171 0 -322 -82.5t-270 -216.5q100 220 304 355t454 135q135 0 261 -42t228 -118.5t178.5 -178.5t118 -229t41.5 -262q0 -221 -110 -414q-27 -10 -43 -10q-62 0 -98.5 41.5t-57.5 114.5q127 139 215 295q6 12 6 18t-4 6q-8 0 -16 -16q-80 -147 -211 -266
q-6 26 -15.5 71t-15.5 72.5t-17.5 62t-24 54t-33.5 33.5t-48 14t-50 -11t-37.5 -29.5t-23 -33.5t-14.5 -31q0 -8 7 -8q40 0 72.5 -14t54 -33.5t41.5 -54t31 -61.5t26 -70q-183 -142 -336 -142q-135 0 -135 199q0 162 86 402q64 4 319.5 30.5t345.5 26.5q23 0 23 10
q0 8 -20 8q-101 0 -286.5 1t-350.5 1q39 96 76.5 157.5t58.5 61.5q14 0 14 -38q0 -13 12 -13t19.5 8t7.5 19q0 17 -16.5 32t-44.5 15q-36 0 -92 -67.5t-113 -174.5h-66q-41 0 -41 -22q0 -16 18 -31.5t50 -21.5q-123 -264 -123 -461q0 -250 221 -250q180 0 387 207
q16 -46 28.5 -75t33 -60.5t48 -46.5t62.5 -15z" />
    <glyph glyph-name="uacute" unicode="&#xfa;" 
d="M1675 391q44 0 87 40t64 80l21 40q-3 -9 -8.5 -24t-26 -54t-45.5 -70t-67 -58.5t-90 -33.5q-114 -112 -265 -174.5t-317 -62.5q-169 0 -322.5 65.5t-264.5 176t-176.5 264t-65.5 321.5q0 70 14 156q-64 -47 -127 -109q12 21 27.5 46t56 80.5t84 104.5t109 106.5t133 98
t154.5 68t175 27.5q113 0 113 -66q0 -44 -51 -126t-123.5 -176.5t-145 -195t-123.5 -207.5t-51 -188q0 -59 35.5 -98t91.5 -39q49 0 89 37.5t40 79.5q0 10 -10 10q-6 -2 -22 -2q-60 0 -60 74q0 59 43 149.5t104.5 183.5t123 184.5t104.5 174.5t43 131q0 56 -42 95.5
t-122 39.5q-171 0 -322 -82.5t-270 -216.5q100 220 304 355t454 135q135 0 261 -42t228 -118.5t178.5 -178.5t118 -229t41.5 -262q0 -221 -110 -414q-27 -10 -43 -10q-62 0 -98.5 41.5t-57.5 114.5q127 139 215 295q6 12 6 18t-4 6q-8 0 -16 -16q-80 -147 -211 -266
q-6 26 -15.5 71t-15.5 72.5t-17.5 62t-24 54t-33.5 33.5t-48 14t-50 -11t-37.5 -29.5t-23 -33.5t-14.5 -31q0 -8 7 -8q40 0 72.5 -14t54 -33.5t41.5 -54t31 -61.5t26 -70q-183 -142 -336 -142q-135 0 -135 199q0 162 86 402q64 4 319.5 30.5t345.5 26.5q23 0 23 10
q0 8 -20 8q-101 0 -286.5 1t-350.5 1q39 96 76.5 157.5t58.5 61.5q14 0 14 -38q0 -13 12 -13t19.5 8t7.5 19q0 17 -16.5 32t-44.5 15q-36 0 -92 -67.5t-113 -174.5h-66q-41 0 -41 -22q0 -16 18 -31.5t50 -21.5q-123 -264 -123 -461q0 -250 221 -250q180 0 387 207
q16 -46 28.5 -75t33 -60.5t48 -46.5t62.5 -15z" />
    <glyph glyph-name="ucircumflex" unicode="&#xfb;" 
d="M1675 391q44 0 87 40t64 80l21 40q-3 -9 -8.5 -24t-26 -54t-45.5 -70t-67 -58.5t-90 -33.5q-114 -112 -265 -174.5t-317 -62.5q-169 0 -322.5 65.5t-264.5 176t-176.5 264t-65.5 321.5q0 70 14 156q-64 -47 -127 -109q12 21 27.5 46t56 80.5t84 104.5t109 106.5t133 98
t154.5 68t175 27.5q113 0 113 -66q0 -44 -51 -126t-123.5 -176.5t-145 -195t-123.5 -207.5t-51 -188q0 -59 35.5 -98t91.5 -39q49 0 89 37.5t40 79.5q0 10 -10 10q-6 -2 -22 -2q-60 0 -60 74q0 59 43 149.5t104.5 183.5t123 184.5t104.5 174.5t43 131q0 56 -42 95.5
t-122 39.5q-171 0 -322 -82.5t-270 -216.5q100 220 304 355t454 135q135 0 261 -42t228 -118.5t178.5 -178.5t118 -229t41.5 -262q0 -221 -110 -414q-27 -10 -43 -10q-62 0 -98.5 41.5t-57.5 114.5q127 139 215 295q6 12 6 18t-4 6q-8 0 -16 -16q-80 -147 -211 -266
q-6 26 -15.5 71t-15.5 72.5t-17.5 62t-24 54t-33.5 33.5t-48 14t-50 -11t-37.5 -29.5t-23 -33.5t-14.5 -31q0 -8 7 -8q40 0 72.5 -14t54 -33.5t41.5 -54t31 -61.5t26 -70q-183 -142 -336 -142q-135 0 -135 199q0 162 86 402q64 4 319.5 30.5t345.5 26.5q23 0 23 10
q0 8 -20 8q-101 0 -286.5 1t-350.5 1q39 96 76.5 157.5t58.5 61.5q14 0 14 -38q0 -13 12 -13t19.5 8t7.5 19q0 17 -16.5 32t-44.5 15q-36 0 -92 -67.5t-113 -174.5h-66q-41 0 -41 -22q0 -16 18 -31.5t50 -21.5q-123 -264 -123 -461q0 -250 221 -250q180 0 387 207
q16 -46 28.5 -75t33 -60.5t48 -46.5t62.5 -15z" />
    <glyph glyph-name="udieresis" unicode="&#xfc;" 
d="M1675 391q44 0 87 40t64 80l21 40q-3 -9 -8.5 -24t-26 -54t-45.5 -70t-67 -58.5t-90 -33.5q-114 -112 -265 -174.5t-317 -62.5q-169 0 -322.5 65.5t-264.5 176t-176.5 264t-65.5 321.5q0 70 14 156q-64 -47 -127 -109q12 21 27.5 46t56 80.5t84 104.5t109 106.5t133 98
t154.5 68t175 27.5q113 0 113 -66q0 -44 -51 -126t-123.5 -176.5t-145 -195t-123.5 -207.5t-51 -188q0 -59 35.5 -98t91.5 -39q49 0 89 37.5t40 79.5q0 10 -10 10q-6 -2 -22 -2q-60 0 -60 74q0 59 43 149.5t104.5 183.5t123 184.5t104.5 174.5t43 131q0 56 -42 95.5
t-122 39.5q-171 0 -322 -82.5t-270 -216.5q100 220 304 355t454 135q135 0 261 -42t228 -118.5t178.5 -178.5t118 -229t41.5 -262q0 -221 -110 -414q-27 -10 -43 -10q-62 0 -98.5 41.5t-57.5 114.5q127 139 215 295q6 12 6 18t-4 6q-8 0 -16 -16q-80 -147 -211 -266
q-6 26 -15.5 71t-15.5 72.5t-17.5 62t-24 54t-33.5 33.5t-48 14t-50 -11t-37.5 -29.5t-23 -33.5t-14.5 -31q0 -8 7 -8q40 0 72.5 -14t54 -33.5t41.5 -54t31 -61.5t26 -70q-183 -142 -336 -142q-135 0 -135 199q0 162 86 402q64 4 319.5 30.5t345.5 26.5q23 0 23 10
q0 8 -20 8q-101 0 -286.5 1t-350.5 1q39 96 76.5 157.5t58.5 61.5q14 0 14 -38q0 -13 12 -13t19.5 8t7.5 19q0 17 -16.5 32t-44.5 15q-36 0 -92 -67.5t-113 -174.5h-66q-41 0 -41 -22q0 -16 18 -31.5t50 -21.5q-123 -264 -123 -461q0 -250 221 -250q180 0 387 207
q16 -46 28.5 -75t33 -60.5t48 -46.5t62.5 -15z" />
    <glyph glyph-name="yacute" unicode="&#xfd;" 
d="M1675 391q44 0 87 40t64 80l21 40q-3 -9 -8.5 -24t-26 -54t-45.5 -70t-67 -58.5t-90 -33.5q-114 -112 -265 -174.5t-317 -62.5q-169 0 -322.5 65.5t-264.5 176t-176.5 264t-65.5 321.5q0 70 14 156q-64 -47 -127 -109q12 21 27.5 46t56 80.5t84 104.5t109 106.5t133 98
t154.5 68t175 27.5q113 0 113 -66q0 -44 -51 -126t-123.5 -176.5t-145 -195t-123.5 -207.5t-51 -188q0 -59 35.5 -98t91.5 -39q49 0 89 37.5t40 79.5q0 10 -10 10q-6 -2 -22 -2q-60 0 -60 74q0 59 43 149.5t104.5 183.5t123 184.5t104.5 174.5t43 131q0 56 -42 95.5
t-122 39.5q-171 0 -322 -82.5t-270 -216.5q100 220 304 355t454 135q135 0 261 -42t228 -118.5t178.5 -178.5t118 -229t41.5 -262q0 -221 -110 -414q-27 -10 -43 -10q-62 0 -98.5 41.5t-57.5 114.5q127 139 215 295q6 12 6 18t-4 6q-8 0 -16 -16q-80 -147 -211 -266
q-6 26 -15.5 71t-15.5 72.5t-17.5 62t-24 54t-33.5 33.5t-48 14t-50 -11t-37.5 -29.5t-23 -33.5t-14.5 -31q0 -8 7 -8q40 0 72.5 -14t54 -33.5t41.5 -54t31 -61.5t26 -70q-183 -142 -336 -142q-135 0 -135 199q0 162 86 402q64 4 319.5 30.5t345.5 26.5q23 0 23 10
q0 8 -20 8q-101 0 -286.5 1t-350.5 1q39 96 76.5 157.5t58.5 61.5q14 0 14 -38q0 -13 12 -13t19.5 8t7.5 19q0 17 -16.5 32t-44.5 15q-36 0 -92 -67.5t-113 -174.5h-66q-41 0 -41 -22q0 -16 18 -31.5t50 -21.5q-123 -264 -123 -461q0 -250 221 -250q180 0 387 207
q16 -46 28.5 -75t33 -60.5t48 -46.5t62.5 -15z" />
    <glyph glyph-name="thorn" unicode="&#xfe;" 
d="M1675 391q44 0 87 40t64 80l21 40q-3 -9 -8.5 -24t-26 -54t-45.5 -70t-67 -58.5t-90 -33.5q-114 -112 -265 -174.5t-317 -62.5q-169 0 -322.5 65.5t-264.5 176t-176.5 264t-65.5 321.5q0 70 14 156q-64 -47 -127 -109q12 21 27.5 46t56 80.5t84 104.5t109 106.5t133 98
t154.5 68t175 27.5q113 0 113 -66q0 -44 -51 -126t-123.5 -176.5t-145 -195t-123.5 -207.5t-51 -188q0 -59 35.5 -98t91.5 -39q49 0 89 37.5t40 79.5q0 10 -10 10q-6 -2 -22 -2q-60 0 -60 74q0 59 43 149.5t104.5 183.5t123 184.5t104.5 174.5t43 131q0 56 -42 95.5
t-122 39.5q-171 0 -322 -82.5t-270 -216.5q100 220 304 355t454 135q135 0 261 -42t228 -118.5t178.5 -178.5t118 -229t41.5 -262q0 -221 -110 -414q-27 -10 -43 -10q-62 0 -98.5 41.5t-57.5 114.5q127 139 215 295q6 12 6 18t-4 6q-8 0 -16 -16q-80 -147 -211 -266
q-6 26 -15.5 71t-15.5 72.5t-17.5 62t-24 54t-33.5 33.5t-48 14t-50 -11t-37.5 -29.5t-23 -33.5t-14.5 -31q0 -8 7 -8q40 0 72.5 -14t54 -33.5t41.5 -54t31 -61.5t26 -70q-183 -142 -336 -142q-135 0 -135 199q0 162 86 402q64 4 319.5 30.5t345.5 26.5q23 0 23 10
q0 8 -20 8q-101 0 -286.5 1t-350.5 1q39 96 76.5 157.5t58.5 61.5q14 0 14 -38q0 -13 12 -13t19.5 8t7.5 19q0 17 -16.5 32t-44.5 15q-36 0 -92 -67.5t-113 -174.5h-66q-41 0 -41 -22q0 -16 18 -31.5t50 -21.5q-123 -264 -123 -461q0 -250 221 -250q180 0 387 207
q16 -46 28.5 -75t33 -60.5t48 -46.5t62.5 -15z" />
    <glyph glyph-name="ydieresis" unicode="&#xff;" 
d="M1675 391q44 0 87 40t64 80l21 40q-3 -9 -8.5 -24t-26 -54t-45.5 -70t-67 -58.5t-90 -33.5q-114 -112 -265 -174.5t-317 -62.5q-169 0 -322.5 65.5t-264.5 176t-176.5 264t-65.5 321.5q0 70 14 156q-64 -47 -127 -109q12 21 27.5 46t56 80.5t84 104.5t109 106.5t133 98
t154.5 68t175 27.5q113 0 113 -66q0 -44 -51 -126t-123.5 -176.5t-145 -195t-123.5 -207.5t-51 -188q0 -59 35.5 -98t91.5 -39q49 0 89 37.5t40 79.5q0 10 -10 10q-6 -2 -22 -2q-60 0 -60 74q0 59 43 149.5t104.5 183.5t123 184.5t104.5 174.5t43 131q0 56 -42 95.5
t-122 39.5q-171 0 -322 -82.5t-270 -216.5q100 220 304 355t454 135q135 0 261 -42t228 -118.5t178.5 -178.5t118 -229t41.5 -262q0 -221 -110 -414q-27 -10 -43 -10q-62 0 -98.5 41.5t-57.5 114.5q127 139 215 295q6 12 6 18t-4 6q-8 0 -16 -16q-80 -147 -211 -266
q-6 26 -15.5 71t-15.5 72.5t-17.5 62t-24 54t-33.5 33.5t-48 14t-50 -11t-37.5 -29.5t-23 -33.5t-14.5 -31q0 -8 7 -8q40 0 72.5 -14t54 -33.5t41.5 -54t31 -61.5t26 -70q-183 -142 -336 -142q-135 0 -135 199q0 162 86 402q64 4 319.5 30.5t345.5 26.5q23 0 23 10
q0 8 -20 8q-101 0 -286.5 1t-350.5 1q39 96 76.5 157.5t58.5 61.5q14 0 14 -38q0 -13 12 -13t19.5 8t7.5 19q0 17 -16.5 32t-44.5 15q-36 0 -92 -67.5t-113 -174.5h-66q-41 0 -41 -22q0 -16 18 -31.5t50 -21.5q-123 -264 -123 -461q0 -250 221 -250q180 0 387 207
q16 -46 28.5 -75t33 -60.5t48 -46.5t62.5 -15z" />
    </font>
</defs>
</svg>
